<?xml version="1.0" encoding="utf-8"?>
<svg viewBox="0 0 14.100000381469727 15.100000381469727" width="14.100000381469727" height="15.100000381469727" xmlns="http://www.w3.org/2000/svg">
  <path d="M 0 3.06 L 2.66 3.06 L 2.66 14.8 L 0 14.8 Z" transform="matrix(1, 0, 0, 1, 8.881784197001252e-16, 0)"/>
  <path d="M 4.84 9 C 4.824 8.102 4.981 7.209 5.3 6.37 C 5.575 5.65 5.99 4.99 6.52 4.43 C 7.028 3.923 7.633 3.525 8.3 3.26 C 8.982 2.979 9.713 2.836 10.45 2.84 C 11.144 2.833 11.829 2.99 12.45 3.3 C 12.989 3.579 13.482 3.94 13.91 4.37 L 12.46 6.01 C 12.187 5.758 11.885 5.54 11.56 5.36 C 11.223 5.2 10.853 5.121 10.48 5.13 C 10.073 5.118 9.67 5.201 9.3 5.37 C 8.942 5.55 8.628 5.806 8.38 6.12 C 8.102 6.494 7.898 6.919 7.78 7.37 C 7.624 7.882 7.55 8.415 7.56 8.95 C 7.501 9.932 7.76 10.907 8.3 11.73 C 8.788 12.378 9.559 12.751 10.37 12.73 C 10.811 12.742 11.248 12.642 11.64 12.44 C 12.014 12.246 12.352 11.988 12.64 11.68 L 14.09 13.28 C 13.179 14.395 11.809 15.032 10.37 15.01 C 9.64 15.013 8.915 14.885 8.23 14.63 C 7.565 14.377 6.961 13.985 6.46 13.48 C 5.947 12.941 5.552 12.3 5.3 11.6 C 4.992 10.768 4.837 9.887 4.84 9 Z M 13.21 0 L 11.48 2.16 L 8.89 2.16 L 7.16 0 L 9.16 0 L 10.11 1.1 L 10.18 1.1 L 11.18 0 Z" transform="matrix(1, 0, 0, 1, 8.881784197001252e-16, 0)"/>
</svg>
