<?xml version="1.0" encoding="utf-8"?>
<svg viewBox="0 0 25.600000381469727 15.100000381469727" width="25.600000381469727" height="15.100000381469727" xmlns="http://www.w3.org/2000/svg">
  <path d="M 0 3.06 L 3.31 3.06 C 4.133 3.048 4.952 3.162 5.74 3.4 C 6.428 3.596 7.065 3.937 7.61 4.4 C 8.149 4.918 8.56 5.555 8.81 6.26 C 9.099 7.099 9.238 7.983 9.22 8.87 C 9.234 9.757 9.095 10.64 8.81 11.48 C 8.562 12.173 8.162 12.802 7.64 13.32 C 7.132 13.838 6.513 14.235 5.83 14.48 C 5.072 14.728 4.278 14.849 3.48 14.84 L 0 14.84 Z M 3.17 12.65 C 3.628 12.653 4.083 12.586 4.52 12.45 C 4.92 12.327 5.284 12.107 5.58 11.81 C 5.912 11.487 6.162 11.089 6.31 10.65 C 6.484 10.073 6.565 9.472 6.55 8.87 C 6.564 8.278 6.483 7.687 6.31 7.12 C 6.179 6.691 5.946 6.299 5.63 5.98 C 5.329 5.699 4.966 5.493 4.57 5.38 C 4.131 5.256 3.676 5.195 3.22 5.2 L 2.72 5.2 L 2.72 12.65 Z" transform="matrix(1, 0, 0, 1, 0, 0)"/>
  <path d="M 11.42 3.06 L 14.08 3.06 L 14.08 14.79 L 11.42 14.79 Z" transform="matrix(1, 0, 0, 1, 0, 0)"/>
  <path d="M 16.31 9 C 16.294 8.113 16.447 7.23 16.76 6.4 C 17.017 5.69 17.411 5.038 17.92 4.48 C 18.424 3.958 19.03 3.546 19.7 3.27 C 20.387 2.997 21.12 2.858 21.86 2.86 C 22.554 2.845 23.242 3.003 23.86 3.32 C 24.396 3.591 24.885 3.946 25.31 4.37 L 23.87 6.01 C 23.6 5.755 23.297 5.536 22.97 5.36 C 22.633 5.2 22.263 5.121 21.89 5.13 C 21.495 5.123 21.103 5.213 20.75 5.39 C 20.388 5.563 20.07 5.816 19.82 6.13 C 19.543 6.486 19.333 6.889 19.2 7.32 C 19.045 7.835 18.971 8.372 18.98 8.91 C 18.914 9.907 19.185 10.896 19.75 11.72 C 20.232 12.375 21.007 12.749 21.82 12.72 C 22.257 12.75 22.694 12.667 23.09 12.48 C 23.463 12.287 23.8 12.034 24.09 11.73 L 25.55 13.33 C 25.093 13.883 24.52 14.327 23.87 14.63 C 23.225 14.916 22.526 15.063 21.82 15.06 C 21.089 15.064 20.363 14.932 19.68 14.67 C 19.001 14.409 18.386 14.003 17.88 13.48 C 17.353 12.946 16.947 12.305 16.69 11.6 C 16.405 10.764 16.276 9.883 16.31 9 Z M 24.68 0 L 22.9 2.16 L 20.31 2.16 L 18.58 0 L 20.58 0 L 21.58 1.09 L 21.65 1.09 L 22.65 0 Z" transform="matrix(1, 0, 0, 1, 0, 0)"/>
</svg>
