<svg width="689" height="534" viewBox="0 0 689 534" fill="none" xmlns="http://www.w3.org/2000/svg">
<path d="M685.907 246.836C690.226 229.485 687.478 206.17 684.827 193.262C668.016 111.391 576.992 95.8566 499.245 83.1196C499.245 83.1196 393.103 75.6099 302.177 36.0981C-113.825 -144.723 -60.3246 407.337 221.092 509.822C382.967 580.648 623.572 496.716 685.882 246.836H685.907Z" fill="#F2F2F2"/>
<g clip-path="url(#clip0_223_1164)">
<path d="M593.674 347.95C596 352.704 598.454 357.381 600.396 362.313C604.076 371.616 605.827 381.29 605.75 391.257C605.712 396.535 605.444 401.838 604.242 407.026C603.45 407.333 602.901 407.704 602.875 408.751C602.811 410.988 602.556 413.211 602.351 415.435C602.262 416.419 602.556 417.492 601.738 418.323C600.46 421.275 599.476 424.329 598.556 427.409C598.402 427.664 598.198 427.894 598.109 428.162C595.668 434.833 592.281 440.928 587.055 445.848C583.694 449.017 579.707 451.088 575.094 451.407C563.222 452.238 552.527 448.864 543.185 441.555C538.189 437.644 535.275 432.571 536.029 425.913C537.115 420.457 539.556 415.563 542.214 410.745C543.965 407.563 546.252 404.649 547.262 401.071C549.984 397.634 551.568 393.609 553.255 389.622C554.418 387.143 555.248 384.548 555.938 381.916C556.539 383.092 556.168 384.293 556.092 385.507C555.734 390.708 554.814 395.807 553.741 400.893C553.549 401.813 553.51 402.541 554.558 402.809C555.568 403.078 555.708 402.285 555.926 401.583C557.996 394.912 558.788 388.101 558.469 381.098C558.303 377.507 557.51 374.044 556.999 370.53C557.421 365.815 556.322 361.265 555.095 356.818C553.574 351.272 551.721 345.816 548.386 341.024C548.258 340.64 548.182 340.232 547.99 339.887C541.153 327.274 532.068 316.616 520.426 308.195C520.209 308.042 519.864 308.08 519.583 308.029C519.187 307.722 518.714 307.492 518.42 307.109C515.928 303.761 512.554 301.32 509.615 298.419C508.759 297.576 507.737 296.911 506.766 296.196C505.986 295.621 505.449 295.889 505.181 296.758C505.028 297.231 504.977 297.742 504.874 298.228C504.172 297.959 503.75 298.138 503.558 298.93C503.098 300.809 502.549 302.662 502.114 304.54C500.287 312.604 500.427 320.476 504.619 327.913C507.021 332.168 509.781 336.155 512.861 339.95C513.832 341.65 514.931 343.222 516.733 344.167C517.602 345.522 518.497 346.877 519.353 348.231C520.81 350.544 520.797 350.608 518.228 351.617C509.245 355.17 500.057 358.135 490.92 361.24C480.237 364.869 469.503 368.307 458.768 371.77C457.401 372.204 456.43 372.92 455.829 374.185C454.475 374.185 453.299 374.875 452.034 375.207C448.916 376.051 446.002 377.584 442.731 377.942C444.06 367.45 446.156 357.112 448.354 346.774C448.635 345.433 448.584 343.95 449.747 342.915C451.817 341.854 452.737 340.078 453.21 337.855C453.976 334.277 454.922 330.737 455.817 327.197C458.027 318.559 460.251 309.92 462.474 301.282C464.199 299.723 464.417 297.41 465.35 295.455C465.643 294.828 464.902 294.726 464.455 294.547C464.136 294.062 463.714 293.844 463.203 294.253C462.551 294.777 462.283 295.557 461.938 296.298C459.395 301.831 456.532 307.224 453.337 312.399C451.229 315.824 448.993 319.223 445.555 321.549C445.146 321.549 444.737 321.498 444.328 321.511C435.217 321.868 430.86 319.159 426.962 310.661C426.719 310.125 426.361 309.895 425.825 309.818C426.898 308.63 428.508 307.914 429.224 306.496C428.483 305.307 427.678 306.074 426.949 306.048C426.655 303.569 427.78 301.512 428.956 299.48C430.604 296.643 433.006 294.394 435.038 291.864C435.933 291.238 436.981 290.752 437.453 289.653C440.648 286.893 444.098 284.427 446.731 281.078C449.913 279.328 451.791 276.427 453.478 273.36C453.606 273.13 453.478 272.772 453.452 272.466C453.746 272.414 454.143 272.466 454.334 272.287C457.759 269.118 462.04 267.38 466.142 265.399C469.273 263.891 472.57 262.843 476.148 263.367C475.56 265.284 476.633 266.932 477.055 268.657C477.617 270.919 478.256 273.181 479.585 275.162C481.144 277.475 482.754 277.897 484.978 276.414C485.987 275.75 486.856 274.868 487.738 274.025C491.278 270.625 493.897 266.472 496.926 262.651C498.408 262.588 499.776 263.508 501.284 263.163C510.19 264.785 518.612 267.712 526.33 272.529C526.215 273.539 526.931 273.897 527.633 274.37C531.518 276.964 535.416 279.558 539.237 282.254C541.179 283.621 543.415 284.733 544.399 287.136C546.137 288.771 547.581 290.714 549.6 292.055C556.744 299.863 563.759 307.786 570.545 315.901C570.864 316.859 571.72 317.396 572.321 318.124C573.279 317.945 573.484 318.776 573.829 319.325C576.448 323.555 579.03 327.811 581.624 332.053C582.314 333.178 582.966 334.328 583.643 335.465C584.282 336.538 584.972 336.002 585.675 335.542C588.333 339.669 591.003 343.81 593.661 347.937L593.674 347.95Z" fill="#A7C721"/>
<path d="M442.731 377.916C445.99 377.571 448.916 376.025 452.034 375.182C453.299 374.837 454.475 374.159 455.829 374.159C456.494 374.913 457.171 374.313 457.785 374.121C472.749 369.393 487.7 364.588 502.434 359.157C508.938 356.767 515.455 354.429 521.972 352.078C530.982 354.301 539.939 356.703 548.655 359.937C549.971 360.422 551.083 361.444 552.603 361.342C553.804 364.959 555.082 368.575 555.491 372.37C555.836 375.527 556.974 378.696 555.913 381.929C555.236 384.574 554.392 387.155 553.229 389.634C552.156 389.456 551.236 389.992 550.265 390.273C542.623 392.471 534.994 394.708 527.365 396.931C509.36 402.17 491.367 407.448 473.349 412.636C467.969 414.183 462.666 416.01 457.171 417.134C456.456 417.134 455.689 416.968 455.216 417.748C455.114 417.85 454.999 417.876 454.858 417.825C451.255 417.275 447.817 418.336 444.328 418.949C438.757 419.92 433.173 420.853 427.614 421.939C421.748 423.089 415.934 424.508 410.209 426.246C398.389 429.849 386.901 434.041 377.994 443.165C377.483 443.689 376.908 444.085 376.141 444.085C375.936 443.88 375.745 443.676 375.54 443.459C374.25 437.989 372.678 432.597 370.876 427.268C370.761 426.527 370.723 425.773 370.237 425.147C370.263 424.099 369.841 423.166 369.56 422.182C368.397 418.17 367.208 414.17 366.135 410.132C365.407 407.41 366.506 405.365 369.1 404.241C369.662 403.998 370.25 403.819 370.825 403.614C393.52 395.641 416.202 387.679 438.885 379.693C440.214 379.22 441.632 378.913 442.718 377.904L442.731 377.916ZM455.804 400.215C455.765 397.66 453.299 395.819 450.641 396.535C447.6 397.353 444.61 398.375 441.594 399.308C424.764 404.509 407.934 409.697 391.118 414.911C390.057 415.243 388.945 415.473 388 416.138C386.21 417.416 385.533 419.716 386.402 421.543C387.284 423.396 388.881 423.958 391.296 423.294C391.693 423.192 392.089 423.077 392.472 422.962C408.075 418.285 423.678 413.607 439.268 408.918C443.562 407.627 447.843 406.324 452.098 404.918C454.449 404.138 455.829 402.234 455.791 400.203L455.804 400.215Z" fill="#14B1EF"/>
<path d="M376.166 444.072C376.933 444.072 377.508 443.676 378.019 443.152C386.926 434.028 398.427 429.824 410.234 426.233C415.959 424.495 421.774 423.064 427.639 421.926C433.198 420.84 438.77 419.907 444.354 418.936C447.842 418.323 451.28 417.262 454.884 417.812C450.411 419.537 445.76 420.661 441.172 422.003C426.208 426.373 411.231 430.693 396.254 435.063C395.092 435.408 393.865 435.651 392.843 436.379C391.079 437.657 390.427 439.983 391.335 441.81C392.178 443.51 393.801 444.149 395.999 443.638C396.497 443.523 396.983 443.382 397.481 443.254C402.874 441.721 408.254 440.175 413.646 438.654C450.909 428.15 488.172 417.633 525.448 407.141C532.706 405.097 539.978 403.103 547.236 401.097C546.226 404.675 543.939 407.589 542.188 410.771C539.53 415.588 537.09 420.482 536.003 425.939C535.109 426.092 534.189 426.207 533.307 426.412C514.97 430.539 496.619 434.641 478.294 438.833C472.454 440.175 466.551 441.235 460.8 442.948C459.816 441.759 458.577 442.257 457.427 442.5C455.05 442.999 452.698 443.599 450.309 444.072C447.344 444.673 447.357 444.622 445.913 442.066C444.52 439.574 442.846 437.274 440.686 435.382C438.821 433.76 437.134 434.054 435.984 436.251C435.37 437.414 435.102 438.692 435 440.047C434.795 442.948 435.575 445.669 436.265 448.417C426.809 450.5 417.352 452.57 407.909 454.678C400.446 456.34 392.996 458.065 385.546 459.739C381.891 460.557 380.37 459.739 379.412 456.174C378.326 452.148 376.767 448.251 376.141 444.098L376.166 444.072Z" fill="#14B1EF"/>
<path d="M276.287 167.053C277.399 159.565 280.913 153.201 285.795 147.591C291.289 141.278 298.177 137.534 306.675 136.844C313.614 136.269 320.259 137.445 326.738 139.758C330.571 141.125 334.29 142.799 337.6 145.227C337.689 145.981 338.188 146.211 338.865 146.185L338.852 146.16C339.453 148.677 341.523 150.185 343.107 151.923C347.618 156.881 350.43 162.568 351.452 169.149C351.682 170.67 351.286 172.203 350.417 173.455C349.011 175.5 346.954 175.257 344.909 174.695C340.973 173.596 336.986 172.983 332.884 173.149C330.674 173.238 328.693 173.775 326.866 175.014C324.003 176.957 321.332 179.129 318.7 181.353C313.755 185.544 308.426 188.023 301.589 188.049C292.082 188.074 280.632 180.267 277.884 170.925C277.488 169.596 277.322 168.127 276.287 167.04V167.053ZM311.723 152.882C311.518 152.882 311.314 152.882 311.109 152.882C305.742 153.048 301.742 156.881 301.027 162.926C300.49 167.449 302.279 170.849 307.825 172.267C310.036 172.842 310.649 174.171 311.097 176.062C312.272 180.982 312.949 181.327 317.767 179.73C318.253 179.564 318.751 179.423 319.211 179.206C320.936 178.388 321.307 177.621 320.757 175.794C320.463 174.823 320.131 173.839 319.684 172.932C318.93 171.398 319.019 170.082 320.118 168.689C321.32 167.155 322.099 165.418 322.342 163.411C322.955 158.198 317.409 152.204 311.723 152.894V152.882ZM297.794 158.453C299.66 158.428 301.065 158.057 301.104 157.431C301.18 156.127 299.928 155.642 299.263 154.798C299.136 154.645 298.982 154.504 298.816 154.377C298.037 153.763 297.372 152.69 296.222 153.175C295.072 153.648 294.791 154.811 294.676 155.974C294.484 158.006 295.123 158.491 297.781 158.466L297.794 158.453ZM308.004 146.147C307.889 145.649 307.723 144.754 307.48 143.873C307.327 143.31 306.88 143.119 306.305 143.17C305.193 143.285 303.532 144.882 303.404 145.981C303.25 147.336 304.822 149.712 305.908 149.776C307.046 149.84 307.966 148.409 307.991 146.147H308.004ZM319.109 145.93C318.751 145.955 318.329 146.288 318.214 146.799C317.933 148.077 317.665 149.367 317.524 150.671C317.448 151.399 317.805 152.064 318.623 152.281C319.377 152.485 320.093 152.332 320.515 151.68C321.013 150.926 321.486 150.121 321.792 149.278C322.329 147.796 320.885 145.917 319.109 145.93Z" fill="#14B1EF"/>
<path d="M267.93 214.322C273.105 214.45 278.293 214.284 283.366 215.587C285.322 216.098 287.315 216.507 288.848 217.977C287.941 218.539 288.44 219.178 288.733 219.817C289.564 221.683 290.638 223.421 291.302 225.363C292.605 229.12 293.411 232.941 293.845 236.928C294.318 241.222 294.471 245.413 293.679 249.656C293.538 250.435 293.385 251.048 292.49 251.151C291.404 247.649 290.344 244.148 289.232 240.659C288.58 238.615 287.737 236.621 286.561 234.832C285.27 232.864 283.801 232.813 282.434 234.679C281.718 235.663 281.168 236.749 280.657 237.874C279.354 240.749 277.999 243.624 276.466 246.384C275.533 248.045 274.332 247.956 273.539 246.269C272.939 244.991 272.543 243.586 272.249 242.206C270.984 236.225 269.808 230.232 268.543 224.251C268.249 222.858 267.84 221.478 267.291 220.175C266.805 219.012 265.936 218.999 265.259 220.06C264.875 220.648 264.607 221.338 264.39 222.015C263.725 224.162 263.112 226.309 262.486 228.468C261.221 232.775 260.135 237.132 258.064 241.158C255.841 245.477 253.093 246.282 248.774 243.918C247.522 243.228 246.282 242.512 245.017 241.86C240.583 239.611 237.976 240.314 235.088 244.429C233.146 247.202 231.791 250.282 230.411 253.361C228.251 258.192 227.727 258.038 233.708 259.01C242.168 260.377 250.768 260.556 259.317 260.837C268.083 261.118 276.875 260.926 285.654 260.939C286.842 262.396 285.373 262.588 284.619 263.022C279.469 265.936 273.808 267.367 268.019 267.61C260.109 267.942 252.148 268.159 244.289 266.498C237.082 264.965 230.513 262.332 225.351 256.773C224.137 255.47 223.204 253.809 221.479 253.016C220.137 244.927 221.44 237.209 224.916 229.861C226.769 225.951 229.695 223.114 233.695 221.312C239.407 218.744 245.426 217.338 251.56 216.239C256.978 215.268 262.46 214.846 267.93 214.348V214.322Z" fill="#14B1EF"/>
<path d="M368.256 249.655C370.096 249.822 370.94 248.863 371.54 247.189C373.176 242.64 373.713 238.116 372.039 233.439C370.454 229.03 368.984 224.583 367.489 220.136C367.08 218.935 366.352 218.002 365.509 217.108C363.63 215.089 361.867 212.98 360.576 210.514C358.723 207 358.685 203.447 360.487 199.959C363.285 194.515 367.796 191.346 373.828 190.311C378.223 189.557 382.568 190.093 386.926 190.63C388.434 190.822 389.954 190.975 391.475 191.154C392.651 191.78 393.098 191.192 393.366 190.106C393.941 187.844 394.504 185.57 395.232 183.359C395.769 181.723 396.421 180.1 397.251 178.605C399.832 173.954 403.807 172.574 408.905 174.273C411.832 175.245 413.927 177.238 415.934 179.423C418.758 184.228 418.783 189.288 417.301 194.489C415.563 200.559 412.662 206.016 408.573 210.821C406.771 212.929 404.752 214.82 402.197 215.983C401.059 216.494 400.753 217.197 400.765 218.347C400.791 220.481 400.829 222.641 400.088 224.698C399.769 224.711 399.462 224.737 399.142 224.75C399.232 222.718 399.232 220.686 399.002 218.654C398.9 217.747 398.721 217.121 397.622 217.095C393.481 217.006 390.044 215.012 386.632 212.955C384.894 211.907 383.169 210.808 381.329 209.965C378.364 208.584 376.115 209.096 373.879 211.447C372.179 213.236 371.106 215.447 369.892 217.568C369.112 218.935 369.099 220.111 369.636 221.58C371.182 225.772 372.575 230.027 373.994 234.27C374.722 236.429 374.76 238.64 374.645 240.902C374.492 244.007 373.163 246.793 372.537 249.77C371.936 250.128 371.374 250.639 370.722 250.806C366.723 251.905 362.761 253.119 358.851 254.524C358.122 254.78 357.471 254.741 356.819 254.371C356.27 253.821 355.784 253.259 356.985 252.901C360.052 251.981 363.106 251.048 366.173 250.128C366.889 249.975 367.592 249.822 368.307 249.668L368.256 249.655Z" fill="#212529"/>
<path d="M552.654 120.513C552.82 121.101 553.063 121.663 553.153 122.264C553.37 123.759 554.188 124.206 555.67 124.231C558.98 124.295 559.12 124.513 559.159 127.707C559.171 129.139 559.159 130.557 559.159 131.988C559.159 133.368 558.469 134.058 557.088 134.033C556.475 134.033 555.862 134.084 555.261 134.033C554.034 133.931 553.357 134.493 553.05 135.643C552.948 136.039 552.846 136.461 552.629 136.78C551.095 139.042 551.044 141.048 553.51 142.735C554.022 143.08 554.111 143.77 554.162 144.396C554.06 144.754 553.97 145.125 553.868 145.483C552.475 146.812 551.095 148.153 549.677 149.457C548.207 150.811 547.466 151.041 546.38 149.61C544.54 147.169 542.751 147.668 540.387 148.665C538.534 149.444 537.639 150.16 537.741 152.319C537.882 155.169 537.435 155.501 534.611 155.412C532.413 155.348 530.138 155.948 528.004 154.939C530.726 150.939 533.46 146.939 535.454 142.505C543.428 140.831 548.284 133.266 546.329 125.56C544.361 117.804 536.489 113.267 528.783 115.555C523.672 117.075 520.349 120.564 519.199 125.701C517.985 131.158 519.442 135.988 523.902 139.681C523.212 140.09 522.445 140.422 521.857 140.946C520.311 142.339 518.675 143.719 519.008 146.16C518.33 147.514 517.666 148.856 516.925 150.351C514.599 148.716 513.168 146.39 510.97 144.933C511.046 144.46 511.123 143.987 511.213 143.515C513.547 141.368 514.075 139.106 512.797 136.729C512.337 135.886 512.669 134.672 511.583 134.135C510.561 134.109 509.551 134.046 508.529 134.046C506.983 134.046 506.318 133.279 506.344 131.771C506.369 130.046 506.28 128.308 506.369 126.583C506.472 124.73 506.944 124.104 508.823 124.27C511.276 124.487 512.337 123.414 512.759 121.228C512.835 120.832 512.963 120.423 513.181 120.091C514.203 118.519 514.139 117.28 512.631 115.9C510.995 114.392 511.123 113.676 512.631 112.066C513.679 110.954 514.765 109.881 515.877 108.82C517.474 107.312 517.985 107.133 519.417 108.705C520.899 110.315 522.215 110.405 523.915 109.293C524.503 108.91 525.205 108.629 525.895 108.514C527.416 108.245 527.736 107.351 527.774 105.919C527.851 103.083 528.196 102.84 531.02 102.801C532.451 102.776 533.869 102.75 535.301 102.801C537.154 102.891 537.882 103.351 537.741 105.153C537.55 107.542 538.7 108.411 540.693 108.884C541.281 109.025 541.869 109.28 542.367 109.6C543.581 110.392 544.489 110.226 545.575 109.191C547.862 107.018 547.939 107.095 550.213 109.331C550.865 109.97 551.517 110.622 552.156 111.274C554.609 113.753 554.648 113.778 552.322 116.398C551.466 117.356 550.993 118.2 552.092 119.248C552.284 119.669 552.488 120.091 552.68 120.513H552.654Z" fill="#14B1EF"/>
<path d="M470.001 203.767C476.646 200.955 483.163 201.658 489.604 204.521C490.243 205.339 491.457 205.313 492.057 206.208C492.875 207.013 493.667 207.856 494.843 208.15C497.948 210.348 500.159 213.223 501.181 216.878C502.434 221.338 501.181 223.331 496.657 224.251C495.469 224.494 494.894 224.89 494.894 226.194C494.894 233.439 494.345 240.672 494.587 247.918C494.536 249.106 494.485 250.294 494.447 251.483C494.408 252.684 493.782 253.055 492.671 252.761C492.402 249.937 491.865 247.125 492.134 244.25C492.517 239.995 492.811 235.727 493.079 231.458C493.22 229.248 493.642 227.024 493.131 224.647C489.45 224.698 486.46 225.912 484.556 229.043C481.361 234.308 480.454 240.365 478.397 246.256C482.128 245.605 482.435 245.899 481.847 249.068C481.757 249.566 481.719 250.077 481.579 250.576C480.352 255.074 479.023 259.533 476.16 263.342C472.582 262.83 469.285 263.865 466.154 265.373C462.04 267.354 457.772 269.092 454.347 272.261C454.155 272.44 453.759 272.389 453.465 272.44C452.698 271.827 452.967 271.277 453.491 270.638C455.433 268.3 457.925 266.766 460.672 265.578C464.826 263.789 469.158 262.69 473.63 262.128C474.589 262 475.355 261.859 475.803 260.824C477.132 257.732 478.703 254.741 479.611 251.483C479.892 250.473 480.505 249.374 479.751 248.186C478.358 248.556 477.093 249.119 475.969 250.039C474.716 251.061 473.349 250.946 471.943 250.32C470.116 249.515 468.851 248.058 467.547 246.64C466.832 244.889 466.666 243.023 466.525 241.158C466.832 241.158 467.138 241.158 467.445 241.158C467.867 242.282 468.467 243.087 469.873 242.947C470.563 242.87 471.343 242.921 471.982 243.177C473.63 243.841 474.589 243.049 475.624 241.912C478.575 238.678 479.764 234.755 480.237 230.551C480.377 229.363 480.582 227.957 479.483 227.139C478.282 226.257 477.208 227.344 476.16 227.855C474.192 228.839 472.403 230.359 469.963 229.938C469.145 229.797 468.915 230.321 468.774 230.96C468.34 232.941 467.905 234.922 467.471 236.902C467.1 236.838 466.73 236.774 466.359 236.711C466.244 234.27 466.206 231.803 466.883 229.439C467.202 228.315 466.908 227.535 466.346 226.628C465.043 224.545 464.199 222.245 463.548 219.894C462.065 214.552 461.644 209.479 468.378 204.649C468.991 204.47 469.554 204.201 470.001 203.728V203.767Z" fill="#212529"/>
<path d="M303.455 365.508C302.509 365.15 301.551 364.831 300.618 364.435C298.152 363.412 297.794 361.828 299.494 359.489C300.184 361.01 301.104 362.147 302.88 362.658C310.79 364.946 318.662 367.361 326.546 369.738C342.609 374.594 358.659 379.45 374.71 384.318C376.856 384.97 378.978 385.66 381.125 386.274C384.102 387.104 385.597 385.89 385.559 382.772C385.546 381.852 385.367 380.97 385.15 380.063C383.182 371.974 381.278 363.86 379.361 355.771C380.754 356.077 382.134 356.371 383.527 356.691C390.07 358.199 396.497 360.141 403.117 361.368C407.334 362.633 411.564 363.872 415.947 364.396C416.752 364.792 417.557 365.201 418.362 365.598C421.033 365.725 423.525 366.697 426.093 367.297C427.55 367.642 428.432 368.498 428.521 370.045C428.598 371.578 427.831 372.549 426.438 373.073C423.576 374.159 420.726 375.233 417.864 376.306C407.653 380.14 397.417 383.858 387.271 387.858C384.23 389.059 381.508 389.085 378.428 388.127C358.672 382.018 338.878 376.038 319.096 370.045C318.138 369.751 317.205 369.214 316.144 369.38C316.004 369.252 315.838 369.214 315.659 369.239C315.326 368.767 314.841 368.728 314.33 368.779C310.79 367.425 307.199 366.3 303.493 365.495L303.455 365.508Z" fill="#14B1EF"/>
<path d="M358.634 185.429C358.608 187.934 359.337 190.413 358.94 193.454C356.334 191.09 354.826 188.1 352.283 186.132C347.938 181.583 343.849 180.982 338.315 183.998C331.696 187.627 325.013 191.141 317.678 193.173C308.809 195.627 299.966 195.716 291.149 192.866C288.9 192.138 286.791 191.141 284.785 189.902C278.306 185.889 275.239 180.011 275.508 172.446C275.572 170.657 275.342 168.753 276.3 167.053C277.335 168.139 277.501 169.622 277.897 170.938C280.645 180.279 292.095 188.087 301.602 188.062C308.439 188.036 313.767 185.557 318.713 181.366C321.345 179.142 324.016 176.957 326.878 175.027C328.706 173.788 330.686 173.251 332.897 173.162C337.012 172.995 340.986 173.609 344.922 174.708C346.967 175.283 349.024 175.513 350.43 173.468C351.299 172.203 351.695 170.682 351.465 169.162C350.455 162.581 347.631 156.894 343.12 151.936C341.548 150.198 339.466 148.69 338.865 146.173C345.267 150.006 349.765 155.514 352.947 162.159C356.206 168.945 357.433 176.254 358.378 183.64C358.455 184.241 358.557 184.841 358.634 185.442V185.429Z" fill="#14B1EF"/>
<path d="M492.67 252.786C493.782 253.08 494.408 252.71 494.447 251.508C494.485 250.32 494.536 249.132 494.587 247.943C495.929 247.739 496.325 246.525 496.811 245.617C498.779 241.937 500.593 238.18 501.999 234.231C504.823 226.245 505.909 217.862 507.979 209.696C508.746 206.68 508.721 203.435 510.446 200.687C513.794 202.387 515.838 205.339 517.819 208.354C517.96 209.901 517.257 211.332 517.18 212.84C517.129 213.734 516.068 214.999 517.512 215.485C518.944 215.958 518.599 214.092 519.378 213.581C520.758 214.91 520.707 216.673 520.797 218.373C520.988 221.849 520.656 225.274 519.825 228.66C519.608 229.542 519.621 230.475 519.519 231.382C518.663 232.238 518.33 233.311 518.305 234.5C515.672 240.212 513.053 245.911 509.743 251.278C507.174 255.444 504.159 259.265 501.296 263.188C499.788 263.533 498.421 262.613 496.939 262.677C496.261 259.061 494.485 255.93 492.67 252.812V252.786Z" fill="#14B1EF"/>
<path d="M436.29 448.404C435.6 445.657 434.821 442.935 435.025 440.034C435.128 438.68 435.396 437.402 436.009 436.239C437.159 434.041 438.846 433.747 440.712 435.37C442.872 437.261 444.546 439.561 445.938 442.053C447.37 444.609 447.37 444.66 450.334 444.059C452.711 443.587 455.075 442.973 457.452 442.488C458.615 442.245 459.842 441.734 460.826 442.935C461.247 444.609 461.784 446.245 461.989 447.982C462.219 449.899 460.851 451.318 460.417 453.183C464.046 453.695 467.458 454.27 470.895 454.653C483.521 456.033 495.916 455.151 507.98 450.909C513.768 448.864 519.225 446.168 524.349 442.794C525.55 442.002 526.611 441.427 527.416 443.216C511.647 453.413 489.425 459.624 468.007 456.148C464.787 455.624 461.567 455.139 458.359 454.538C456.481 454.18 456.379 453.72 457.631 452.212C458.283 451.433 459.011 450.704 459.586 449.874C460.787 448.123 460.315 446.219 459.433 444.66C458.653 443.305 457.26 444.494 456.136 444.647C452.813 445.082 449.683 446.5 446.271 446.475C444.584 443.088 442.565 439.919 439.996 437.159C438.77 435.843 437.76 436.2 437.594 437.977C437.262 441.516 436.942 445.095 438.782 448.391C439.575 451.803 441.198 454.858 442.859 457.899C443.511 459.087 444.367 460.058 445.402 460.915C450.334 465.042 455.408 468.978 460.787 472.531C471.189 479.406 482.639 483.508 494.945 485.015C510.829 486.958 526.522 485.629 541.92 481.259C553.472 477.987 564.398 473.336 574.046 466.001C577.969 463.01 581.637 459.777 584.486 455.739C590.531 447.19 596.639 438.654 599.374 428.303C600.703 425.108 601.546 421.812 601.738 418.348C602.555 417.518 602.274 416.444 602.351 415.46C602.543 413.237 602.811 411.001 602.875 408.777C602.9 407.729 603.45 407.359 604.242 407.052C605.15 407.908 604.702 408.982 604.638 409.94C603.795 423.447 599.425 435.855 592.844 447.561C591.489 449.976 589.904 452.225 588.039 454.27C586.173 456.301 584.333 458.359 582.493 460.403C577.739 465.694 572.385 470.179 565.855 473.17C562.801 474.575 559.849 476.198 556.858 477.757C548.246 482.268 538.917 484.543 529.448 486.051C511.264 488.951 493.258 488.44 475.675 482.242C469.656 480.121 464.199 476.99 458.986 473.374C454.117 470 449.453 466.358 444.776 462.729C443.127 461.451 441.875 459.918 440.865 458.103C439.127 454.985 437.683 451.714 436.29 448.43V448.404Z" fill="#212529"/>
<path d="M221.479 252.991C223.204 253.783 224.137 255.444 225.351 256.748C230.513 262.294 237.082 264.939 244.289 266.472C252.135 268.134 260.109 267.916 268.019 267.584C273.808 267.341 279.469 265.91 284.619 262.997C285.386 262.562 286.842 262.37 285.654 260.914C287.494 260.492 289.373 260.16 291.187 259.623C293.526 258.92 294.024 257.911 293.475 255.547C293.13 254.09 292.503 252.684 292.503 251.151C293.398 251.048 293.539 250.435 293.692 249.656C294.484 245.413 294.331 241.222 293.858 236.928C293.424 232.941 292.618 229.133 291.315 225.363C290.638 223.421 289.577 221.683 288.746 219.817C288.453 219.178 287.967 218.539 288.861 217.977C290.944 219.05 292.005 221.031 293.245 222.858C293.807 223.689 294.305 224.558 294.829 225.414C294.893 226.373 295.366 227.178 295.813 227.983C297.756 234.743 298.791 241.605 298.446 248.659C298.241 252.812 297.628 256.901 296.746 260.952C294.586 267.993 289.347 270.983 282.472 272.133C275.878 273.245 269.259 273.36 262.627 272.99C254.678 272.542 246.755 271.712 239.05 269.527C237.095 268.977 235.152 268.3 233.223 267.661C226.143 265.31 222.731 260.006 221.466 252.991H221.479Z" fill="#14B1EF"/>
<path d="M501.181 133.496C503.341 135.145 502.204 137.407 502.191 139.413C502.191 140.243 501.13 140.282 500.44 140.192C498.664 139.975 498.293 141.227 497.757 142.467C497.233 143.643 496.747 144.588 498.114 145.611C499.201 146.416 499.098 147.502 498.114 148.486C497.475 149.125 496.9 149.84 496.313 150.518C496.108 150.709 495.904 150.901 495.712 151.093C494.562 151.374 493.846 150.709 493.028 150.045C491.636 148.907 488.441 150.236 488.109 152.038C487.93 153.009 488.249 154.364 486.946 154.568C485.272 154.824 483.483 155.08 481.847 154.326C481.259 154.057 481.131 153.316 481.221 152.703C481.464 150.978 480.326 150.518 479.048 149.955C477.809 149.406 476.825 149.15 475.841 150.403C474.972 151.514 473.937 151.412 472.978 150.428C472.48 149.917 471.982 149.406 471.458 148.92C470.308 147.847 470.014 146.722 471.266 145.521C471.969 144.844 472.531 144.179 471.803 143.157C471.087 142.147 471.189 140.486 469.349 140.422C466.602 140.346 466.909 139.298 466.947 137.522C466.947 136.806 466.96 136.09 466.947 135.387C466.947 134.276 467.522 133.547 468.583 133.611C470.295 133.713 470.768 132.678 471.343 131.375C471.943 130.02 472.135 128.947 470.921 127.835C470.218 127.196 470.359 126.34 471.011 125.663C471.701 124.922 472.442 124.206 473.145 123.478C473.975 122.621 474.959 122.34 475.79 123.312C476.889 124.589 477.911 124.027 479.048 123.503C480.135 123.005 481.374 122.788 481.246 121.075C481.157 119.836 481.988 119.273 483.227 119.325C484.045 119.35 484.863 119.363 485.668 119.325C487.086 119.235 487.891 119.618 488.121 121.254C488.428 123.439 491.546 124.679 493.361 123.375C494.524 122.545 495.367 122.621 496.287 123.567C496.926 124.232 497.578 124.871 498.217 125.522C498.958 126.302 499.124 127.183 498.293 127.937C496.875 129.241 497.335 130.429 498.357 131.643C498.37 133.65 499.661 133.752 501.169 133.522L501.181 133.496ZM493.948 136.819C493.948 131.656 489.808 127.439 484.709 127.388C479.445 127.337 475.291 131.605 475.343 136.998C475.406 142.224 479.521 146.249 484.735 146.211C489.936 146.16 493.961 142.058 493.948 136.819Z" fill="#14B1EF"/>
<path d="M523.263 83.7228C523.301 84.8729 523.685 85.7674 525.014 85.7035C527.007 85.6013 527.429 86.7642 527.365 88.4127C527.339 89.026 527.352 89.6266 527.365 90.24C527.39 91.5179 527.02 92.5274 525.499 92.3485C523.736 92.1441 523.34 93.3708 522.777 94.5976C522.215 95.8116 522.011 96.7955 523.212 97.7923C524.285 98.6868 524.119 99.7219 523.11 100.655C522.662 101.064 522.253 101.524 521.819 101.945C520.669 103.053 519.442 103.134 518.139 102.188C516.733 101.166 513.321 102.278 512.976 103.888C512.567 105.796 511.396 106.797 509.462 106.891C509.155 106.904 508.861 106.98 508.567 107.031C507.289 106.84 506.408 106.444 506.254 104.859C505.986 102.112 504.491 101.498 501.513 102.661C499.149 103.492 498.025 102.917 495.891 100.22C494.434 98.3801 496.849 97.8817 496.951 96.6166C497.041 96.0672 497.156 95.5177 496.427 95.2876L496.606 95.1599C496.325 93.3836 495.712 92.0418 493.476 92.3485C492.453 92.4891 492.095 91.7096 492.108 90.764C492.108 89.9461 492.147 89.1283 492.095 88.3232C491.993 86.777 492.389 85.908 494.217 85.7419C496.364 85.5374 497.705 82.1255 496.312 80.4515C495.252 79.1736 495.431 78.3557 496.542 77.3973C497.156 76.8734 497.731 76.2728 498.28 75.6722C499.124 74.7393 499.878 74.7649 500.926 75.4805C502.932 76.8606 505.845 75.6977 506.28 73.3209C506.548 71.8769 507.277 71.4552 508.58 71.5191C509.296 71.5574 510.011 71.5702 510.714 71.5191C512.171 71.4168 512.912 71.8258 513.053 73.4998C513.232 75.5188 516.72 76.899 518.356 75.6211C519.493 74.7393 520.285 74.7266 521.206 75.7744C521.819 76.4517 522.483 77.0906 523.148 77.7296C523.902 78.458 524.298 79.2886 523.403 80.0809C521.998 81.3332 522.317 82.5088 523.301 83.7739L523.263 83.7228ZM500.389 88.911C500.363 94.1503 504.427 98.3034 509.628 98.3546C514.701 98.4057 519.008 94.112 519.008 89.0133C519.008 83.8634 514.803 79.5697 509.73 79.5569C504.542 79.5569 500.427 83.6845 500.389 88.911Z" fill="#14B1EF"/>
<path d="M579.362 324.693C581.317 328.398 583.911 331.734 585.687 335.555C584.997 336.015 584.294 336.551 583.655 335.478C582.978 334.341 582.326 333.191 581.636 332.066C579.042 327.823 576.448 323.568 573.841 319.338C573.496 318.776 573.305 317.958 572.333 318.137C572.589 317.128 571.937 316.54 571.286 315.965C565.113 306.841 557.881 298.637 549.651 291.314C548.105 289.679 546.878 287.634 544.425 287.136C543.441 284.733 541.192 283.622 539.262 282.254C535.441 279.558 531.543 276.977 527.659 274.37C526.969 273.91 526.24 273.539 526.355 272.53C527.62 271.852 528.464 272.849 529.384 273.36C534.853 276.453 539.939 280.12 544.77 284.145C545.536 284.784 546.367 285.359 547.159 285.96C551.453 290.254 555.747 294.56 560.04 298.854C564.756 304.732 569.612 310.495 573.867 316.731C574.838 318.163 575.873 319.543 576.87 320.948C577.56 322.29 578.378 323.555 579.362 324.693Z" fill="#212529"/>
<path d="M338.878 146.173C338.188 146.211 337.702 145.981 337.613 145.214C338.137 145.393 338.635 145.61 338.878 146.173Z" fill="#14B1EF"/>
<path d="M314.292 368.779C314.803 368.728 315.288 368.767 315.621 369.239C315.097 369.329 314.624 369.239 314.292 368.779Z" fill="white"/>
<path d="M403.104 361.355C396.497 360.128 390.057 358.186 383.514 356.678C382.134 356.358 380.741 356.065 379.348 355.758C379.092 354.991 378.798 354.237 378.607 353.445C375.68 341.42 372.728 329.395 369.917 317.332C369.317 314.738 368.128 313.383 365.445 312.732C361.023 311.658 356.538 310.802 352.27 309.128C352.206 308.31 352.193 307.505 352.512 306.726C354.327 302.291 355.4 297.627 356.64 293.027C357.253 290.726 358.173 288.465 357.88 285.998C357.79 284.797 358.736 283.967 359.004 282.893C359.707 280.925 359.681 278.893 359.592 276.849C359.541 275.75 358.927 275.379 357.956 275.801C357.304 276.082 356.729 276.516 356.142 276.9C353.624 278.536 351.835 280.861 349.867 283.072C344.411 289.206 339.606 295.71 336.743 303.493C336.539 304.055 336.271 304.63 335.696 304.962C331.453 303.914 327.21 302.841 322.955 301.831C321.575 301.512 321.409 300.822 321.882 299.621C322.891 297.065 323.798 294.471 324.77 291.889C325.051 291.123 325.511 290.394 324.693 289.679C327.159 285.73 329.549 281.705 332.13 277.82C337.945 269.066 345.216 261.821 354.429 256.633C355.439 256.07 356.308 255.419 356.742 254.32C357.394 254.69 358.046 254.741 358.774 254.473C362.672 253.067 366.633 251.841 370.646 250.754C371.297 250.576 371.859 250.064 372.46 249.719C374.415 250.167 375.693 251.7 377.214 252.786C380.626 255.24 384.178 255.7 387.986 254.039C390.261 253.055 392.663 252.198 394.107 249.949C394.938 250.333 395.743 250.754 396.676 250.921C403.615 252.198 410.592 252.991 417.646 253.336C422.668 253.579 427.626 252.837 432.623 252.812C433.134 253.553 433.875 253.489 434.54 253.246C435.524 252.876 436.52 252.812 437.543 252.812C443.472 252.837 449.235 251.662 455.011 250.55C459.343 249.719 463.33 247.892 467.522 246.64C468.825 248.058 470.09 249.502 471.918 250.32C473.323 250.946 474.703 251.061 475.943 250.039C477.067 249.119 478.332 248.556 479.725 248.186C480.479 249.387 479.866 250.486 479.585 251.483C478.678 254.729 477.106 257.732 475.777 260.824C475.329 261.859 474.563 262 473.604 262.128C469.132 262.69 464.8 263.802 460.647 265.578C457.886 266.766 455.407 268.3 453.465 270.638C452.941 271.264 452.673 271.827 453.439 272.44C453.452 272.734 453.58 273.105 453.465 273.335C451.778 276.401 449.9 279.302 446.718 281.053C443.37 281.066 440.034 280.912 436.674 281.539C433.147 282.19 429.594 281.181 426.042 281.015C420.253 280.746 414.426 281.615 408.662 280.452C408.19 280.363 407.615 280.414 407.167 280.606C405.889 281.142 404.548 281.066 403.244 280.989C400.637 280.836 398.209 281.564 395.781 282.331C391.36 283.724 387.194 288.95 387.846 294.126C388.165 296.63 388.421 299.161 388.932 301.627C389.801 305.818 391.398 309.805 392.868 313.818C394.401 318.022 396.446 322.022 397.647 326.354C392.485 326.852 387.322 327.274 382.223 328.232C380.319 328.59 378.441 329.012 376.741 329.983C374.543 331.248 374.351 333.203 376.281 334.877C377.329 335.785 378.62 336.04 379.961 336.142C382.121 336.296 384.242 336.002 386.312 335.491C387.692 335.158 388.587 335.478 389.481 336.551C390.913 338.264 392.51 339.848 394.312 341.19C395.718 342.251 397.085 342.327 398.465 341.19C399.564 340.295 400.663 339.401 401.762 338.506C402.363 338.826 402.49 339.414 402.682 340.002C403.768 343.362 404.56 346.762 405.148 350.25C405.647 353.228 405.57 356.039 404.995 358.914C404.778 360.039 404.522 361.125 403.116 361.329L403.104 361.355Z" fill="white"/>
<path d="M599.386 428.278C596.651 438.628 590.556 447.165 584.499 455.714C581.649 459.752 577.982 462.985 574.059 465.975C564.411 473.323 553.497 477.962 541.933 481.233C526.534 485.603 510.842 486.919 494.958 484.99C482.652 483.482 471.202 479.38 460.8 472.505C455.42 468.952 450.347 465.029 445.414 460.889C444.379 460.033 443.523 459.062 442.871 457.873C441.21 454.832 439.587 451.778 438.795 448.366C441.287 447.727 443.791 447.088 446.283 446.449C449.695 446.475 452.826 445.056 456.149 444.622C457.26 444.481 458.666 443.28 459.445 444.634C460.34 446.193 460.813 448.097 459.599 449.848C459.024 450.679 458.295 451.407 457.644 452.187C456.391 453.695 456.481 454.155 458.372 454.512C461.58 455.113 464.8 455.599 468.02 456.123C489.437 459.598 511.66 453.375 527.429 443.19C526.624 441.401 525.563 441.976 524.362 442.769C519.237 446.142 513.781 448.839 507.992 450.883C495.929 455.139 483.534 456.02 470.908 454.627C467.471 454.257 464.046 453.669 460.429 453.158C460.864 451.292 462.231 449.874 462.001 447.957C461.797 446.219 461.26 444.583 460.838 442.909C466.589 441.197 472.493 440.123 478.333 438.795C496.657 434.603 514.995 430.501 533.345 426.374C534.24 426.169 535.147 426.054 536.042 425.901C535.288 432.546 538.201 437.632 543.198 441.542C552.552 448.851 563.235 452.225 575.106 451.394C579.707 451.075 583.694 449.005 587.067 445.836C592.294 440.916 595.68 434.82 598.121 428.15C598.223 427.881 598.415 427.639 598.568 427.396C598.849 427.69 599.118 427.984 599.399 428.265L599.386 428.278Z" fill="white"/>
<path d="M547.249 401.071C539.99 403.091 532.719 405.071 525.461 407.116C488.198 417.607 450.922 428.124 413.659 438.628C408.266 440.149 402.874 441.695 397.494 443.229C397.008 443.369 396.51 443.497 396.011 443.612C393.801 444.123 392.191 443.497 391.347 441.785C390.44 439.957 391.092 437.632 392.855 436.354C393.877 435.613 395.104 435.37 396.267 435.038C411.231 430.667 426.208 426.361 441.185 421.978C445.772 420.636 450.424 419.524 454.896 417.786C455.037 417.837 455.152 417.812 455.254 417.709C455.97 417.709 456.685 417.697 457.209 417.096C462.704 415.972 468.007 414.157 473.387 412.598C491.405 407.41 509.398 402.132 527.403 396.893C535.032 394.669 542.661 392.433 550.303 390.235C551.274 389.954 552.194 389.417 553.267 389.596C551.581 393.57 549.996 397.608 547.274 401.046L547.249 401.071Z" fill="white"/>
<path d="M397.647 326.367C396.446 322.035 394.414 318.035 392.868 313.831C391.398 309.818 389.801 305.844 388.932 301.64C388.421 299.173 388.165 296.643 387.846 294.139C387.194 288.963 391.36 283.737 395.782 282.344C398.21 281.577 400.638 280.849 403.244 281.002C404.561 281.079 405.89 281.155 407.167 280.619C407.615 280.427 408.19 280.376 408.663 280.465C414.426 281.628 420.253 280.759 426.042 281.027C429.594 281.194 433.147 282.203 436.674 281.551C440.035 280.925 443.357 281.079 446.718 281.066C444.085 284.427 440.622 286.893 437.44 289.64C436.329 289.717 435.204 289.768 434.092 289.883C430.348 290.292 426.604 290.714 422.86 291.135C421.761 290.931 420.675 290.701 419.576 290.509C415.793 289.883 412.087 288.746 408.164 288.95C406.209 289.053 404.701 289.704 403.257 290.982C400.816 293.129 400.241 295.94 400.126 298.931C399.781 307.403 401.519 315.632 403.142 323.862C401.494 325.114 400.101 326.942 397.622 326.354L397.647 326.367Z" fill="#14B1EF"/>
<path d="M403.155 323.875C411.346 319.108 419.013 313.601 426.08 307.288C426.451 306.968 426.655 306.457 426.936 306.036C427.665 306.061 428.47 305.294 429.211 306.483C428.495 307.901 426.898 308.617 425.812 309.805C418.438 316.795 409.685 321.881 401.328 327.504C400.433 328.105 399.5 328.309 398.478 328.411C393.315 328.935 388.14 329.485 382.977 330.047C381.048 330.264 379.131 330.622 377.469 331.708C376.371 332.424 376.434 333.178 377.61 333.702C379.361 334.468 381.201 334.366 383.028 334.175C384.945 333.97 387.066 333.088 388.702 333.651C390.338 334.226 391.475 336.219 392.83 337.586C396.995 341.765 396.459 340.871 399.909 337.523C401.443 336.04 403.002 335.171 405.161 334.801C412.483 333.561 419.767 332.04 427.064 330.66C429.684 330.162 432.15 329.306 434.501 328.002C438.233 325.932 442.092 324.066 445.555 321.523C448.992 319.198 451.242 315.786 453.337 312.374C456.532 307.186 459.394 301.806 461.937 296.273C462.282 295.531 462.551 294.752 463.202 294.228C463.714 293.819 464.123 294.036 464.455 294.522C464.046 294.547 463.893 294.79 463.918 295.161C463.701 297.257 462.449 299.097 462.474 301.256C460.251 309.895 458.027 318.533 455.816 327.172C454.909 330.711 453.963 334.251 453.209 337.829C452.737 340.053 451.829 341.829 449.746 342.89C449.721 341.65 450.053 340.474 450.411 339.312C451.126 338.8 451.114 338.098 450.896 337.356C450.948 337.203 450.986 337.05 451.037 336.884C451.727 336.36 451.753 335.67 451.535 334.916C451.587 334.762 451.625 334.596 451.676 334.443C452.353 333.932 452.379 333.242 452.187 332.488C454.091 325.843 455.995 319.198 457.899 312.553C458.014 312.157 458.257 311.773 458.244 311.39C458.206 310.572 459.356 309.46 458.206 309C457.133 308.579 456.851 309.984 456.468 310.7C453.069 316.987 448.443 322.124 442.501 326.162C436.993 329.919 430.834 331.798 424.432 333.114C419.755 334.072 415.065 334.954 410.388 335.874C408.496 336.181 406.618 336.551 404.727 336.756C403.41 336.896 402.439 337.408 401.762 338.519C400.663 339.414 399.564 340.308 398.465 341.203C397.085 342.327 395.718 342.251 394.312 341.203C392.51 339.848 390.913 338.276 389.482 336.564C388.587 335.491 387.693 335.171 386.312 335.503C384.242 336.015 382.121 336.309 379.961 336.155C378.62 336.053 377.329 335.797 376.281 334.89C374.351 333.216 374.543 331.261 376.741 329.996C378.441 329.025 380.319 328.603 382.223 328.245C387.322 327.287 392.497 326.865 397.647 326.367C400.126 326.954 401.519 325.14 403.168 323.875H403.155ZM459.088 308.106C459.829 307.288 459.829 306.291 459.969 304.898C459.446 305.537 459.139 305.806 458.96 306.125C458.73 306.547 458.577 307.007 458.398 307.454C458.283 307.863 457.708 308.336 458.347 308.681C458.755 308.911 458.985 308.476 459.1 308.093L459.088 308.106Z" fill="#212529"/>
<path d="M521.972 352.078C515.455 354.442 508.938 356.767 502.433 359.157C487.699 364.588 472.748 369.393 457.784 374.121C457.171 374.313 456.494 374.913 455.829 374.159C456.43 372.894 457.401 372.191 458.768 371.744C469.502 368.281 480.237 364.844 490.92 361.214C500.057 358.109 509.244 355.144 518.228 351.592C520.797 350.582 520.809 350.518 519.353 348.206C518.496 346.838 517.602 345.496 516.733 344.142C515.813 342.391 514.944 340.602 513.577 339.12C512.299 338.008 512.132 336.296 511.289 334.928C505.424 325.319 504.427 314.61 504.414 303.697C504.414 301.87 505.066 300.081 504.874 298.215C504.976 297.716 505.027 297.218 505.181 296.745C505.449 295.889 505.986 295.608 506.765 296.183C507.737 296.899 508.772 297.563 509.615 298.407C512.554 301.295 515.928 303.748 518.42 307.096C518.701 307.479 519.186 307.71 519.583 308.016C521.397 310.086 523.225 312.144 525.039 314.214C524.822 314.431 524.605 314.648 524.375 314.866C521.563 312.067 518.765 309.256 515.941 306.47C513.615 304.183 511.276 301.895 508.503 300.144C506.599 298.943 506.344 299.071 506.165 301.269C505.858 305.064 506.42 308.808 506.829 312.553C507.277 316.706 507.328 321.063 508.887 324.871C512.541 333.829 517.359 342.212 522.675 350.301C522.739 351.004 522.432 351.554 521.998 352.065L521.972 352.078Z" fill="#212529"/>
<path d="M555.926 381.916C556.987 378.683 555.849 375.527 555.504 372.358C555.082 368.562 553.817 364.946 552.616 361.329C550.904 355.055 548.182 349.215 545.013 343.554C544.808 343.196 544.514 342.928 544.08 342.864C544.31 341.957 543.748 341.305 543.326 340.628C538.432 332.769 533.537 324.897 527.097 318.137C526.126 317.115 525.282 315.965 524.375 314.866C524.592 314.648 524.81 314.431 525.04 314.214C525.129 314.252 525.244 314.278 525.308 314.355C533.448 322.277 540.412 331.108 545.958 341.024C546.265 341.573 546.61 341.701 547.096 341.816C547.019 343.017 547.722 343.95 548.195 344.947C550.687 350.084 552.757 355.387 554.354 360.882C555.287 364.09 555.683 367.438 556.974 370.53C557.485 374.044 558.29 377.507 558.443 381.098C558.75 388.088 557.958 394.899 555.9 401.583C555.683 402.273 555.543 403.078 554.533 402.809C553.498 402.528 553.523 401.813 553.715 400.893C554.789 395.807 555.709 390.708 556.066 385.507C556.156 384.293 556.514 383.092 555.913 381.916H555.926Z" fill="#212529"/>
<path d="M435.038 291.864C428.33 292.26 421.659 293.091 414.989 293.96C412.228 294.317 409.775 295.646 407.577 297.359C405.928 298.649 405.52 300.605 405.085 302.47C404.472 305.09 404.638 307.722 405.507 310.304C406.043 311.914 406.58 313.524 407.245 315.492C405.66 314.763 404.778 313.984 404.344 312.617C403.066 308.54 402.823 304.438 403.667 300.26C403.999 298.585 404.881 297.346 406.273 296.298C409.609 293.793 413.161 292.043 417.455 291.953C419.269 291.915 421.071 291.429 422.886 291.161C426.63 290.739 430.374 290.318 434.118 289.909C435.23 289.794 436.355 289.743 437.466 289.666C436.994 290.765 435.946 291.238 435.051 291.877L435.038 291.864Z" fill="#212529"/>
<path d="M547.083 341.829C547.389 341.382 547.875 341.19 548.36 341.024C551.696 345.829 553.549 351.285 555.069 356.818C556.296 361.278 557.395 365.815 556.973 370.53C555.67 367.438 555.287 364.09 554.354 360.882C552.756 355.387 550.686 350.084 548.194 344.947C547.709 343.95 547.006 343.017 547.095 341.816L547.083 341.829Z" fill="#14B1EF"/>
<path d="M560.04 298.854C555.747 294.56 551.453 290.254 547.159 285.96C549.229 285.756 551.21 286.216 553.14 286.829C556.13 287.787 558.2 289.704 558.865 292.912C559.273 294.892 560.117 296.771 560.04 298.854Z" fill="white"/>
<path d="M324.719 289.704C325.536 290.42 325.076 291.161 324.795 291.915C323.824 294.484 322.904 297.078 321.907 299.646C321.434 300.847 321.588 301.525 322.981 301.857C327.236 302.854 331.479 303.94 335.721 304.988C336.552 305.691 337.638 305.627 338.596 305.895C340.155 306.317 341.855 307.377 343.286 306.828C344.781 306.266 344.769 304.093 345.586 302.713C345.791 302.368 345.931 301.972 346.11 301.614C349.203 295.289 352.691 289.219 357.177 283.762C357.624 283.225 357.931 282.114 359.03 282.919C358.761 283.992 357.816 284.823 357.905 286.024C357.317 286.343 357.202 286.995 356.921 287.519C353.995 293.206 351.529 299.084 349.535 305.154C348.423 308.527 347.439 308.349 351.989 309.166C352.091 309.179 352.193 309.166 352.295 309.166C356.551 310.84 361.049 311.697 365.47 312.77C368.154 313.422 369.342 314.776 369.943 317.37C372.754 329.421 375.719 341.446 378.632 353.483C378.824 354.263 379.118 355.017 379.374 355.796C381.303 363.898 383.207 372 385.162 380.102C385.38 381.009 385.558 381.891 385.571 382.811C385.622 385.929 384.114 387.143 381.137 386.312C378.977 385.711 376.856 385.009 374.722 384.357C358.672 379.501 342.609 374.632 326.559 369.776C318.674 367.399 310.802 364.984 302.892 362.697C301.116 362.186 300.196 361.048 299.506 359.528C299.8 356.742 298.842 354.122 298.369 351.451C296.746 342.174 295.021 332.897 293.321 323.632C293.283 323.44 293.142 323.274 293.04 323.108C292.938 322.38 292.823 321.651 292.721 320.923C291.443 313.728 290.152 306.547 288.874 299.352C288.734 298.56 288.542 297.742 288.58 296.937C288.644 295.11 289.922 293.934 291.749 293.972C292.439 293.985 293.142 294.202 293.832 294.381C301.704 296.4 309.563 298.445 317.422 300.464C319.645 301.039 319.658 301.026 320.476 298.892C321.383 296.515 322.227 294.126 323.16 291.774C323.479 290.969 323.53 289.896 324.731 289.768L324.719 289.704ZM352.321 293.934C350.634 295.148 349.855 296.937 349.279 298.854C348.065 301.422 346.852 303.991 345.663 306.572C345.433 307.071 345.484 307.607 346.072 307.837C346.673 308.08 347.043 307.684 347.235 307.186C348.129 304.822 348.998 302.432 349.88 300.055C350.979 298.126 351.746 296.055 352.295 293.909C352.321 293.717 352.806 293.64 352.449 293.333C352.41 293.538 352.359 293.73 352.321 293.934ZM334.942 319.517C334.724 317.69 334.341 316.118 333.089 314.93C331.172 313.115 328.718 313.601 327.632 315.99C326.674 318.112 327.274 321.166 328.961 322.75C330.993 324.654 333.562 324.054 334.52 321.409C334.763 320.744 334.827 320.028 334.929 319.504L334.942 319.517Z" fill="#212529"/>
<path d="M455.803 400.228C455.842 402.26 454.462 404.164 452.11 404.943C447.855 406.349 443.574 407.653 439.28 408.943C423.69 413.633 408.087 418.31 392.485 422.987C392.088 423.102 391.705 423.204 391.309 423.319C388.894 423.984 387.296 423.409 386.415 421.569C385.546 419.741 386.223 417.441 388.012 416.163C388.945 415.499 390.057 415.269 391.13 414.936C407.96 409.723 424.777 404.534 441.606 399.334C444.622 398.401 447.612 397.378 450.654 396.561C453.312 395.845 455.778 397.685 455.816 400.241L455.803 400.228Z" fill="white"/>
<path d="M544.054 342.877C544.489 342.941 544.795 343.209 544.987 343.567C548.156 349.215 550.878 355.068 552.59 361.342C551.07 361.444 549.945 360.422 548.629 359.937C539.914 356.716 530.956 354.301 521.947 352.078C522.381 351.579 522.688 351.017 522.624 350.314C527.697 348.039 533.064 346.532 538.265 344.615C540.144 343.925 541.997 343.069 544.029 342.864L544.054 342.877Z" fill="#14B1EF"/>
<path d="M457.197 417.122C456.66 417.722 455.957 417.722 455.242 417.735C455.715 416.968 456.481 417.135 457.197 417.122Z" fill="#14B1EF"/>
<path d="M432.649 252.85C427.652 252.876 422.681 253.617 417.672 253.374C410.618 253.042 403.641 252.237 396.702 250.959C395.782 250.793 394.977 250.371 394.134 249.988C393.354 249.349 392.536 248.736 391.795 248.058C388.6 245.196 387.067 241.554 386.926 237.311C386.85 234.756 387.667 234.065 390.198 234.5C390.9 234.615 391.591 234.781 392.281 234.922C394.095 235.292 395.399 234.615 396.37 233.056C397.354 231.497 397.852 229.746 398.504 228.047C398.785 228.226 399.079 228.392 399.36 228.571C399.194 229.465 399.079 230.385 398.874 231.267C397.865 235.458 395.526 237.017 391.284 236.391C390.785 236.315 390.287 236.174 389.776 236.11C389.035 236.008 388.549 236.353 388.626 237.107C389.073 241.4 390.428 245.26 393.955 248.071C394.645 248.62 395.45 248.748 396.229 248.876C407.935 250.818 419.653 252.505 431.563 251.036C441.159 249.847 450.411 247.611 458.743 242.41C461.439 240.723 463.97 238.845 466.334 236.736C466.704 236.8 467.075 236.864 467.445 236.928C467.445 238.346 467.445 239.765 467.433 241.183C467.126 241.183 466.819 241.183 466.513 241.183C466.219 240.57 466.347 239.305 465.056 240.263C464.481 240.685 463.893 241.081 463.305 241.49C457.261 245.592 450.692 248.493 443.677 250.486C440.048 251.521 436.291 251.93 432.636 252.85H432.649Z" fill="#212529"/>
<path d="M399.117 224.75C399.436 224.737 399.743 224.711 400.062 224.698C400.254 226.066 399.768 227.318 399.372 228.596C399.091 228.417 398.797 228.251 398.516 228.072C398.721 226.96 398.925 225.861 399.117 224.75Z" fill="#212529"/>
<path d="M519.378 213.555C518.611 214.066 518.956 215.932 517.512 215.459C516.068 214.987 517.129 213.709 517.18 212.814C517.257 211.306 517.972 209.888 517.819 208.329C517.972 207.958 518.202 207.613 518.279 207.23C519.774 199.013 521.052 190.771 521.87 182.465C522.483 176.177 523.007 169.852 522.522 163.552C522.317 160.894 522.943 158.9 524.451 156.843C526.866 153.559 529.103 150.16 531.326 146.748C532.323 145.227 533.269 143.63 533.741 141.841C534.278 139.847 533.741 139.068 531.71 139.259C527.569 139.643 523.672 140.729 521.026 144.307C520.464 145.074 519.723 145.572 519.007 146.134C518.675 143.706 520.311 142.314 521.857 140.921C522.445 140.397 523.212 140.077 523.902 139.656C524.464 139.438 525.026 139.221 525.589 139.017C527.761 138.224 529.946 137.445 532.31 137.598C534.7 137.764 535.53 138.633 535.556 140.972C535.556 141.47 535.479 141.968 535.441 142.48C533.447 146.914 530.7 150.901 527.991 154.913C524.86 158.134 523.774 161.891 523.736 166.465C523.646 178.478 522.969 190.49 521.461 202.425C520.988 206.169 520.094 209.824 519.378 213.517V213.555Z" fill="#212529"/>
<path d="M496.402 95.2748C497.13 95.4921 497.015 96.0543 496.926 96.6038C496.402 96.2971 496.312 95.8243 496.402 95.2748Z" fill="white"/>
<path d="M401.75 338.532C402.414 337.407 403.398 336.896 404.714 336.768C406.618 336.577 408.497 336.193 410.375 335.887C410.656 337.459 411.73 338.57 412.624 339.784C415.078 343.132 417.365 346.595 419.116 350.365C420.522 353.419 421.531 356.614 420.253 360.013C419.806 361.214 419.525 362.658 417.71 362.505C417.736 361.904 417.749 361.291 417.8 360.69C418.055 357.738 418.132 354.774 417.71 351.835C417.595 351.055 417.825 349.649 416.509 349.764C414.937 349.918 415.857 351.183 415.96 351.937C416.535 356.09 417.007 360.243 415.96 364.396C411.564 363.86 407.347 362.633 403.13 361.368C404.535 361.163 404.791 360.077 405.008 358.952C405.57 356.077 405.66 353.266 405.161 350.288C404.574 346.787 403.781 343.388 402.695 340.04C402.503 339.452 402.376 338.864 401.775 338.545L401.75 338.532Z" fill="#14B1EF"/>
<path d="M415.934 364.396C416.995 360.243 416.522 356.09 415.934 351.937C415.832 351.196 414.912 349.918 416.483 349.765C417.812 349.637 417.582 351.055 417.685 351.835C418.094 354.774 418.03 357.739 417.774 360.69C417.723 361.291 417.71 361.904 417.685 362.505C417.57 362.582 417.544 362.684 417.608 362.812C417.263 363.055 417.199 363.387 417.263 363.77C416.509 365.022 417.582 365.214 418.336 365.585C417.531 365.176 416.726 364.78 415.921 364.384L415.934 364.396Z" fill="#212529"/>
<path d="M450.897 337.356C451.101 338.097 451.114 338.8 450.411 339.311C450.181 338.558 450.194 337.867 450.897 337.356Z" fill="#A7C721"/>
<path d="M452.187 332.488C452.379 333.229 452.353 333.919 451.676 334.443C451.446 333.689 451.446 332.986 452.187 332.488Z" fill="#A7C721"/>
<path d="M451.535 334.916C451.753 335.67 451.727 336.36 451.037 336.884C450.807 336.13 450.807 335.427 451.535 334.916Z" fill="#A7C721"/>
<path d="M417.288 363.783C417.212 363.4 417.288 363.055 417.633 362.825C417.8 363.246 417.633 363.553 417.288 363.783Z" fill="#14B1EF"/>
<path d="M494.843 208.15C493.667 207.856 492.875 207.013 492.057 206.208C492.543 206.208 493.041 206.284 493.335 205.709C494.46 203.499 495.814 201.39 496.3 198.898C499.788 191.934 501.654 184.496 503.06 176.893C505.654 162.887 508.401 148.895 511.11 134.915C511.161 134.634 511.404 134.391 511.57 134.135C512.669 134.685 512.324 135.899 512.784 136.742C511.711 138.876 511.545 141.227 511.2 143.528C511.123 144 511.046 144.473 510.957 144.946C509.96 150.236 508.925 155.514 507.954 160.805C505.705 172.983 503.992 185.289 499.252 196.854C499.06 196.93 498.766 196.956 498.702 197.096C497.36 200.24 495.929 203.32 494.255 206.297C493.769 207.166 494.536 207.575 494.843 208.163V208.15Z" fill="#212529"/>
<path d="M496.3 198.898C495.814 201.39 494.459 203.498 493.335 205.709C493.041 206.284 492.555 206.208 492.057 206.208C491.469 205.313 490.242 205.339 489.604 204.521C491.226 204.38 491.61 202.898 492.287 201.863C493.284 200.329 494.447 199.192 496.287 198.898H496.3Z" fill="white"/>
<path d="M311.736 152.869C317.409 152.191 322.968 158.172 322.355 163.398C322.112 165.405 321.345 167.155 320.131 168.676C319.032 170.069 318.943 171.385 319.697 172.919C320.144 173.826 320.489 174.81 320.77 175.781C321.32 177.609 320.949 178.375 319.224 179.193C318.764 179.41 318.266 179.551 317.78 179.717C312.962 181.314 312.272 180.969 311.11 176.05C310.662 174.158 310.036 172.829 307.838 172.254C302.292 170.823 300.516 167.424 301.04 162.913C301.755 156.869 305.742 153.035 311.122 152.869C311.327 152.869 311.531 152.869 311.736 152.869Z" fill="white"/>
<path d="M297.794 158.453C295.123 158.479 294.497 157.98 294.689 155.961C294.791 154.811 295.085 153.648 296.235 153.163C297.398 152.677 298.05 153.751 298.829 154.364C298.982 154.492 299.148 154.632 299.276 154.786C299.941 155.642 301.193 156.115 301.116 157.418C301.078 158.044 299.672 158.415 297.807 158.44L297.794 158.453Z" fill="white"/>
<path d="M308.004 146.147C307.978 148.422 307.058 149.853 305.921 149.776C304.835 149.712 303.263 147.336 303.416 145.981C303.544 144.882 305.193 143.272 306.317 143.17C306.879 143.119 307.34 143.31 307.493 143.873C307.723 144.754 307.902 145.636 308.017 146.147H308.004Z" fill="white"/>
<path d="M319.122 145.93C320.898 145.917 322.342 147.796 321.805 149.278C321.498 150.121 321.026 150.926 320.527 151.68C320.093 152.332 319.377 152.473 318.636 152.281C317.818 152.064 317.46 151.399 317.537 150.671C317.665 149.367 317.933 148.077 318.227 146.799C318.342 146.288 318.764 145.968 319.122 145.93Z" fill="white"/>
<path d="M292.491 251.163C292.491 252.697 293.117 254.103 293.462 255.559C294.011 257.923 293.513 258.933 291.174 259.636C289.36 260.185 287.494 260.505 285.641 260.926C276.862 260.914 268.07 261.105 259.304 260.824C250.755 260.543 242.155 260.377 233.695 258.997C227.702 258.026 228.239 258.166 230.398 253.349C231.766 250.269 233.12 247.189 235.075 244.416C237.963 240.289 240.583 239.599 245.005 241.848C246.282 242.499 247.509 243.215 248.762 243.905C253.081 246.269 255.828 245.464 258.052 241.145C260.122 237.132 261.208 232.762 262.473 228.455C263.099 226.309 263.713 224.149 264.377 222.002C264.582 221.325 264.863 220.648 265.246 220.047C265.936 218.986 266.792 218.999 267.278 220.162C267.827 221.465 268.236 222.858 268.53 224.238C269.795 230.219 270.971 236.212 272.236 242.193C272.53 243.586 272.939 244.978 273.527 246.256C274.319 247.943 275.52 248.033 276.453 246.371C277.999 243.611 279.341 240.749 280.645 237.861C281.156 236.736 281.705 235.637 282.421 234.666C283.788 232.8 285.258 232.851 286.548 234.819C287.724 236.621 288.567 238.602 289.219 240.646C290.331 244.135 291.392 247.636 292.478 251.138L292.491 251.163Z" fill="white"/>
<path d="M535.441 142.505C535.479 142.007 535.556 141.509 535.556 140.997C535.53 138.646 534.7 137.777 532.31 137.624C529.933 137.458 527.761 138.25 525.589 139.042C525.026 139.247 524.464 139.477 523.902 139.681C519.442 136.001 517.985 131.171 519.199 125.701C520.336 120.564 523.672 117.075 528.783 115.555C536.489 113.267 544.361 117.804 546.329 125.561C548.284 133.266 543.428 140.831 535.454 142.505H535.441Z" fill="white"/>
<path d="M499.252 196.841C499.725 197.722 500.555 197.735 501.373 197.684C504.798 197.467 507.699 198.834 510.433 200.674C508.708 203.422 508.734 206.668 507.967 209.683C505.897 217.836 504.823 226.232 501.987 234.219C500.581 238.18 498.779 241.924 496.798 245.605C496.313 246.525 495.917 247.739 494.575 247.93C494.332 240.685 494.882 233.452 494.882 226.206C494.882 224.89 495.457 224.494 496.645 224.264C501.181 223.344 502.421 221.338 501.169 216.891C500.146 213.223 497.936 210.348 494.83 208.163C494.524 207.575 493.757 207.166 494.243 206.297C495.917 203.32 497.361 200.24 498.69 197.096C498.741 196.968 499.047 196.93 499.239 196.853L499.252 196.841Z" fill="white"/>
<path d="M446.284 446.449C443.792 447.088 441.287 447.727 438.795 448.366C436.955 445.056 437.262 441.478 437.607 437.951C437.773 436.175 438.783 435.83 440.009 437.133C442.591 439.894 444.597 443.063 446.284 446.449Z" fill="white"/>
<path d="M493.948 136.819C493.948 142.058 489.936 146.16 484.735 146.211C479.521 146.262 475.406 142.224 475.343 136.998C475.279 131.618 479.432 127.35 484.709 127.388C489.808 127.426 493.936 131.643 493.948 136.819Z" fill="white"/>
<path d="M500.402 88.9109C500.428 83.6844 504.555 79.5568 509.743 79.5568C514.816 79.5568 519.021 83.8505 519.021 89.0131C519.021 94.1119 514.714 98.4056 509.641 98.3544C504.44 98.3033 500.376 94.1502 500.402 88.9109Z" fill="white"/>
<path d="M359.017 282.906C357.905 282.088 357.611 283.2 357.164 283.749C352.679 289.206 349.19 295.289 346.098 301.601C345.919 301.972 345.778 302.355 345.574 302.7C344.756 304.08 344.769 306.24 343.274 306.815C341.855 307.352 340.143 306.291 338.584 305.882C337.625 305.627 336.539 305.678 335.708 304.975C336.284 304.643 336.552 304.08 336.756 303.505C339.619 295.723 344.411 289.219 349.88 283.085C351.848 280.874 353.637 278.535 356.155 276.913C356.755 276.529 357.33 276.082 357.969 275.814C358.953 275.392 359.566 275.775 359.605 276.861C359.694 278.906 359.707 280.938 359.017 282.906Z" fill="#14B1EF"/>
<path d="M352.282 309.154C352.18 309.154 352.078 309.166 351.976 309.154C347.439 308.336 348.41 308.527 349.522 305.141C351.529 299.071 353.982 293.193 356.908 287.506C357.177 286.982 357.292 286.343 357.892 286.011C358.173 288.478 357.266 290.739 356.653 293.04C355.413 297.653 354.34 302.304 352.525 306.738C352.206 307.531 352.219 308.336 352.282 309.141V309.154Z" fill="white"/>
<path d="M464.455 294.522C464.276 294.739 464.097 294.956 463.918 295.161C463.905 294.778 464.059 294.535 464.455 294.522Z" fill="#A7C721"/>
<path d="M334.942 319.53C334.827 320.054 334.763 320.769 334.533 321.434C333.574 324.079 331.006 324.68 328.974 322.776C327.274 321.191 326.674 318.137 327.645 316.016C328.731 313.626 331.185 313.128 333.102 314.955C334.354 316.144 334.737 317.715 334.954 319.543L334.942 319.53Z" fill="#A7C721"/>
<path d="M352.321 293.947C352.359 293.742 352.41 293.551 352.449 293.346C352.807 293.653 352.321 293.717 352.295 293.921L352.321 293.947Z" fill="#14B1EF"/>
<path d="M14.9351 372.894C14.7945 372.69 14.6539 372.485 14.5006 372.268C14.6539 371.45 14.475 370.658 14.3217 369.853C13.0438 363.144 12.4176 356.371 12.2899 349.547C12.2004 344.346 12.6732 339.171 13.4527 334.047C14.7689 325.408 17.3247 317.191 22.4234 309.959C24.0591 307.633 25.8098 305.384 27.5094 303.109C28.3145 302.649 28.9279 301.997 29.3751 301.192C31.7392 299.122 34.001 296.937 36.4801 295.007C39.1637 292.912 41.5405 290.343 44.7863 289.014C44.4413 290.982 43.0612 292.426 42.2178 294.138C41.9878 294.611 41.7833 295.122 42.3712 295.442C42.8184 295.685 43.4062 295.761 43.8024 295.352C44.2241 294.918 44.5435 294.394 44.8502 293.87C46.6137 290.893 48.3644 287.915 50.1023 284.925C50.3962 284.414 50.524 283.749 51.3035 283.736C51.623 284.363 52.1214 284.605 52.8114 284.452C54.5877 284.056 56.4534 283.877 58.1402 283.238C62.5105 281.602 67.0087 280.222 70.5229 276.849C76.81 270.804 79.0335 262.984 79.4936 254.767C80.0047 245.541 79.9536 236.263 77.8068 227.126C76.12 219.932 73.9731 212.967 69.7817 206.808C68.5421 204.981 67.4815 202.936 65.4113 201.799C67.9543 199.396 70.9701 198.655 74.4076 199.102C79.7619 199.792 84.5156 202.169 89.3844 204.252C91.0201 204.955 91.9146 206.016 92.5279 207.677C96.0038 217.044 99.5563 226.385 103.62 235.509C107.096 243.292 111.211 250.678 117.485 256.581C119.057 258.064 119.478 259.482 118.724 261.386C118.047 261.437 117.574 261.054 117.14 260.607C115.721 259.137 114.559 257.476 113.472 255.751C112.501 254.205 111.543 252.646 110.572 251.099C110.29 250.652 109.907 250.307 109.319 250.614C108.719 250.933 108.361 251.368 108.744 252.071C109.038 252.607 109.307 253.157 109.613 253.681C111.875 257.565 114.559 261.092 118.252 263.75C118.328 266.894 117.485 269.961 117.613 273.117C117.843 278.817 119.76 281.257 125.28 282.919C126.596 283.315 128.155 282.855 129.267 284.005C129.344 285.078 128.59 285.87 128.283 286.816C127.785 288.35 127.286 289.87 127.427 291.531C127.491 292.349 128.002 292.477 128.641 292.541C127.951 294.241 127.772 296.094 127.746 297.857C127.721 300.528 127.9 303.288 129.893 305.448C130.238 306.853 131.12 307.837 132.296 308.578C132.883 309.703 133.931 310.342 134.902 311.07C138.608 313.831 142.825 315.543 147.145 317.038C154.531 319.607 162.198 321.038 169.763 322.865C169.073 323.9 169.546 324.181 170.581 324.437C177.993 326.264 185.494 327.568 193.097 328.232C197.097 334.519 199.167 341.267 197.928 348.793C197.212 353.138 196.215 357.355 193.033 360.678C191.513 359.144 189.43 359.579 187.602 359.119C181.264 357.534 175.207 355.132 169.303 352.41C161.904 348.985 154.441 345.752 146.621 343.452C141.956 342.072 137.241 341.343 132.257 342.097C126.865 342.915 122.52 345.356 118.584 348.87C111.108 355.541 106.303 364.243 100.719 372.345C97.0261 377.699 93.8953 383.449 88.8732 387.794C86.9564 389.455 85.4613 391.628 83.3144 393.021C77.2701 396.957 70.6762 399.564 63.4945 400.343C60.8876 400.624 58.2296 400.509 55.61 401.007C53.6548 401.378 51.8402 400.33 49.8723 400.394C46.0387 400.496 42.4223 399.436 38.972 397.877C32.5059 394.963 27.2666 390.606 23.4585 384.548C21.2861 381.111 18.9093 377.801 16.6602 374.415C16.2002 373.725 15.8935 372.945 14.9223 372.881L14.9351 372.894Z" fill="#A7C721"/>
<path d="M74.612 108.731C79.4169 104.156 84.1834 99.5556 89.0521 95.0447C90.2405 93.9458 90.0233 93.064 89.3843 91.85C86.0746 85.5117 82.8288 79.1607 79.5574 72.8096C77.9729 69.7299 76.3244 66.663 74.791 63.5578C74.0498 62.0499 74.2542 60.5547 75.4682 59.3152C76.58 58.1907 77.9473 57.9606 79.4297 58.4718C80.1964 58.7402 80.9503 59.0724 81.7043 59.3791C88.0042 62.0243 94.3042 64.6951 100.617 67.3019C102.572 68.107 104.566 69.8322 106.546 69.2699C108.348 68.7587 109.779 66.893 111.326 65.564C118.098 59.8136 124.846 54.0376 131.605 48.2743C132.066 47.8782 132.5 47.4181 133.024 47.1114C135.388 45.693 138.187 46.9453 138.608 49.68C138.774 50.7662 138.583 51.9163 138.557 53.028C138.289 62.9316 138.084 72.8224 137.727 82.726C137.65 84.745 138.238 85.8184 140.065 86.7641C147.055 90.3549 153.943 94.1502 160.856 97.8688C163.425 99.249 166.006 100.591 168.549 102.009C170.696 103.21 171.373 104.501 171.003 106.431C170.645 108.284 169.418 109.178 166.913 109.357C156.422 110.136 145.943 110.903 135.452 111.67C132.947 111.849 132.909 111.862 132.909 114.238C132.909 122.813 133.062 131.388 133.586 139.949C133.586 142.492 133.586 145.023 133.548 147.566C133.51 150.032 132.704 151.297 130.903 151.859C129.19 152.396 127.631 151.719 126.353 149.687C124.194 146.249 122.111 142.748 119.99 139.272C120.271 137.739 119.415 136.537 118.852 135.234C118.086 133.419 116.782 131.822 116.539 129.688C118.226 129.432 119.734 129.202 121.229 128.972C124.181 128.538 125.114 127.401 124.756 124.436C124.36 121.216 123.069 118.34 120.999 115.874C118.661 113.076 115.632 112.347 112.182 113.753C110.022 114.635 107.952 115.721 105.843 116.705C105.345 116.781 104.834 116.82 104.336 116.935C92.6557 119.58 80.9759 122.225 69.2961 124.858C68.4143 125.062 67.507 125.241 66.5997 125.279C64.9896 125.369 63.8651 124.5 63.2517 123.094C62.6894 121.804 62.8044 120.487 63.7501 119.376C64.3379 118.686 65.0152 118.059 65.6669 117.42C68.6316 114.507 71.609 111.606 74.5865 108.692L74.612 108.731Z" fill="#F7A12B"/>
<path d="M165.047 364.115C156 361.189 146.774 359.694 137.254 360.665C135.273 360.869 133.254 361.24 131.465 362.288C131.311 362.275 131.196 362.326 131.094 362.441C129.829 362.518 128.807 363.233 127.772 363.821C123.555 366.185 120.283 369.623 117.153 373.239C116.526 373.968 116.194 375.054 115.018 375.194C114.763 374.3 115.236 373.597 115.683 372.933C118.89 368.23 121.957 363.451 126.123 359.438C129.625 356.065 133.267 353.394 138.289 353.177C138.813 353.151 139.388 353.061 139.362 352.397C139.337 351.899 139.055 351.4 138.595 351.132C137.816 350.672 137.024 350.94 136.231 351.132C133.113 351.886 130.315 353.279 127.733 355.17C123.504 358.301 120.041 362.122 117.165 366.505C109.843 377.661 102.572 388.855 95.6458 400.266C95.3263 400.79 95.1091 401.378 94.3424 401.34C90.5726 405.672 85.8189 408.713 80.8735 411.499C76.4393 413.991 71.6217 415.524 66.7913 416.981C60.2102 418.221 53.6419 418.527 47.0736 416.943C46.243 415.946 45.3612 414.975 44.5817 413.94C43.4827 412.483 42.486 410.937 41.387 409.48C40.8247 408.726 40.3392 407.384 39.074 408.317C37.9367 409.148 39.1252 409.966 39.5341 410.617C40.5053 412.125 41.847 413.39 42.5882 415.077C39.0996 414.298 36.3777 412.176 33.7197 409.991C29.1833 406.247 25.8097 401.557 23.1006 396.382C19.203 388.957 16.5578 381.098 14.9221 372.881C15.8933 372.958 16.2 373.725 16.66 374.415C18.9091 377.801 21.2987 381.111 23.4584 384.548C27.2664 390.606 32.5185 394.963 38.9718 397.877C42.4221 399.436 46.0385 400.496 49.8721 400.394C51.8401 400.343 53.6547 401.391 55.6098 401.008C58.2167 400.509 60.8747 400.624 63.4943 400.343C70.6888 399.564 77.2699 396.944 83.3143 393.021C85.4611 391.628 86.9562 389.456 88.873 387.794C93.8823 383.449 97.0259 377.699 100.719 372.345C106.303 364.243 111.108 355.541 118.584 348.87C122.52 345.356 126.864 342.902 132.257 342.097C137.241 341.343 141.956 342.072 146.62 343.452C154.441 345.765 161.904 348.998 169.303 352.41C175.219 355.144 181.264 357.534 187.602 359.119C189.429 359.579 191.512 359.144 193.033 360.678C191.206 363.208 188.458 364.358 185.698 365.342C183.411 366.16 180.995 366.62 178.644 367.208C177.52 367.489 176.459 367.208 175.36 366.926C172.025 366.058 168.843 364.652 165.392 364.23C165.303 364.128 165.188 364.077 165.047 364.102V364.115Z" fill="#6C963D"/>
<path d="M120.015 139.298C116.641 140.128 113.204 140.512 109.754 140.576C107.977 140.601 106.751 141.151 105.677 142.633C102.61 146.812 99.3005 150.811 96.2336 154.99C93.0772 159.297 91.1604 164.204 90.0103 169.405C89.6781 169.928 89.448 170.478 89.5631 171.13C87.889 177.238 88.3363 183.41 89.103 189.582C89.4097 192.1 89.9336 194.592 90.4576 197.071C90.7259 198.361 90.5598 199.281 89.1414 199.716C88.3874 199.102 88.4513 198.131 88.3235 197.288C87.0712 188.522 86.0872 179.743 87.659 170.9C87.7485 170.389 87.7996 169.89 87.5184 169.43C87.3907 168.676 88.119 168.242 88.2213 167.577C90.4448 160.766 93.6651 154.479 97.9971 148.767C99.7094 146.505 101.46 144.256 103.185 141.994C104.144 140.959 105.102 139.911 106.06 138.876L106.048 138.914C106.636 138.838 107.236 138.774 107.824 138.697C110.929 138.429 114.022 138.16 117.012 137.905C117.229 136.716 116.68 136.18 116.399 135.541C115.657 133.867 114.814 132.231 114.162 130.531C113.217 128.027 113.408 127.822 116.041 127.669C117.766 127.567 119.478 127.35 121.203 127.183C122.187 127.094 122.724 126.634 122.481 125.586C121.842 122.8 121.127 120.027 119.35 117.714C117.382 115.159 114.878 114.635 112.105 116.245C110.188 117.369 108.118 118.251 106.406 119.708C105.958 119.746 105.562 119.861 105.345 120.308C97.3453 124.525 90.3298 130.097 83.8126 136.307C83.2759 136.537 82.8286 136.857 82.5986 137.419C80.4007 138.965 78.7139 141.01 77.0909 143.106C71.3149 150.53 66.3312 158.466 61.8586 166.734C61.2325 167.884 60.5296 169.034 60.3124 170.376V170.44C59.9929 170.644 59.9162 170.938 59.9929 171.283C59.0728 172.535 58.7661 174.018 58.4339 175.487C55.6098 184.995 55.7376 194.579 57.8461 204.176C58.2167 205.824 58.1272 207.639 59.3029 209.057C59.3412 209.76 59.2773 210.476 59.4306 211.153C60.3124 215.102 61.2963 219.037 62.1397 222.986C63.7243 230.487 66.4845 237.758 66.7785 245.528C66.574 246.831 66.3184 248.135 66.1778 249.451C65.5389 255.495 63.8777 261.207 60.7724 266.472C57.9355 271.29 55.1114 276.12 52.3256 280.976C51.8528 281.807 50.9583 282.561 51.3672 283.724H51.2778C50.4983 283.762 50.3832 284.427 50.0766 284.938C48.3386 287.928 46.5879 290.905 44.8245 293.883C44.5178 294.407 44.1855 294.931 43.7766 295.365C43.3805 295.774 42.8054 295.697 42.3454 295.455C41.7448 295.135 41.9492 294.624 42.192 294.151C43.0354 292.439 44.4283 290.995 44.7606 289.027C45.7318 287.979 46.5241 286.816 47.2397 285.564C51.2267 278.574 55.3542 271.661 59.2773 264.645C64.2482 255.751 65.7434 246.32 63.3921 236.327C60.7596 225.133 57.91 213.99 55.5714 202.719C54.153 195.857 54.0124 188.969 54.8814 182.043C54.9197 181.749 54.8814 181.429 54.8558 181.135C55.0986 179.909 55.3286 178.695 55.5714 177.468C59.8523 162.53 69.0147 150.505 78.7011 138.787C79.0205 138.403 79.3145 138.007 79.6211 137.611C79.9278 137.33 80.2217 137.049 80.5284 136.768C86.8795 130.084 93.8823 124.18 101.792 119.388C103.172 118.558 104.501 117.638 105.843 116.756C107.952 115.759 110.035 114.673 112.182 113.804C115.645 112.398 118.66 113.114 120.999 115.925C123.056 118.392 124.36 121.267 124.756 124.487C125.114 127.452 124.181 128.576 121.229 129.024C119.721 129.254 118.226 129.484 116.539 129.739C116.782 131.86 118.085 133.471 118.852 135.285C119.402 136.589 120.271 137.79 119.989 139.323L120.015 139.298Z" fill="#212529"/>
<path d="M228.315 376.306C227.6 376.472 226.884 376.651 226.181 376.817C225.76 376.945 225.338 377.073 224.929 377.201C221.287 377.546 217.632 377.814 213.965 377.801C207.524 377.776 201.148 377.073 194.682 376.281C194.733 374.683 195.627 374.453 196.918 374.568C200.981 374.939 205.045 375.297 209.109 375.578C215.23 375.999 221.338 375.974 227.357 374.556C229.632 374.032 231.727 373.111 233.593 371.68C240.276 368.141 245.516 363.029 249.669 356.755C252.224 352.883 253.668 348.615 254.41 344.065C255.969 339.273 256.493 334.277 257.106 329.319C257.477 326.469 258.013 323.632 257.962 320.744C258.767 317.46 258.716 314.086 258.921 310.764C259.329 304.298 260.007 297.819 259.764 291.327C259.879 289.104 260.083 286.893 260.096 284.669C260.122 282.689 260.658 281.321 262.716 280.529C264.39 279.89 265.885 278.778 267.393 277.756C268.364 277.104 269.348 276.376 269.578 274.868C267.661 275.149 265.872 275.405 264.096 275.673C263.444 275.315 262.831 275.354 262.269 275.878C261.451 275.878 260.633 275.878 259.802 275.878C257.579 275.188 257.268 273.944 258.869 272.146C260.339 270.498 261.809 268.836 263.304 267.15C261.336 265.77 259.559 266.498 258.064 267.507C255.036 269.552 252.736 272.197 252.493 276.095C250.691 280.823 249.669 285.781 248.365 290.65C246.883 295.084 245.388 299.506 243.944 303.953C242.909 307.109 241.247 309.844 238.96 312.246C237.273 314.01 235.676 315.85 234.04 317.651C232.468 318.865 231.037 320.233 229.695 321.69C223.268 326.852 215.421 327.172 207.767 328.079C202.898 328.654 197.991 328.271 193.11 328.22C185.506 327.555 178.005 326.252 170.593 324.424C169.558 324.169 169.086 323.875 169.776 322.852C170.862 322.239 171.935 322.635 173.021 322.891C176.369 323.683 179.705 324.616 183.155 324.948C183.59 324.987 184.024 325.012 184.458 325.05C185.187 325.485 186.005 325.51 186.81 325.625C195.55 326.878 204.266 326.379 212.994 325.523C218.897 324.948 224.379 323.491 228.788 319.236C230.603 318.086 232.2 316.668 233.81 315.249C241.03 308.885 243.599 300.221 245.707 291.327C247.56 286.522 248.557 281.475 249.809 276.504C250.103 274.14 251.01 272.031 252.454 270.14C253.375 268.939 254.282 267.725 255.202 266.511C255.56 266.242 255.918 265.987 256.275 265.718C258.371 264.543 260.633 264.147 262.997 264.377C265.246 264.594 266.026 265.833 265.118 267.904C264.76 268.721 264.147 269.437 263.61 270.165C262.856 271.188 262.064 272.197 261.221 273.309C262.703 273.692 263.866 273.22 265.029 273.194C267.291 273.13 269.514 271.724 271.814 272.938C271.687 277.155 269.041 279.468 265.604 281.194C264.875 281.551 264.147 281.922 263.393 282.203C262.499 282.535 262.141 283.149 262.179 284.056C262.281 286.688 261.834 289.308 262.179 291.941C261.745 293.001 261.847 294.138 261.796 295.25C261.515 300.515 261.221 305.78 261.042 311.045C260.927 314.291 260.198 317.485 260.428 320.744C259.789 323.3 259.7 325.919 259.483 328.526C258.563 333.702 257.655 338.864 256.735 344.04C255.509 347.132 254.895 350.442 253.451 353.483C249.669 361.444 244.225 367.949 236.852 372.792C234.04 374.044 231.242 375.348 228.303 376.293L228.315 376.306Z" fill="#212529"/>
<path d="M113.766 376.881C113.319 377.52 112.872 378.146 112.412 378.785C111.032 379.232 110.597 380.357 110.367 381.622C110.316 381.75 110.239 381.865 110.137 381.954C109.37 382.299 108.936 382.887 108.91 383.731L108.859 383.807C108.501 383.897 108.348 384.127 108.374 384.484C102.636 392.522 97.5371 400.969 92.3617 409.365C90.7005 412.074 88.4131 414.272 86.4707 416.764C84.9756 418.681 83.1738 420.355 81.9087 422.463C71.1106 431.178 58.4979 431.574 48.5177 421.62C46.4347 419.55 44.5562 417.275 42.5755 415.102C41.8471 413.416 40.4926 412.151 39.5214 410.643C39.0997 409.991 37.924 409.186 39.0613 408.343C40.3264 407.41 40.812 408.751 41.3743 409.505C42.4733 410.975 43.47 412.508 44.569 413.965C45.3485 415 46.2303 415.971 47.0609 416.968C49.0544 420.163 52.1085 422.182 55.1754 424.112C59.3669 426.744 63.9928 427.728 68.8615 426.731C72.6185 425.964 76.401 425.083 78.9823 421.799C83.0076 417.914 86.6368 413.658 89.9593 409.186C91.7356 406.809 93.5501 404.33 94.3297 401.34C95.0964 401.378 95.3136 400.79 95.6331 400.266C102.572 388.868 109.843 377.673 117.153 366.505C120.028 362.109 123.491 358.288 127.721 355.17C130.289 353.266 133.101 351.873 136.219 351.132C137.011 350.94 137.816 350.672 138.583 351.132C139.043 351.4 139.324 351.899 139.349 352.397C139.375 353.061 138.8 353.151 138.276 353.176C133.254 353.406 129.612 356.064 126.111 359.438C121.945 363.451 118.878 368.23 115.67 372.932C115.21 373.597 114.737 374.3 115.006 375.194C114.75 375.59 114.482 375.974 114.226 376.37C113.868 376.357 113.702 376.523 113.753 376.881H113.766Z" fill="#212529"/>
<path d="M172.97 246.537C172.459 248.084 172.076 249.681 171.411 251.151C170.3 253.617 168.728 255.764 165.929 256.543C164.792 256.863 164.37 257.527 164.127 258.677C162.914 264.683 160.894 270.395 158.466 276.044C157.061 279.315 155.451 281.935 152.473 283.736C152.128 283.941 151.758 284.133 151.4 284.312C147.004 286.433 144.001 285.756 140.998 281.947C140.921 281.334 140.781 280.759 140.295 280.325C140.231 279.417 140.218 278.51 139.196 277.935C134.161 280.887 130.494 284.835 129.765 290.905C129.663 291.71 129.267 292.196 128.602 292.541C127.976 292.477 127.452 292.349 127.388 291.532C127.248 289.87 127.746 288.35 128.245 286.816C128.551 285.871 129.318 285.091 129.229 284.005C129.318 283.954 129.433 283.928 129.497 283.864C132.219 280.848 134.838 277.73 138.647 275.98C139.452 275.609 139.119 274.945 139.055 274.408C138.698 271.073 138.365 267.737 138.25 264.377C138.148 261.322 137.957 258.281 137.688 255.24C137.573 253.975 137.752 252.173 136.372 251.777C135.145 251.432 134.468 253.055 133.727 253.987C132.334 255.738 131.043 257.566 129.638 259.316C128.871 260.275 127.682 261.578 126.66 261.131C124.283 260.108 123.338 261.642 121.919 262.856C120.961 263.674 119.555 263.904 118.213 263.75C114.52 261.092 111.837 257.566 109.575 253.681C109.268 253.157 109 252.607 108.706 252.071C108.322 251.355 108.68 250.921 109.281 250.614C109.869 250.307 110.252 250.652 110.533 251.099C111.517 252.646 112.463 254.205 113.434 255.751C114.507 257.476 115.67 259.137 117.102 260.607C117.536 261.054 118.009 261.437 118.686 261.386C121.382 261.578 123.133 259.457 122.213 256.875C121.319 254.371 120.68 251.828 120.398 249.183C119.274 238.793 122.775 230.462 131.784 224.992C140.244 219.855 149.509 217.964 159.348 219.612C165.648 220.66 169.801 224.328 171.948 230.283C173.06 233.375 173.482 236.596 173.443 239.892C173.443 240.902 173.469 241.924 173.482 242.934C173.29 244.135 173.098 245.336 172.919 246.525L172.97 246.537ZM161.597 260.684C161.776 260.517 161.802 260.326 161.687 260.121C161.751 259.763 161.827 259.418 161.891 259.061C162.568 257.911 162.696 256.965 161.048 256.594C156.205 255.483 152.09 252.85 147.886 250.384C146.876 249.796 145.956 248.991 144.653 248.684C143.387 252.888 142.237 256.978 142.058 261.284C141.867 265.961 143.656 269.348 148.205 270.996C148.41 271.073 148.614 271.149 148.818 271.213C151.374 272.351 153.93 273.488 156.55 274.651C159.182 270.638 160.46 266.396 161.188 261.949C161.597 261.616 161.636 261.156 161.585 260.671L161.597 260.684Z" fill="#212529"/>
<path d="M66.7915 245.528C66.4848 237.758 63.7373 230.487 62.1528 222.986C61.3093 219.025 60.3254 215.102 59.4436 211.153C59.2903 210.476 59.3542 209.76 59.3159 209.057C60.7726 206.169 62.8045 203.754 65.3986 201.824C67.456 202.962 68.5294 205.019 69.7689 206.834C73.9604 212.993 76.1072 219.958 77.794 227.152C79.9408 236.289 79.992 245.566 79.4808 254.793C79.0335 263.009 76.81 270.83 70.5101 276.874C66.9959 280.248 62.4978 281.628 58.1274 283.264C56.4406 283.89 54.5749 284.082 52.7987 284.478C52.1086 284.631 51.6102 284.388 51.2908 283.762L51.3802 283.737C54.2171 281.27 57.0668 278.83 59.6609 276.095C62.9578 272.619 65.2324 268.594 66.4081 263.968C67.9543 257.86 67.8138 251.7 66.8042 245.541L66.7915 245.528Z" fill="#6C963D"/>
<path d="M110.367 381.622C110.61 380.357 111.044 379.233 112.412 378.785C112.207 380.076 111.517 381.022 110.367 381.622Z" fill="#6C963D"/>
<path d="M108.91 383.731C108.948 382.874 109.37 382.299 110.137 381.954C110.137 382.836 109.715 383.411 108.91 383.731Z" fill="#6C963D"/>
<path d="M108.374 384.485C108.348 384.127 108.501 383.884 108.859 383.807C108.923 384.191 108.731 384.395 108.374 384.485Z" fill="#6C963D"/>
<path d="M113.766 376.882C113.715 376.524 113.881 376.357 114.24 376.37C114.329 376.767 114.189 376.959 113.766 376.882Z" fill="#6C963D"/>
<path d="M60.3126 170.427C60.4787 170.81 60.3254 171.066 60.0059 171.27C59.9293 170.925 60.0059 170.631 60.3126 170.427Z" fill="white"/>
<path d="M264.096 275.686C263.521 276.107 262.908 276.095 262.269 275.89C262.831 275.366 263.444 275.328 264.096 275.686Z" fill="#14B1EF"/>
<path d="M256.275 265.757C255.917 266.025 255.56 266.281 255.202 266.549C255.074 266.408 254.946 266.268 254.818 266.115C255.163 265.846 255.496 265.578 255.841 265.309C255.981 265.463 256.135 265.616 256.275 265.757Z" fill="#14B1EF"/>
<path d="M232.826 293.793C232.635 293.819 232.43 293.844 232.226 293.844C232.392 293.41 232.583 293.359 232.826 293.793Z" fill="white"/>
<path d="M161.597 260.683C161.546 260.543 161.482 260.402 161.469 260.249C161.469 260.211 161.61 260.159 161.7 260.121C161.815 260.338 161.776 260.517 161.61 260.683H161.597Z" fill="white"/>
<path d="M583.157 174.273C584.972 170.274 587.77 168.804 592 169.916C604.728 173.225 617.43 176.612 630.145 179.973C632.509 180.599 634.886 181.187 637.237 181.838C642.502 183.295 645.16 187.129 644.649 192.585C644.495 194.208 644.355 195.857 643.908 197.416C643.46 199 643.959 199.716 645.454 200.01C646.246 200.163 647.038 200.342 647.741 200.483C648.457 200.035 648.265 199.345 648.431 198.783C649.019 196.917 649.978 196.291 651.856 196.738C654.923 197.48 657.977 198.285 661.018 199.179C663.434 199.882 664.06 200.687 663.753 203.192C663.51 205.16 664.124 206.246 665.657 207.524C674.066 214.488 677.861 223.344 676.097 234.346C674.181 246.32 672.302 258.294 670.449 270.28C669.708 275.06 667.74 279.251 664.43 282.753C663.561 283.673 662.795 284.874 661.236 284.746C661.913 281.794 663.344 279.085 663.804 276.031C665.568 264.236 667.433 252.454 669.35 240.672C671.229 229.145 667.51 219.791 658.539 212.482C657.389 211.549 656.853 210.731 657.108 209.172C657.581 206.323 656.686 204.994 653.939 204.188C650.91 203.307 647.844 202.514 644.777 201.748C642.183 201.096 641.377 201.454 640.176 203.882C639.755 204.712 639.448 205.236 638.4 204.981C637.378 204.725 637.097 204.137 637.25 203.192C637.454 201.888 637.684 200.572 637.863 199.269C638.707 192.713 635.844 188.381 629.519 186.682C625.481 185.595 621.43 184.56 617.404 183.487C605.98 180.433 594.569 177.353 583.157 174.286V174.273Z" fill="#F7A12B"/>
<path d="M583.157 174.273C594.569 177.34 605.993 180.42 617.404 183.474C621.442 184.56 625.493 185.582 629.519 186.669C635.844 188.368 638.707 192.7 637.863 199.256C637.697 200.572 637.467 201.875 637.25 203.179C637.096 204.125 637.378 204.712 638.4 204.968C639.46 205.236 639.767 204.712 640.176 203.869C641.39 201.441 642.195 201.096 644.776 201.735C647.843 202.502 650.898 203.281 653.939 204.176C656.686 204.981 657.581 206.31 657.108 209.159C656.852 210.718 657.389 211.523 658.539 212.469C667.51 219.791 671.229 229.133 669.35 240.659C667.433 252.428 665.555 264.21 663.804 276.018C663.344 279.072 661.913 281.781 661.236 284.733L661.248 284.708C660.686 284.746 660.584 285.142 660.584 285.602C660.047 286.216 659.485 286.803 658.974 287.43C652.98 294.611 645.313 297.295 636.266 295.237C628.317 293.436 620.484 291.135 612.612 289.052C612.216 288.95 611.794 288.886 611.462 288.682C611.245 288.554 611.079 288.183 611.079 287.928C611.079 287.506 611.347 287.085 611.807 287.11C612.51 287.161 613.213 287.302 613.89 287.481C620.982 289.359 628.062 291.276 635.154 293.154C641.722 294.892 647.894 294.113 653.504 290.113C653.913 289.819 654.373 289.564 654.514 289.027L654.45 289.065C654.833 289.04 655.076 288.835 655.178 288.477C658.999 285.487 660.916 281.334 661.696 276.746C663.855 263.98 666.091 251.202 667.727 238.372C669.018 228.276 664.993 219.97 656.98 213.773C655.37 212.533 654.769 211.485 655.127 209.504C655.587 206.936 655.204 206.476 652.763 205.786C650.118 205.045 647.447 204.355 644.776 203.703C642.425 203.128 642.093 203.243 641.722 205.671C641.467 207.434 640.828 207.575 639.307 207.191C634.898 206.08 634.886 206.131 635.499 201.748C635.627 200.84 635.831 199.946 635.959 199.039C636.751 193.582 634.375 189.953 629.046 188.509C623.142 186.924 617.213 185.378 611.309 183.806C602.734 181.532 594.172 179.231 585.598 176.957C584.627 176.701 583.604 176.599 582.608 176.42C578.774 176.471 576.972 177.902 576.078 181.608C575.656 183.896 575.196 186.183 574.851 188.483C574.685 189.582 574.161 189.825 573.202 189.582C571.234 189.097 569.292 188.534 567.299 188.151C562.417 187.231 557.842 188.177 553.523 190.553C553.204 190.732 552.769 190.898 552.961 191.422C552.411 191.295 552.002 191.384 551.938 192.049L551.964 191.908C547.76 194.17 545.741 198.08 544.156 202.297C543.913 202.962 543.734 203.652 543.581 204.342C543.428 205.032 543.428 205.837 542.354 205.632C541.23 205.415 541.6 204.585 541.754 203.958C542.917 199.102 545.191 194.898 548.935 191.499C551.389 189.276 554.379 188.01 557.293 186.579C560.73 186.17 564.129 185.608 567.618 186.183C569.394 186.477 571.49 188.049 572.819 186.911C574.161 185.761 573.701 183.295 574.046 181.417C574.059 181.327 574.02 181.212 574.007 181.11C575.336 176.573 578.442 174.363 583.106 174.235L583.157 174.273Z" fill="#212529"/>
<path d="M574.059 181.148C574.072 181.251 574.11 181.353 574.097 181.455C573.752 183.333 574.199 185.8 572.87 186.95C571.529 188.1 569.433 186.515 567.669 186.221C564.181 185.646 560.769 186.209 557.344 186.618C560.68 182.925 565.088 181.634 569.816 181.136C571.222 180.982 572.653 181.136 574.072 181.136L574.059 181.148Z" fill="#F7A12B"/>
<path d="M660.609 285.615C660.609 285.155 660.699 284.759 661.274 284.721C661.453 285.321 661.018 285.449 660.609 285.615Z" fill="#F7A12B"/>
<path d="M576.129 181.621C577.023 177.915 578.825 176.484 582.659 176.433C582.352 177.992 582.02 179.551 581.764 181.123C581.547 182.439 581.1 183.129 579.592 182.541C578.493 182.107 577.292 181.915 576.129 181.621Z" fill="white"/>
<path d="M655.217 288.477C655.115 288.848 654.872 289.053 654.489 289.065C654.565 288.669 654.936 288.631 655.217 288.477Z" fill="white"/>
<path d="M551.989 192.061C552.053 191.397 552.462 191.295 553.012 191.435C552.692 191.691 552.526 192.164 551.989 192.061Z" fill="white"/>
<path d="M607.079 230.449C607.36 229.12 607.552 228.123 607.782 227.152C608.267 225.12 609.341 224.111 610.989 224.072C612.817 224.034 614.376 225.427 614.81 227.395C615.015 228.328 614.746 229.209 614.657 230.117C614.427 232.455 614.427 232.455 616.804 233.158C617.289 233.299 617.8 233.388 618.26 233.592C620.343 234.513 621.34 236.544 620.714 238.576C620.152 240.404 618.72 241.055 616.241 240.608C614.308 240.259 613.115 241.098 612.663 243.125C612.178 245.298 611.028 246.32 609.162 246.256C607.207 246.18 605.137 244.493 605.546 242.512C606.274 238.96 605.405 237.222 601.699 236.532C599.769 236.174 598.964 233.477 599.629 231.727C600.319 229.912 601.801 229.26 604.153 229.772C605.047 229.963 605.929 230.193 607.066 230.474L607.079 230.449Z" fill="#212529"/>
<path d="M657.031 213.76C655.421 212.52 654.821 211.472 655.179 209.492C655.639 206.923 655.255 206.463 652.814 205.773C650.169 205.032 647.499 204.342 644.828 203.69C642.476 203.115 642.144 203.23 641.774 205.658C641.518 207.422 640.879 207.562 639.358 207.179C634.95 206.067 634.937 206.118 635.55 201.735C635.678 200.828 635.883 199.933 636.01 199.026C636.803 193.569 634.426 189.94 629.097 188.496C623.193 186.912 617.264 185.365 611.36 183.794C602.785 181.519 594.224 179.219 585.649 176.944C584.678 176.689 583.656 176.586 582.659 176.407C582.365 177.966 582.02 179.525 581.777 181.097C581.56 182.413 581.113 183.104 579.605 182.516C578.506 182.081 577.305 181.89 576.142 181.596C575.72 183.883 575.26 186.17 574.915 188.471C574.749 189.57 574.225 189.812 573.266 189.57C571.299 189.084 569.356 188.522 567.363 188.138C562.481 187.218 557.906 188.164 553.587 190.541C553.268 190.72 552.833 190.886 553.025 191.41C552.731 191.653 552.539 192.074 552.079 192.036C552.386 192.854 551.888 193.518 551.594 194.208C550.584 196.572 550.086 199.077 549.677 201.607C548.092 211.587 546.674 221.581 544.91 231.522C543.492 239.573 543.364 247.368 547.556 254.729L550.277 258.652C552.999 262.588 557.012 265.45 561.612 266.766L573.228 270.089L573.381 270.012C573.726 270.038 574.059 270.076 574.391 270.165C592.831 275.06 611.258 280.005 629.71 284.874C637.851 287.021 645.863 290.075 654.54 289.014C654.642 288.656 654.987 288.605 655.255 288.452C659.076 285.462 660.993 281.309 661.772 276.721C663.932 263.955 666.168 251.176 667.804 238.346C669.095 228.251 665.069 219.945 657.057 213.747L657.031 213.76ZM632.343 241.362C629.979 256.262 613.673 263.431 600.46 255.393C597.993 253.898 595.885 251.981 593.879 249.924C589.866 246.001 588.384 239.036 588.384 239.036C587.464 234.883 587.413 230.743 588.588 226.615C591.923 214.872 603.974 208.712 615.5 212.878C627.129 217.082 634.285 229.184 632.356 241.362H632.343Z" fill="#F7A12B"/>
<path d="M399.053 109.395C401.161 107.044 403.168 104.616 405.711 102.674C417.736 93.5113 436.124 94.9425 446.973 105.038C449.069 106.993 450.973 109.127 452.634 111.466C453.107 112.13 453.478 112.871 454.257 113.267C454.296 114.392 454.858 115.248 455.625 116.015C456.545 118.264 457.567 120.475 458.347 122.775C459.791 127.03 460.685 131.4 460.302 135.911C459.842 141.368 457.593 146.045 453.797 149.968V149.891C453.58 150.224 453.363 150.569 453.133 150.901L453.222 150.837C452.647 151.08 452.302 151.438 452.571 152.115C451.472 151.706 451.114 152.626 450.59 153.227C445.849 156.715 441.057 160.153 435.754 162.913C435.14 162.031 435.498 161.277 435.639 160.523C436.086 158.095 436.137 155.655 435.92 153.214C435.651 150.057 433.888 148.243 430.757 147.693C428.853 147.361 426.949 147.31 424.994 147.451C420.534 147.77 416.062 147.949 411.576 147.297C405.953 146.479 401.647 143.681 398.555 139.081C393.66 131.809 392.932 123.976 395.884 115.746C396.293 114.596 396.676 113.433 397.072 112.283C398.184 111.632 398.567 110.469 399.053 109.383V109.395ZM439.575 124.449C439.613 126.353 441.249 127.976 443.089 127.95C444.916 127.925 446.603 126.212 446.616 124.385C446.628 122.302 444.967 120.705 442.884 120.807C440.916 120.896 439.536 122.417 439.575 124.449ZM420.074 122.57C420.048 120.602 418.553 119.043 416.675 119.018C414.809 118.992 413.25 120.551 413.199 122.494C413.148 124.577 414.771 126.263 416.752 126.199C418.63 126.136 420.1 124.525 420.074 122.57ZM429.901 126.966C431.818 126.941 433.415 125.382 433.428 123.516C433.441 121.459 431.818 119.963 429.645 120.053C427.716 120.142 426.131 121.791 426.246 123.605C426.361 125.509 427.971 126.992 429.888 126.953L429.901 126.966Z" fill="#F7A12B"/>
<path d="M453.798 149.879V149.955C455.88 150.633 455.932 150.658 454.999 152.255C453.35 155.118 451.127 157.508 448.66 159.68C444.035 163.744 438.795 166.913 433.53 170.056C433.006 170.376 432.47 170.798 431.856 170.452C431.026 169.992 431.396 169.226 431.486 168.536C431.677 167.117 431.844 165.699 432.022 164.28C432.265 162.338 432.265 160.421 431.716 158.517C431.141 156.549 429.876 155.412 427.869 155.054C425.633 154.658 423.41 154.735 421.16 154.862C417.186 155.092 413.212 155.284 409.238 154.786C400.382 153.674 394.887 148.447 391.833 140.397C389.904 135.298 389.75 130.033 391.13 124.743C391.233 124.347 391.284 123.938 391.437 123.567C391.705 122.941 391.923 122.059 392.868 122.404C393.801 122.762 393.405 123.503 393.2 124.206C391.884 128.717 391.744 133.241 392.97 137.803C395.539 147.285 402.427 152.856 412.241 153.163C415.499 153.265 418.771 153.061 422.029 152.894C424.189 152.779 426.323 152.818 428.432 153.239C431.09 153.763 432.751 155.361 433.53 157.942C434.387 160.766 433.901 163.603 433.735 166.453C433.518 167.117 433.403 167.679 434.425 167.181C439.754 164.191 444.84 160.843 449.21 156.498C449.989 155.719 450.897 155.016 451.318 153.942C451.996 153.495 452.532 152.958 452.571 152.089C453.184 151.859 453.478 151.476 453.222 150.811L453.133 150.875C453.81 150.837 453.887 150.403 453.798 149.866V149.879Z" fill="#212529"/>
<path d="M439.587 124.449C439.549 122.417 440.929 120.896 442.897 120.807C444.967 120.705 446.641 122.302 446.628 124.385C446.628 126.212 444.929 127.925 443.101 127.95C441.261 127.976 439.626 126.353 439.587 124.449Z" fill="white"/>
<path d="M420.087 122.57C420.113 124.525 418.643 126.123 416.765 126.199C414.784 126.276 413.161 124.577 413.212 122.494C413.263 120.551 414.822 118.992 416.688 119.018C418.566 119.043 420.074 120.602 420.087 122.57Z" fill="white"/>
<path d="M429.901 126.953C427.984 126.979 426.387 125.497 426.259 123.605C426.144 121.791 427.716 120.142 429.659 120.053C431.818 119.951 433.454 121.446 433.441 123.516C433.428 125.382 431.831 126.941 429.914 126.966L429.901 126.953Z" fill="white"/>
<path d="M434.425 167.207C433.402 167.705 433.517 167.143 433.735 166.478C433.965 166.721 434.195 166.964 434.425 167.207Z" fill="white"/>
<path d="M286.932 387.066C287.213 388.127 287.507 389.187 287.788 390.248C286.906 390.644 286.6 391.526 286.191 392.28C280.172 403.551 274.14 414.809 268.185 426.105C265.451 431.306 264.761 431.69 259.266 430.067C251.662 427.818 244.072 425.568 236.468 423.319C238.922 419.588 240.992 415.652 240.2 411.039C239.727 408.279 240.762 407.154 243.164 406.157C253.234 401.992 263.253 397.698 273.207 393.264C274.805 392.548 277.45 392.88 277.693 390.107C275.623 389.392 274.102 390.861 272.466 391.551C262.281 395.807 252.11 400.151 241.989 404.573C239.919 405.48 238.36 405.851 237.554 403.206C244.123 401.097 250.244 397.928 256.595 395.321C263.636 392.42 270.575 389.315 277.578 386.338C279.456 385.545 281.335 384.676 283.392 384.421L283.405 384.357C283.545 384.817 283.89 384.957 284.338 384.919C285.194 385.635 286.05 386.35 286.906 387.066H286.932Z" fill="#F7A12B"/>
<path d="M284.363 384.919C283.916 384.957 283.571 384.83 283.43 384.357C283.737 384.548 284.044 384.727 284.363 384.919Z" fill="white"/>
<path d="M236.481 423.332C244.085 425.581 251.675 427.83 259.279 430.079C264.786 431.702 265.464 431.319 268.198 426.118C274.14 414.809 280.185 403.551 286.204 392.292C286.613 391.538 286.919 390.657 287.801 390.261C293.577 402.809 299.404 415.333 305.103 427.92C306.816 431.702 305.87 433.517 301.589 435.357C284.159 442.833 266.729 450.283 249.286 457.733C246.985 458.717 244.736 459.816 242.398 460.697C239.088 461.937 236.98 461.234 235.497 457.988C230.948 447.957 226.067 438.079 221.965 427.843C227.383 428.226 232.277 426.897 236.469 423.345L236.481 423.332Z" fill="#212529"/>
<path d="M236.481 423.332C232.29 426.898 227.395 428.214 221.977 427.83C221.428 427.626 220.878 427.409 220.316 427.217C219.511 426.936 218.629 426.348 217.965 427.332C217.492 428.035 218.041 428.738 218.335 429.364C223.332 440.354 228.29 451.356 233.376 462.295C234.82 465.387 236.2 465.809 239.42 464.467C247.42 461.119 255.394 457.682 263.368 454.27C264.313 453.861 265.233 453.414 266.192 453.043C266.831 452.8 267.303 453.069 267.585 453.707C267.827 454.27 267.431 454.513 267.048 454.704C266.128 455.164 265.195 455.611 264.249 456.008C256.544 459.305 248.838 462.614 241.132 465.898C235.727 468.199 233.44 467.33 231.012 462.014C225.887 450.768 220.801 439.497 215.664 428.252C214.501 425.709 213.377 423.166 211.933 420.751C207.626 413.556 209.147 405.046 215.485 400.152C221.849 395.244 230.258 395.973 236.315 401.953C236.737 402.362 237.146 402.784 237.567 403.193C238.372 405.838 239.944 405.467 242.001 404.56C252.122 400.139 262.281 395.807 272.479 391.539C274.127 390.849 275.648 389.379 277.705 390.095C277.45 392.868 274.817 392.535 273.22 393.251C263.265 397.685 253.247 401.966 243.177 406.145C240.775 407.142 239.74 408.266 240.212 411.026C241.005 415.639 238.922 419.575 236.481 423.307V423.332ZM238.398 413.135C238.768 405.672 233.095 399.346 225.632 398.925C218.258 398.503 211.869 404.279 211.447 411.742C211.026 419.154 216.802 425.556 224.226 425.914C231.702 426.271 238.027 420.572 238.398 413.135Z" fill="#212529"/>
<path d="M238.398 413.135C238.027 420.572 231.702 426.271 224.226 425.914C216.802 425.556 211.026 419.154 211.447 411.742C211.869 404.279 218.271 398.503 225.632 398.925C233.095 399.346 238.769 405.672 238.398 413.135ZM221.645 408.483C223.166 412.061 224.699 415.678 226.233 419.294C226.68 420.329 227.344 421.096 228.584 420.546C229.632 420.086 229.542 419.141 229.21 418.31C227.383 413.85 225.568 409.378 223.587 404.982C222.782 403.193 221.441 403.065 220.214 404.484C219.651 405.135 219.166 405.928 218.898 406.745C218.489 407.972 216.329 409.173 218.092 410.451C219.83 411.704 219.996 408.803 221.645 408.496V408.483Z" fill="white"/>
<path d="M221.632 408.483C219.984 408.79 219.818 411.703 218.08 410.438C216.316 409.16 218.476 407.959 218.885 406.732C219.153 405.915 219.639 405.122 220.201 404.471C221.428 403.052 222.77 403.18 223.575 404.969C225.543 409.365 227.357 413.837 229.197 418.297C229.542 419.128 229.619 420.086 228.571 420.534C227.332 421.07 226.654 420.316 226.22 419.281C224.674 415.665 223.153 412.048 221.632 408.47V408.483Z" fill="#F7A12B"/>
</g>
<defs>
<clipPath id="clip0_223_1164">
<rect width="664.255" height="441.201" fill="white" transform="translate(12.2771 46.5237)"/>
</clipPath>
</defs>
</svg>
