<svg width="635" height="493" viewBox="0 0 635 493" fill="none" xmlns="http://www.w3.org/2000/svg">
<g clip-path="url(#clip0_351_2212)">
<g clip-path="url(#clip1_351_2212)">
<g clip-path="url(#clip2_351_2212)">
<path d="M632.145 227.582C636.126 211.591 633.593 190.103 631.15 178.207C615.657 102.754 531.768 88.4376 460.116 76.699C460.116 76.699 362.294 69.7777 278.496 33.3631C-104.896 -133.284 -55.5902 375.501 203.767 469.952C352.953 535.226 574.697 457.874 632.122 227.582H632.145Z" fill="#F4F3F2"/>
<mask id="mask0_351_2212" style="mask-type:luminance" maskUnits="userSpaceOnUse" x="11" y="42" width="613" height="408">
<path d="M11.3203 42.9717H623.505V449.587H11.3203V42.9717Z" fill="white"/>
</mask>
<g mask="url(#mask0_351_2212)">
<path d="M547.143 320.769C549.286 325.151 551.548 329.461 553.338 334.006C556.729 342.58 558.343 351.496 558.272 360.681C558.237 365.546 557.99 370.433 556.882 375.214C556.152 375.497 555.646 375.839 555.622 376.804C555.563 378.866 555.328 380.914 555.139 382.964C555.057 383.871 555.328 384.86 554.574 385.626C553.397 388.346 552.49 391.161 551.642 393.999C551.5 394.234 551.312 394.446 551.23 394.693C548.98 400.842 545.859 406.459 541.042 410.993C537.945 413.914 534.271 415.822 530.019 416.116C519.078 416.882 509.221 413.773 500.611 407.037C496.007 403.432 493.321 398.757 494.016 392.621C495.017 387.592 497.267 383.082 499.717 378.642C501.33 375.709 503.438 373.024 504.369 369.726C506.877 366.559 508.337 362.849 509.892 359.175C510.964 356.89 511.729 354.498 512.365 352.073C512.919 353.156 512.577 354.263 512.507 355.382C512.177 360.175 511.329 364.875 510.34 369.562C510.163 370.41 510.127 371.081 511.093 371.328C512.024 371.576 512.153 370.845 512.354 370.198C514.261 364.05 514.991 357.773 514.697 351.319C514.544 348.009 513.814 344.818 513.343 341.579C513.732 337.234 512.719 333.04 511.588 328.942C510.186 323.831 508.478 318.802 505.405 314.386C505.287 314.032 505.217 313.656 505.04 313.338C498.739 301.714 490.366 291.891 479.637 284.131C479.437 283.99 479.119 284.025 478.86 283.978C478.495 283.695 478.059 283.483 477.788 283.13C475.491 280.044 472.382 277.794 469.673 275.121C468.884 274.344 467.942 273.731 467.047 273.072C466.328 272.542 465.834 272.789 465.587 273.59C465.446 274.026 465.399 274.497 465.304 274.945C464.657 274.697 464.268 274.862 464.091 275.592C463.667 277.323 463.161 279.031 462.76 280.762C461.076 288.194 461.205 295.449 465.069 302.303C467.282 306.224 469.826 309.899 472.665 313.396C473.559 314.963 474.572 316.412 476.233 317.283C477.034 318.531 477.859 319.78 478.648 321.028C479.99 323.16 479.978 323.219 477.611 324.149C469.332 327.423 460.864 330.156 452.443 333.017C442.598 336.362 432.705 339.53 422.812 342.722C421.552 343.122 420.657 343.782 420.103 344.948C418.855 344.948 417.771 345.584 416.606 345.89C413.732 346.667 411.046 348.08 408.032 348.41C409.257 338.741 411.188 329.213 413.214 319.685C413.473 318.449 413.426 317.083 414.498 316.129C416.406 315.151 417.254 313.514 417.689 311.466C418.395 308.168 419.267 304.905 420.092 301.643C422.129 293.682 424.179 285.72 426.227 277.759C427.817 276.323 428.018 274.191 428.878 272.389C429.148 271.811 428.465 271.717 428.053 271.552C427.759 271.105 427.37 270.904 426.899 271.281C426.298 271.764 426.051 272.483 425.733 273.166C423.396 278.269 420.749 283.225 417.807 288.005C415.864 291.161 413.803 294.294 410.635 296.438C410.258 296.438 409.881 296.391 409.504 296.403C401.107 296.732 397.091 294.235 393.499 286.403C393.275 285.909 392.945 285.697 392.451 285.626C393.44 284.531 394.924 283.872 395.584 282.565C394.901 281.469 394.159 282.176 393.487 282.152C393.216 279.867 394.253 277.971 395.337 276.099C396.856 273.484 399.069 271.411 400.942 269.08C401.767 268.503 402.733 268.055 403.168 267.042C406.112 264.498 409.292 262.226 411.718 259.139C414.651 257.526 416.382 254.853 417.936 252.026C418.054 251.814 417.936 251.484 417.913 251.202C418.183 251.154 418.549 251.202 418.725 251.037C421.882 248.117 425.827 246.515 429.608 244.689C432.493 243.299 435.532 242.334 438.829 242.817C438.287 244.583 439.276 246.102 439.665 247.692C440.183 249.777 440.772 251.861 441.997 253.687C443.434 255.819 444.918 256.208 446.967 254.841C447.897 254.229 448.698 253.416 449.511 252.639C452.773 249.506 455.187 245.678 457.979 242.157C459.344 242.099 460.605 242.946 461.995 242.629C470.203 244.123 477.965 246.821 485.078 251.26C484.972 252.191 485.632 252.521 486.279 252.957C489.859 255.348 493.451 257.738 496.973 260.223C498.763 261.483 500.823 262.508 501.73 264.722C503.332 266.229 504.663 268.02 506.524 269.256C513.108 276.452 519.573 283.754 525.827 291.232C526.121 292.115 526.91 292.61 527.463 293.281C528.346 293.116 528.535 293.882 528.853 294.388C531.267 298.286 533.647 302.209 536.037 306.118C536.673 307.155 537.274 308.215 537.898 309.263C538.487 310.252 539.123 309.758 539.771 309.334L547.131 320.757L547.143 320.769Z" fill="#00E25A"/>
<path d="M408.031 348.386C411.035 348.068 413.731 346.643 416.605 345.866C417.771 345.548 418.854 344.923 420.102 344.923C420.715 345.618 421.339 345.065 421.905 344.888C435.696 340.531 449.475 336.103 463.054 331.097C469.048 328.895 475.054 326.74 481.06 324.573C489.364 326.622 497.619 328.836 505.652 331.816C506.865 332.263 507.889 333.205 509.29 333.111C510.397 336.445 511.575 339.777 511.952 343.275C512.27 346.184 513.319 349.105 512.341 352.084C511.717 354.522 510.939 356.901 509.867 359.185C508.878 359.021 508.03 359.515 507.136 359.774C500.093 361.8 493.062 363.862 486.031 365.91C469.437 370.739 452.854 375.603 436.249 380.384C431.291 381.81 426.403 383.494 421.339 384.53C420.68 384.53 419.973 384.377 419.537 385.095C419.497 385.14 419.443 385.171 419.384 385.184C419.325 385.197 419.263 385.191 419.207 385.166C415.887 384.66 412.718 385.637 409.503 386.202C404.369 387.097 399.222 387.957 394.099 388.958C388.693 390.018 383.335 391.326 378.058 392.927C367.165 396.248 356.577 400.111 348.369 408.52C347.898 409.003 347.368 409.368 346.661 409.368C346.472 409.179 346.296 408.991 346.107 408.791C344.918 403.75 343.469 398.78 341.809 393.869C341.703 393.186 341.668 392.491 341.22 391.914C341.244 390.949 340.855 390.089 340.596 389.182C339.524 385.484 338.428 381.798 337.439 378.076C336.768 375.568 337.781 373.683 340.172 372.647C340.69 372.423 341.232 372.258 341.762 372.069C362.678 364.721 383.582 357.384 404.487 350.024C405.711 349.588 407.018 349.305 408.019 348.375L408.031 348.386ZM420.079 368.937C420.043 366.582 417.771 364.885 415.321 365.545C412.518 366.299 409.763 367.241 406.983 368.101C391.472 372.894 375.962 377.676 360.464 382.481C359.486 382.787 358.461 382.999 357.59 383.612C355.941 384.789 355.317 386.909 356.118 388.593C356.93 390.301 358.402 390.819 360.628 390.207C360.991 390.112 361.353 390.01 361.712 389.901C376.09 385.593 390.466 381.279 404.84 376.958C408.797 375.768 412.742 374.567 416.664 373.271C418.83 372.552 420.102 370.798 420.067 368.926L420.079 368.937Z" fill="#00A0FF"/>
<path d="M346.684 409.356C347.391 409.356 347.921 408.991 348.392 408.508C356.6 400.099 367.2 396.225 378.081 392.915C383.356 391.318 388.71 389.993 394.122 388.946C399.245 387.945 404.38 387.085 409.527 386.19C412.741 385.625 415.91 384.648 419.231 385.155C415.109 386.744 410.822 387.78 406.594 389.017C392.803 393.044 379 397.026 365.197 401.053C364.126 401.371 362.995 401.595 362.053 402.266C360.428 403.444 359.827 405.588 360.664 407.271C361.441 408.838 362.936 409.427 364.962 408.956C365.421 408.85 365.869 408.72 366.328 408.602C371.298 407.189 376.256 405.764 381.226 404.363C415.568 394.682 449.91 384.99 484.264 375.32C490.953 373.436 497.655 371.599 504.344 369.75C503.413 373.047 501.305 375.733 499.691 378.665C497.242 383.105 494.993 387.615 493.991 392.644C493.167 392.785 492.319 392.891 491.507 393.08C474.607 396.884 457.695 400.664 440.806 404.528C435.424 405.764 429.984 406.741 424.683 408.32C423.777 407.224 422.635 407.683 421.575 407.907C419.384 408.367 417.216 408.92 415.015 409.356C412.282 409.91 412.294 409.863 410.963 407.507C409.68 405.211 408.137 403.091 406.146 401.347C404.427 399.852 402.873 400.123 401.813 402.148C401.247 403.22 401 404.398 400.906 405.647C400.717 408.32 401.436 410.828 402.072 413.36C393.357 415.28 384.641 417.188 375.938 419.131C369.06 420.662 362.194 422.252 355.328 423.795C351.96 424.549 350.558 423.795 349.675 420.509C348.674 416.799 347.238 413.207 346.661 409.38L346.684 409.356ZM254.634 154.052C255.659 147.151 258.898 141.286 263.397 136.116C268.46 130.298 274.808 126.847 282.64 126.211C289.035 125.681 295.159 126.765 301.13 128.897C304.663 130.157 308.09 131.699 311.141 133.937C311.223 134.632 311.683 134.844 312.307 134.82L312.295 134.797C312.849 137.117 314.756 138.506 316.216 140.108C320.374 144.678 322.965 149.919 323.907 155.984C324.119 157.386 323.754 158.799 322.953 159.952C321.657 161.837 319.762 161.613 317.877 161.095C314.25 160.082 310.575 159.517 306.795 159.67C304.758 159.752 302.932 160.247 301.248 161.389C298.61 163.18 296.148 165.182 293.722 167.231C289.165 171.094 284.254 173.378 277.953 173.402C269.191 173.425 258.639 166.23 256.106 157.621C255.741 156.396 255.588 155.042 254.634 154.04V154.052ZM287.292 140.992H286.727C281.78 141.145 278.094 144.678 277.435 150.249C276.94 154.417 278.589 157.551 283.7 158.857C285.738 159.387 286.303 160.612 286.715 162.355C287.798 166.889 288.422 167.207 292.863 165.735C293.311 165.582 293.769 165.453 294.193 165.253C295.783 164.499 296.125 163.792 295.618 162.108C295.347 161.213 295.041 160.306 294.629 159.47C293.934 158.057 294.016 156.844 295.029 155.56C296.137 154.146 296.855 152.545 297.079 150.696C297.644 145.891 292.533 140.367 287.292 141.003V140.992ZM274.455 146.126C276.175 146.103 277.47 145.761 277.506 145.184C277.576 143.983 276.422 143.536 275.809 142.758C275.687 142.614 275.548 142.483 275.397 142.37C274.679 141.804 274.066 140.815 273.006 141.262C271.947 141.698 271.688 142.77 271.582 143.842C271.405 145.714 271.994 146.161 274.443 146.138L274.455 146.126ZM283.865 134.785C283.759 134.326 283.606 133.501 283.382 132.689C283.241 132.17 282.829 131.994 282.299 132.041C281.274 132.147 279.743 133.619 279.625 134.632C279.484 135.881 280.932 138.071 281.933 138.13C282.982 138.189 283.83 136.87 283.853 134.785H283.865ZM294.099 134.585C293.769 134.608 293.381 134.915 293.275 135.386C293.016 136.564 292.769 137.753 292.639 138.954C292.569 139.625 292.898 140.238 293.651 140.438C294.346 140.626 295.006 140.485 295.395 139.884C295.854 139.189 296.29 138.447 296.572 137.671C297.067 136.305 295.736 134.573 294.099 134.585ZM246.932 197.616C251.702 197.734 256.483 197.581 261.158 198.782C262.961 199.253 264.798 199.63 266.211 200.984C265.375 201.502 265.835 202.091 266.105 202.68C266.87 204.4 267.86 206.002 268.472 207.791C269.673 211.254 270.416 214.775 270.816 218.45C271.252 222.407 271.393 226.27 270.663 230.18C270.533 230.898 270.392 231.463 269.567 231.558C268.566 228.33 267.589 225.104 266.564 221.888C265.964 220.005 265.187 218.167 264.103 216.518C262.913 214.704 261.559 214.657 260.299 216.377C259.639 217.284 259.133 218.285 258.662 219.322C257.461 221.971 256.212 224.621 254.799 227.165C253.939 228.695 252.832 228.613 252.102 227.059C251.549 225.881 251.184 224.586 250.913 223.314C249.747 217.802 248.663 212.279 247.497 206.767C247.232 205.481 246.846 204.223 246.343 203.01C245.895 201.938 245.095 201.926 244.471 202.904C244.117 203.446 243.87 204.082 243.67 204.706C243.057 206.684 242.492 208.663 241.915 210.653C240.749 214.622 239.748 218.638 237.84 222.348C235.791 226.329 233.258 227.071 229.278 224.892C228.124 224.256 226.981 223.596 225.815 222.995C221.729 220.922 219.326 221.57 216.665 225.363C214.875 227.918 213.626 230.757 212.354 233.595C210.364 238.047 209.881 237.905 215.393 238.801C223.19 240.061 231.116 240.226 238.994 240.485C247.073 240.744 255.176 240.567 263.267 240.579C264.362 241.921 263.008 242.098 262.313 242.498C257.567 245.184 252.35 246.503 247.014 246.727C239.724 247.033 232.387 247.233 225.144 245.702C218.502 244.289 212.448 241.862 207.691 236.739C206.572 235.538 205.712 234.008 204.123 233.277C202.886 225.822 204.087 218.709 207.29 211.937C208.998 208.333 211.694 205.719 215.381 204.058C220.645 201.691 226.192 200.395 231.846 199.383C236.839 198.488 241.891 198.099 246.932 197.64V197.616Z" fill="#00A0FF"/>
<path d="M339.394 230.179C341.09 230.333 341.868 229.449 342.421 227.907C343.928 223.714 344.423 219.545 342.88 215.234C341.42 211.171 340.065 207.073 338.687 202.974C338.31 201.867 337.639 201.007 336.862 200.184C335.131 198.323 333.506 196.379 332.316 194.106C330.608 190.868 330.573 187.593 332.234 184.379C334.813 179.362 338.97 176.441 344.529 175.487C348.58 174.792 352.584 175.286 356.6 175.781C357.99 175.958 359.391 176.099 360.793 176.264C361.877 176.841 362.289 176.299 362.536 175.298C363.066 173.214 363.584 171.118 364.255 169.08C364.75 167.572 365.351 166.077 366.116 164.699C368.495 160.412 372.158 159.141 376.857 160.706C379.554 161.602 381.485 163.439 383.335 165.453C385.937 169.881 385.96 174.544 384.594 179.338C382.993 184.932 380.319 189.961 376.551 194.389C374.89 196.332 373.029 198.075 370.674 199.147C369.626 199.618 369.344 200.266 369.355 201.325C369.379 203.292 369.414 205.283 368.731 207.179C368.437 207.191 368.154 207.215 367.859 207.227C367.942 205.354 367.942 203.481 367.73 201.608C367.636 200.772 367.471 200.196 366.458 200.172C362.642 200.09 359.474 198.252 356.33 196.356C354.728 195.39 353.138 194.377 351.442 193.601C348.71 192.328 346.637 192.8 344.576 194.966C343.009 196.615 342.021 198.653 340.902 200.608C340.183 201.867 340.171 202.951 340.666 204.305C342.091 208.168 343.374 212.09 344.682 216C345.353 217.99 345.388 220.028 345.282 222.112C345.141 224.974 343.916 227.542 343.339 230.285C342.786 230.615 342.268 231.086 341.667 231.24C337.981 232.253 334.33 233.372 330.726 234.667C330.054 234.903 329.454 234.867 328.854 234.526C328.348 234.019 327.9 233.501 329.007 233.171C331.833 232.323 334.648 231.463 337.474 230.615C338.134 230.474 338.782 230.333 339.441 230.191L339.394 230.179Z" fill="#23221F"/>
<path d="M509.337 111.161C509.49 111.703 509.714 112.22 509.797 112.774C509.997 114.152 510.75 114.564 512.116 114.587C515.167 114.646 515.296 114.847 515.332 117.791C515.343 119.11 515.332 120.417 515.332 121.736C515.332 123.008 514.696 123.644 513.423 123.621C512.858 123.621 512.293 123.668 511.739 123.621C510.609 123.527 509.985 124.045 509.702 125.105C509.608 125.47 509.514 125.858 509.314 126.152C507.9 128.237 507.853 130.086 510.126 131.641C510.598 131.959 510.68 132.595 510.727 133.171C510.633 133.501 510.55 133.843 510.456 134.173C509.172 135.398 507.9 136.634 506.593 137.836C505.238 139.084 504.555 139.296 503.555 137.977C501.859 135.727 500.21 136.187 498.031 137.106C496.324 137.824 495.499 138.484 495.593 140.473C495.723 143.1 495.311 143.406 492.708 143.324C490.682 143.265 488.586 143.818 486.619 142.888C489.128 139.202 491.647 135.515 493.485 131.429C500.834 129.886 505.309 122.914 503.508 115.812C501.694 108.664 494.439 104.483 487.337 106.591C482.627 107.992 479.564 111.208 478.504 115.942C477.385 120.971 478.728 125.423 482.839 128.826C482.203 129.203 481.496 129.509 480.954 129.992C479.529 131.276 478.021 132.548 478.328 134.797C477.703 136.045 477.091 137.282 476.408 138.66C474.265 137.153 472.946 135.009 470.92 133.666C470.99 133.23 471.061 132.795 471.144 132.36C473.295 130.381 473.782 128.296 472.604 126.105C472.18 125.329 472.486 124.21 471.485 123.715C470.543 123.691 469.613 123.633 468.671 123.633C467.246 123.633 466.633 122.926 466.657 121.536C466.68 119.946 466.598 118.345 466.68 116.755C466.775 115.047 467.21 114.47 468.942 114.623C471.202 114.823 472.18 113.834 472.569 111.82C472.639 111.455 472.757 111.078 472.958 110.772C473.9 109.323 473.841 108.181 472.451 106.909C470.943 105.519 471.061 104.86 472.451 103.376C473.422 102.352 474.419 101.355 475.443 100.384C476.914 98.9944 477.385 98.8295 478.705 100.278C480.071 101.762 481.284 101.845 482.851 100.82C483.404 100.46 484.025 100.216 484.675 100.102C486.077 99.8543 486.372 99.0304 486.407 97.7106C486.478 95.0969 486.796 94.873 489.399 94.8371C490.717 94.814 492.024 94.7901 493.344 94.8371C495.052 94.92 495.723 95.3439 495.593 97.0047C495.417 99.2064 496.477 100.007 498.313 100.443C498.86 100.577 499.382 100.8 499.856 101.103C500.975 101.833 501.812 101.68 502.813 100.726C504.92 98.7235 504.991 98.7945 507.087 100.855C507.688 101.444 508.289 102.045 508.878 102.646C511.138 104.931 511.174 104.954 509.031 107.368C508.242 108.251 507.806 109.029 508.819 109.995C508.996 110.383 509.184 110.772 509.361 111.161H509.337Z" fill="#00A0FF"/>
<path d="M433.164 187.889C439.288 185.297 445.294 185.945 451.23 188.583C451.819 189.337 452.938 189.313 453.491 190.138C454.245 190.88 454.975 191.657 456.059 191.928C458.92 193.954 460.958 196.603 461.9 199.972C463.055 204.082 461.9 205.919 457.731 206.767C456.636 206.991 456.106 207.356 456.106 208.558C456.106 215.235 455.6 221.901 455.823 228.579C455.774 229.674 455.731 230.769 455.694 231.864C455.658 232.971 455.081 233.313 454.057 233.042C453.809 230.439 453.314 227.848 453.562 225.198C453.915 221.277 454.186 217.343 454.433 213.409C454.563 211.372 454.952 209.322 454.481 207.132C451.088 207.179 448.333 208.298 446.578 211.183C443.634 216.035 442.798 221.618 440.902 227.047C444.34 226.447 444.623 226.718 444.081 229.638C443.998 230.097 443.963 230.568 443.834 231.028C442.704 235.174 441.479 239.283 438.84 242.794C435.543 242.322 432.504 243.275 429.619 244.665C425.827 246.491 421.894 248.093 418.737 251.013C418.56 251.178 418.195 251.131 417.924 251.178C417.217 250.613 417.465 250.106 417.948 249.518C419.738 247.363 422.035 245.949 424.566 244.854C428.395 243.205 432.387 242.193 436.509 241.675C437.392 241.557 438.098 241.427 438.511 240.473C439.736 237.623 441.184 234.867 442.021 231.864C442.28 230.933 442.845 229.92 442.15 228.826C440.866 229.167 439.7 229.685 438.664 230.533C437.509 231.475 436.25 231.369 434.954 230.792C433.27 230.05 432.104 228.708 430.902 227.401C430.243 225.787 430.09 224.067 429.961 222.348H430.808C431.197 223.384 431.75 224.126 433.046 223.997C433.682 223.926 434.401 223.973 434.99 224.209C436.509 224.821 437.392 224.091 438.346 223.043C441.066 220.063 442.162 216.447 442.598 212.573C442.727 211.478 442.916 210.182 441.903 209.428C440.796 208.616 439.806 209.617 438.84 210.088C437.027 210.995 435.378 212.396 433.129 212.008C432.375 211.878 432.163 212.361 432.033 212.95L430.832 218.426L429.808 218.25C429.702 216 429.667 213.727 430.29 211.548C430.584 210.512 430.313 209.793 429.796 208.957C428.595 207.038 427.817 204.918 427.217 202.751C425.85 197.828 425.462 193.153 431.668 188.701C432.233 188.536 432.752 188.289 433.164 187.853V187.889Z" fill="#23221F"/>
<path d="M279.674 336.951C278.802 336.621 277.919 336.327 277.059 335.962C274.786 335.019 274.456 333.559 276.023 331.403C276.659 332.805 277.507 333.853 279.144 334.324C286.434 336.433 293.689 338.658 300.955 340.849C315.758 345.324 330.55 349.8 345.343 354.286C347.321 354.887 349.276 355.523 351.255 356.089C353.999 356.854 355.377 355.735 355.342 352.861C355.33 352.013 355.165 351.201 354.965 350.365C353.151 342.91 351.396 335.432 349.629 327.977C350.913 328.259 352.185 328.53 353.469 328.825C359.499 330.215 365.422 332.004 371.523 333.135C375.41 334.301 379.308 335.443 383.347 335.926C384.089 336.291 384.831 336.668 385.573 337.034C388.035 337.151 390.331 338.046 392.698 338.599C394.041 338.917 394.854 339.706 394.936 341.132C395.007 342.545 394.3 343.44 393.016 343.923C390.378 344.923 387.752 345.913 385.114 346.902C375.704 350.436 366.27 353.862 356.919 357.549C354.117 358.655 351.608 358.679 348.77 357.797C330.562 352.166 312.32 346.655 294.089 341.132C293.206 340.861 292.346 340.366 291.368 340.519C291.309 340.464 291.237 340.424 291.16 340.402C291.082 340.379 291 340.375 290.921 340.389C290.614 339.954 290.167 339.918 289.696 339.965C286.434 338.717 283.124 337.681 279.709 336.939L279.674 336.951ZM330.527 170.988C330.503 173.296 331.175 175.581 330.809 178.384C328.407 176.205 327.018 173.449 324.674 171.636C320.67 167.443 316.901 166.889 311.801 169.669C305.701 173.014 299.542 176.252 292.782 178.125C284.608 180.386 276.458 180.468 268.332 177.842C266.274 177.171 264.305 176.254 262.467 175.11C256.496 171.412 253.669 165.995 253.917 159.023C253.976 157.374 253.764 155.619 254.647 154.052C255.601 155.053 255.754 156.42 256.119 157.633C258.652 166.242 269.204 173.437 277.966 173.414C284.267 173.39 289.177 171.106 293.736 167.243C296.161 165.194 298.623 163.18 301.26 161.401C302.945 160.259 304.77 159.764 306.808 159.682C310.6 159.529 314.263 160.094 317.89 161.107C319.775 161.637 321.67 161.849 322.966 159.964C323.767 158.799 324.132 157.397 323.92 155.996C322.989 149.931 320.387 144.69 316.229 140.12C314.781 138.519 312.862 137.129 312.308 134.809C318.208 138.342 322.353 143.418 325.286 149.542C328.289 155.796 329.42 162.532 330.291 169.339C330.362 169.893 330.456 170.446 330.527 171V170.988ZM454.056 233.065C455.081 233.336 455.658 232.995 455.694 231.887C455.729 230.792 455.776 229.697 455.823 228.601C457.06 228.413 457.425 227.295 457.873 226.458C459.686 223.066 461.358 219.604 462.654 215.964C465.257 208.604 466.257 200.878 468.165 193.353C468.872 190.573 468.849 187.582 470.439 185.05C473.524 186.617 475.408 189.337 477.234 192.116C477.364 193.542 476.716 194.86 476.645 196.25C476.598 197.074 475.62 198.24 476.951 198.688C478.271 199.124 477.953 197.404 478.671 196.933C479.942 198.158 479.895 199.783 479.978 201.349C480.152 204.537 479.85 207.732 479.083 210.83C478.883 211.643 478.895 212.503 478.801 213.339C478.012 214.128 477.705 215.116 477.682 216.212C475.255 221.476 472.841 226.729 469.791 231.675C467.423 235.514 464.645 239.036 462.006 242.651C460.616 242.969 459.356 242.121 457.991 242.18C457.366 238.848 455.729 235.962 454.056 233.089V233.065Z" fill="#00A0FF"/>
<path d="M402.095 413.349C401.459 410.817 400.741 408.308 400.929 405.635C401.024 404.387 401.271 403.209 401.836 402.137C402.896 400.112 404.45 399.841 406.17 401.336C408.161 403.079 409.704 405.199 410.986 407.496C412.306 409.851 412.306 409.898 415.038 409.344C417.229 408.909 419.407 408.343 421.598 407.896C422.67 407.673 423.801 407.202 424.707 408.308C425.095 409.851 425.59 411.359 425.779 412.96C425.991 414.727 424.73 416.034 424.33 417.753C427.675 418.225 430.82 418.755 433.987 419.108C445.623 420.38 457.047 419.567 468.165 415.657C473.479 413.787 478.545 411.276 483.251 408.179C484.358 407.449 485.336 406.919 486.077 408.567C471.545 417.965 451.065 423.689 431.325 420.486C428.358 420.003 425.39 419.556 422.434 419.002C420.703 418.672 420.609 418.248 421.763 416.858C422.364 416.14 423.035 415.468 423.565 414.704C424.671 413.09 424.236 411.335 423.424 409.898C422.705 408.649 421.421 409.745 420.385 409.886C417.323 410.287 414.438 411.594 411.293 411.571C409.739 408.449 407.878 405.529 405.51 402.985C404.38 401.772 403.45 402.101 403.297 403.739C402.991 407.001 402.696 410.299 404.391 413.337C405.122 416.481 406.618 419.297 408.149 422.099C408.75 423.194 409.539 424.089 410.492 424.879C415.038 428.683 419.714 432.31 424.671 435.584C434.258 441.921 444.811 445.701 456.152 447.09C470.791 448.881 485.254 447.656 499.445 443.628C510.091 440.613 520.161 436.326 529.052 429.566C532.668 426.81 536.048 423.83 538.674 420.109C544.245 412.23 549.874 404.363 552.395 394.823C553.62 391.879 554.396 388.841 554.573 385.649C555.326 384.884 555.067 383.894 555.138 382.987C555.315 380.938 555.562 378.878 555.621 376.828C555.644 375.862 556.151 375.521 556.881 375.238C557.718 376.027 557.305 377.017 557.246 377.9C556.469 390.348 552.442 401.783 546.377 412.572C545.128 414.798 543.667 416.87 541.948 418.755C540.229 420.627 538.533 422.523 536.837 424.407C532.456 429.283 527.521 433.417 521.503 436.173C518.689 437.468 515.968 438.964 513.212 440.401C505.275 444.558 496.677 446.655 487.95 448.045C471.192 450.717 454.597 450.246 438.392 444.534C432.845 442.579 427.816 439.694 423.012 436.361C418.524 433.252 414.226 429.895 409.916 426.551C408.396 425.373 407.242 423.96 406.311 422.287C404.709 419.414 403.379 416.399 402.095 413.373V413.349Z" fill="#23221F"/>
<path d="M204.123 233.254C205.713 233.984 206.573 235.514 207.692 236.716C212.449 241.827 218.503 244.265 225.145 245.678C232.376 247.21 239.725 247.009 247.015 246.703C252.35 246.479 257.568 245.16 262.314 242.475C263.021 242.074 264.363 241.897 263.268 240.556C264.963 240.167 266.695 239.861 268.367 239.366C270.523 238.718 270.982 237.788 270.476 235.609C270.158 234.267 269.58 232.971 269.58 231.558C270.405 231.463 270.535 230.898 270.676 230.18C271.406 226.27 271.265 222.407 270.829 218.45C270.429 214.775 269.686 211.266 268.485 207.791C267.861 206.002 266.883 204.4 266.117 202.68C265.847 202.091 265.399 201.502 266.223 200.984C268.143 201.973 269.121 203.799 270.264 205.483C270.782 206.249 271.241 207.05 271.723 207.838C271.782 208.722 272.218 209.464 272.63 210.206C274.421 216.436 275.375 222.76 275.057 229.261C274.868 233.089 274.303 236.857 273.49 240.591C271.5 247.08 266.671 249.835 260.335 250.895C254.258 251.92 248.158 252.026 242.046 251.685C234.72 251.272 227.418 250.507 220.317 248.493C218.515 247.987 216.724 247.363 214.947 246.774C208.422 244.607 205.277 239.719 204.111 233.254H204.123ZM461.9 123.126C463.89 124.646 462.843 126.73 462.831 128.579C462.831 129.344 461.853 129.38 461.217 129.297C459.58 129.097 459.238 130.251 458.744 131.394C458.261 132.477 457.813 133.348 459.073 134.291C460.075 135.033 459.98 136.034 459.073 136.941C458.484 137.53 457.954 138.189 457.413 138.813C457.224 138.989 457.036 139.166 456.859 139.343C455.8 139.602 455.14 138.989 454.386 138.378C453.103 137.329 450.158 138.554 449.852 140.214C449.687 141.109 449.981 142.358 448.781 142.546C447.238 142.782 445.589 143.018 444.081 142.323C443.539 142.075 443.421 141.392 443.504 140.827C443.728 139.237 442.68 138.813 441.502 138.295C440.36 137.789 439.453 137.553 438.546 138.707C437.745 139.731 436.791 139.637 435.908 138.731C435.452 138.256 434.985 137.792 434.507 137.341C433.447 136.352 433.176 135.315 434.33 134.208C434.978 133.584 435.496 132.971 434.825 132.029C434.165 131.099 434.259 129.568 432.563 129.509C430.031 129.439 430.314 128.473 430.349 126.836C430.349 126.176 430.361 125.516 430.349 124.869C430.349 123.845 430.879 123.173 431.857 123.232C433.435 123.326 433.871 122.372 434.401 121.171C434.954 119.922 435.131 118.933 434.012 117.909C433.364 117.32 433.494 116.531 434.095 115.907C434.731 115.224 435.414 114.564 436.061 113.893C436.826 113.103 437.733 112.844 438.499 113.74C439.512 114.917 440.454 114.399 441.502 113.916C442.504 113.457 443.645 113.257 443.527 111.678C443.445 110.537 444.211 110.018 445.353 110.066C446.107 110.089 446.861 110.101 447.603 110.066C448.91 109.983 449.652 110.336 449.864 111.843C450.146 113.857 453.02 115 454.693 113.798C455.765 113.033 456.541 113.103 457.389 113.975C457.978 114.588 458.579 115.177 459.168 115.777C459.851 116.496 460.004 117.308 459.238 118.003C457.931 119.204 458.355 120.299 459.297 121.418C459.309 123.268 460.499 123.362 461.889 123.15L461.9 123.126ZM455.234 126.188C455.234 121.43 451.418 117.544 446.719 117.497C441.868 117.45 438.039 121.383 438.087 126.353C438.145 131.17 441.938 134.879 446.743 134.844C451.536 134.797 455.246 131.017 455.234 126.188ZM482.251 77.2544C482.286 78.3143 482.64 79.1382 483.864 79.0792C485.701 78.9852 486.09 80.0571 486.031 81.5768C486.007 82.1418 486.019 82.6956 486.031 83.2606C486.054 84.4384 485.713 85.3683 484.311 85.2043C482.687 85.0153 482.322 86.1461 481.803 87.277C481.285 88.3958 481.097 89.3027 482.204 90.2206C483.193 91.0454 483.04 91.9993 482.11 92.8592C481.697 93.2361 481.32 93.66 480.92 94.048C479.86 95.0692 478.729 95.1438 477.528 94.272C476.233 93.3301 473.088 94.3549 472.77 95.8387C472.393 97.5972 471.314 98.5197 469.532 98.6063C469.249 98.6183 468.978 98.6884 468.707 98.7354C467.529 98.5593 466.717 98.1944 466.575 96.7336C466.328 94.202 464.95 93.6361 462.206 94.7079C460.027 95.4738 458.991 94.9438 457.024 92.4583C455.682 90.7625 457.907 90.3035 458.001 89.1377C458.084 88.6308 458.19 88.1239 457.518 87.912L457.683 87.7949C457.424 86.1581 456.859 84.9213 454.799 85.2043C453.856 85.3333 453.526 84.6144 453.538 83.7435C453.538 82.9896 453.574 82.2358 453.526 81.4948C453.432 80.069 453.797 79.2682 455.482 79.1152C457.46 78.9262 458.696 75.7817 457.412 74.2399C456.436 73.062 456.6 72.3082 457.624 71.4243C458.19 70.9414 458.72 70.3884 459.226 69.8346C460.004 68.9747 460.699 68.9987 461.665 69.6585C463.513 70.9304 466.198 69.8585 466.599 67.6678C466.846 66.337 467.518 65.9481 468.719 66.0071C469.379 66.0421 470.038 66.0541 470.685 66.0071C472.028 65.9131 472.711 66.29 472.841 67.8319C473.006 69.6935 476.221 70.9654 477.728 69.7876C478.776 68.9747 479.506 68.9636 480.355 69.9286C480.92 70.5534 481.532 71.1423 482.145 71.7312C482.84 72.4022 483.205 73.168 482.38 73.897C481.085 75.0518 481.379 76.1356 482.286 77.3014L482.251 77.2544ZM461.17 82.0358C461.146 86.865 464.891 90.6915 469.685 90.7395C474.36 90.7855 478.329 86.8291 478.329 82.1298C478.329 77.3835 474.454 73.427 469.779 73.415C464.997 73.415 461.205 77.2185 461.17 82.0358Z" fill="#00A0FF"/>
<path d="M533.953 299.335C535.755 302.75 538.145 305.824 539.782 309.346C539.146 309.769 538.498 310.263 537.909 309.275C537.285 308.227 536.684 307.167 536.049 306.13C533.658 302.22 531.267 298.298 528.865 294.4C528.547 293.882 528.371 293.128 527.475 293.293C527.711 292.363 527.11 291.821 526.51 291.291C520.821 282.882 514.156 275.321 506.571 268.573C505.146 267.066 504.015 265.181 501.754 264.722C500.848 262.507 498.775 261.483 496.996 260.223C493.475 257.738 489.882 255.359 486.303 252.957C485.667 252.533 484.995 252.191 485.101 251.261C486.267 250.636 487.045 251.555 487.892 252.026C492.933 254.876 497.62 258.256 502.072 261.965C502.778 262.554 503.544 263.084 504.274 263.638C508.232 267.596 512.189 271.564 516.145 275.521C520.492 280.939 524.967 286.25 528.889 291.997C529.783 293.317 530.737 294.589 531.656 295.884C532.292 297.12 533.046 298.286 533.953 299.335Z" fill="#23221F"/>
<path d="M312.32 134.809C311.684 134.844 311.236 134.632 311.154 133.925C311.637 134.09 312.096 134.29 312.32 134.809Z" fill="#00A0FF"/>
<path d="M289.66 339.965C290.131 339.918 290.578 339.954 290.885 340.389C290.402 340.472 289.966 340.389 289.66 339.965ZM371.51 333.123C365.421 331.992 359.486 330.202 353.456 328.813C352.184 328.518 350.9 328.248 349.616 327.965C349.381 327.258 349.11 326.563 348.934 325.833C346.236 314.751 343.515 303.668 340.925 292.551C340.372 290.16 339.276 288.911 336.803 288.312C332.728 287.322 328.595 286.533 324.661 284.99C324.602 284.236 324.59 283.494 324.884 282.776C326.557 278.689 327.546 274.391 328.689 270.151C329.254 268.031 330.101 265.947 329.831 263.673C329.748 262.566 330.62 261.801 330.867 260.812C331.515 258.998 331.491 257.125 331.409 255.241C331.362 254.228 330.796 253.887 329.901 254.275C329.3 254.534 328.771 254.934 328.23 255.288C325.909 256.796 324.26 258.939 322.446 260.977C317.418 266.63 312.99 272.624 310.351 279.797C310.163 280.315 309.916 280.845 309.386 281.151C305.476 280.185 301.566 279.196 297.644 278.265C296.372 277.971 296.219 277.335 296.655 276.228C297.585 273.873 298.421 271.482 299.317 269.102C299.576 268.396 300 267.725 299.246 267.066C301.519 263.426 303.721 259.717 306.1 256.136C311.459 248.068 318.16 241.391 326.651 236.61C327.582 236.091 328.383 235.491 328.783 234.478C329.383 234.819 329.984 234.866 330.655 234.619C334.254 233.328 337.904 232.185 341.597 231.192C342.197 231.028 342.715 230.556 343.268 230.238C345.07 230.651 346.248 232.064 347.65 233.065C350.794 235.326 354.068 235.75 357.577 234.219C359.674 233.313 361.888 232.523 363.219 230.45C363.984 230.804 364.726 231.192 365.586 231.346C371.972 232.517 378.428 233.26 384.912 233.571C389.541 233.795 394.11 233.112 398.715 233.089C399.186 233.771 399.869 233.713 400.482 233.489C401.389 233.148 402.307 233.089 403.25 233.089C408.714 233.112 414.025 232.029 419.348 231.004C423.341 230.238 427.015 228.554 430.879 227.4C432.079 228.707 433.245 230.038 434.93 230.792C436.225 231.369 437.497 231.475 438.639 230.533C439.675 229.685 440.841 229.166 442.125 228.825C442.82 229.932 442.255 230.945 441.996 231.864C441.16 234.855 439.711 237.623 438.487 240.473C438.074 241.426 437.368 241.556 436.484 241.674C432.362 242.192 428.37 243.217 424.543 244.854C421.998 245.949 419.713 247.362 417.924 249.517C417.441 250.094 417.194 250.613 417.9 251.178C417.912 251.449 418.03 251.791 417.924 252.003C416.369 254.828 414.638 257.502 411.705 259.116C408.62 259.128 405.545 258.986 402.449 259.564C399.198 260.164 395.924 259.234 392.65 259.081C387.315 258.833 381.945 259.634 376.633 258.562C376.169 258.479 375.692 258.528 375.255 258.704C374.077 259.198 372.841 259.128 371.639 259.057C369.237 258.916 366.999 259.587 364.761 260.294C360.687 261.577 356.847 266.394 357.448 271.164C357.742 273.472 357.978 275.804 358.449 278.077C359.25 281.939 360.722 285.614 362.077 289.312C363.49 293.187 365.374 296.873 366.481 300.866C361.724 301.325 356.965 301.714 352.266 302.596C350.511 302.926 348.781 303.315 347.214 304.21C345.188 305.376 345.011 307.178 346.79 308.721C347.756 309.557 348.946 309.792 350.181 309.886C352.172 310.028 354.127 309.757 356.035 309.286C357.306 308.98 358.131 309.274 358.955 310.263C360.275 311.842 361.747 313.302 363.407 314.539C364.703 315.517 365.963 315.587 367.235 314.539L370.273 312.065C370.827 312.36 370.944 312.902 371.121 313.444C372.122 316.54 372.852 319.674 373.394 322.889C373.854 325.633 373.783 328.224 373.253 330.873C373.053 331.91 372.817 332.911 371.521 333.099L371.51 333.123ZM552.406 394.8C549.885 404.339 544.268 412.206 538.686 420.085C536.059 423.807 532.68 426.786 529.064 429.542C520.173 436.314 510.114 440.589 499.457 443.604C485.265 447.631 470.803 448.844 456.164 447.066C444.823 445.677 434.27 441.896 424.684 435.56C419.725 432.286 415.05 428.67 410.504 424.855C409.55 424.066 408.761 423.171 408.16 422.075C406.629 419.272 405.133 416.458 404.404 413.313L411.305 411.547C414.449 411.571 417.335 410.263 420.397 409.863C421.421 409.733 422.717 408.626 423.435 409.874C424.26 411.311 424.696 413.065 423.577 414.679C423.047 415.445 422.375 416.116 421.775 416.835C420.62 418.225 420.703 418.648 422.446 418.978C425.402 419.531 428.37 419.979 431.338 420.462C451.076 423.665 471.557 417.93 486.09 408.543C485.348 406.894 484.37 407.424 483.263 408.155C478.557 411.252 473.49 413.763 468.176 415.633C457.059 419.555 445.635 420.367 433.999 419.084C430.832 418.743 427.675 418.201 424.342 417.73C424.743 416.01 426.002 414.703 425.79 412.936C425.602 411.335 425.107 409.827 424.719 408.284C430.019 406.706 435.46 405.716 440.842 404.493C457.73 400.629 474.63 396.849 491.542 393.045C492.367 392.856 493.203 392.75 494.027 392.609C493.333 398.733 496.017 403.421 500.622 407.024C509.243 413.76 519.089 416.87 530.029 416.104C534.27 415.81 537.944 413.902 541.053 410.982C545.87 406.447 548.99 400.829 551.24 394.682C551.334 394.434 551.511 394.211 551.652 393.987C551.911 394.258 552.159 394.529 552.418 394.788L552.406 394.8ZM504.356 369.726C497.666 371.587 490.965 373.412 484.276 375.297C449.934 384.965 415.58 394.658 381.238 404.339C376.268 405.74 371.298 407.165 366.34 408.579C365.892 408.708 365.433 408.826 364.973 408.932C362.937 409.403 361.453 408.826 360.675 407.248C359.839 405.563 360.44 403.421 362.065 402.243C363.007 401.56 364.137 401.336 365.209 401.03C379 397.002 392.803 393.033 406.606 388.994C410.834 387.757 415.121 386.732 419.242 385.13C419.372 385.177 419.478 385.154 419.572 385.059C420.232 385.059 420.891 385.048 421.374 384.495C426.438 383.459 431.326 381.786 436.284 380.349C452.889 375.568 469.472 370.704 486.066 365.875C493.097 363.826 500.128 361.765 507.17 359.739C508.065 359.48 508.913 358.985 509.902 359.15C508.348 362.813 506.888 366.534 504.379 369.703L504.356 369.726Z" fill="white"/>
<path d="M366.482 300.878C365.375 296.885 363.502 293.199 362.077 289.324C360.723 285.626 359.251 281.963 358.45 278.089C357.979 275.815 357.743 273.484 357.449 271.176C356.848 266.406 360.688 261.589 364.763 260.306C367.001 259.599 369.238 258.928 371.64 259.069C372.854 259.14 374.079 259.21 375.256 258.716C375.693 258.54 376.17 258.491 376.634 258.574C381.945 259.646 387.316 258.845 392.651 259.092C395.924 259.246 399.199 260.176 402.45 259.575C405.547 258.998 408.609 259.14 411.706 259.128C409.28 262.225 406.088 264.498 403.155 267.03C402.132 267.101 401.095 267.148 400.07 267.254C396.619 267.631 393.169 268.019 389.718 268.407C388.705 268.219 387.705 268.007 386.692 267.831C383.205 267.254 379.79 266.206 376.174 266.394C374.373 266.489 372.983 267.089 371.652 268.266C369.402 270.245 368.872 272.836 368.766 275.592C368.449 283.4 370.05 290.984 371.546 298.569C370.027 299.723 368.743 301.408 366.459 300.866L366.482 300.878Z" fill="#00A0FF"/>
<path d="M371.557 298.581C379.106 294.188 386.172 289.113 392.685 283.294C393.027 283 393.215 282.529 393.474 282.141C394.146 282.164 394.888 281.457 395.571 282.553C394.911 283.859 393.439 284.519 392.438 285.614C385.642 292.056 377.575 296.744 369.874 301.926C369.049 302.48 368.189 302.668 367.247 302.762C362.483 303.247 357.721 303.75 352.961 304.269C351.183 304.469 349.417 304.799 347.885 305.8C346.873 306.46 346.931 307.155 348.015 307.638C349.629 308.344 351.324 308.25 353.008 308.074C354.775 307.885 356.73 307.072 358.237 307.591C359.745 308.121 360.793 309.958 362.042 311.217C365.88 315.069 365.386 314.245 368.566 311.159C369.98 309.793 371.416 308.992 373.406 308.651C380.154 307.508 386.867 306.106 393.592 304.834C396.007 304.375 398.279 303.587 400.446 302.385C403.886 300.477 407.442 298.757 410.634 296.414C413.801 294.271 415.875 291.126 417.806 287.982C420.745 283.2 423.392 278.245 425.732 273.143C426.049 272.459 426.297 271.741 426.897 271.258C427.369 270.881 427.746 271.081 428.052 271.529C427.675 271.552 427.534 271.776 427.557 272.118C427.357 274.05 426.203 275.746 426.226 277.735C424.178 285.697 422.128 293.658 420.09 301.62C419.254 304.881 418.383 308.144 417.688 311.441C417.253 313.491 416.416 315.128 414.496 316.106C414.473 314.963 414.779 313.879 415.109 312.808C415.768 312.336 415.757 311.689 415.556 311.005C415.604 310.864 415.639 310.723 415.686 310.57C416.322 310.088 416.346 309.452 416.145 308.757C416.193 308.615 416.228 308.462 416.275 308.321C416.899 307.85 416.923 307.214 416.746 306.519L422.01 288.147C422.116 287.782 422.34 287.428 422.328 287.075C422.293 286.321 423.353 285.296 422.293 284.872C421.304 284.484 421.044 285.779 420.691 286.439C417.559 292.233 413.295 296.967 407.819 300.689C402.743 304.151 397.067 305.883 391.166 307.096C386.856 307.979 382.534 308.792 378.223 309.64C376.48 309.923 374.749 310.264 373.006 310.453C371.792 310.582 370.897 311.053 370.274 312.077L367.235 314.551C365.963 315.587 364.703 315.517 363.408 314.551C361.747 313.302 360.275 311.853 358.956 310.276C358.131 309.287 357.307 308.992 356.035 309.298C354.127 309.77 352.172 310.041 350.182 309.899C348.946 309.805 347.756 309.569 346.79 308.733C345.011 307.19 345.188 305.388 347.214 304.222C348.781 303.328 350.511 302.939 352.266 302.609C356.965 301.726 361.735 301.337 366.481 300.878C368.766 301.419 370.05 299.747 371.569 298.581H371.557ZM423.106 284.048C423.789 283.294 423.789 282.376 423.918 281.092C423.436 281.681 423.153 281.929 422.988 282.223C422.776 282.612 422.635 283.036 422.47 283.447C422.364 283.824 421.834 284.26 422.423 284.578C422.799 284.79 423.011 284.389 423.117 284.036L423.106 284.048ZM481.06 324.573C475.054 326.752 469.048 328.895 463.053 331.098C449.474 336.103 435.695 340.531 421.904 344.889C421.339 345.065 420.715 345.618 420.102 344.924C420.656 343.758 421.551 343.11 422.811 342.698C432.703 339.506 442.597 336.339 452.443 332.993C460.863 330.132 469.33 327.399 477.61 324.126C479.978 323.195 479.989 323.136 478.647 321.005C477.857 319.744 477.033 318.507 476.232 317.26C475.384 315.646 474.583 313.997 473.324 312.631C472.146 311.606 471.992 310.029 471.215 308.768C465.81 299.912 464.891 290.042 464.879 279.985C464.879 278.301 465.48 276.652 465.303 274.933C465.397 274.473 465.444 274.014 465.586 273.578C465.833 272.789 466.328 272.53 467.045 273.06C467.941 273.72 468.895 274.332 469.672 275.11C472.381 277.771 475.49 280.032 477.787 283.118C478.046 283.47 478.493 283.683 478.859 283.965C480.53 285.873 482.215 287.77 483.887 289.678C483.687 289.878 483.487 290.078 483.275 290.278C480.683 287.699 478.105 285.108 475.502 282.541C473.358 280.433 471.203 278.324 468.647 276.71C466.892 275.604 466.657 275.722 466.493 277.747C466.21 281.245 466.728 284.695 467.104 288.147C467.517 291.974 467.564 295.99 469.001 299.499C472.369 307.755 476.809 315.481 481.708 322.936C481.767 323.584 481.484 324.09 481.084 324.561L481.06 324.573Z" fill="#23221F"/>
<path d="M512.354 352.072C513.331 349.093 512.283 346.184 511.965 343.264C511.576 339.765 510.41 336.433 509.303 333.099C507.725 327.317 505.217 321.935 502.296 316.717C502.107 316.388 501.836 316.141 501.436 316.082C501.648 315.246 501.13 314.645 500.741 314.021C496.231 306.778 491.72 299.523 485.784 293.293C484.89 292.351 484.112 291.291 483.276 290.278C483.476 290.077 483.677 289.877 483.889 289.677C483.971 289.712 484.077 289.736 484.136 289.807C491.638 297.108 498.056 305.247 503.167 314.386C503.45 314.892 503.768 315.01 504.216 315.116C504.145 316.223 504.793 317.082 505.229 318.001C507.525 322.736 509.433 327.623 510.905 332.687C511.765 335.644 512.13 338.729 513.319 341.579C513.79 344.817 514.532 348.009 514.673 351.318C514.956 357.761 514.226 364.038 512.33 370.198C512.13 370.834 512.001 371.575 511.07 371.328C510.116 371.069 510.139 370.41 510.316 369.562C511.306 364.874 512.154 360.175 512.483 355.382C512.566 354.263 512.896 353.156 512.342 352.072H512.354ZM400.942 269.079C394.76 269.444 388.612 270.21 382.465 271.011C379.92 271.34 377.659 272.565 375.634 274.144C374.114 275.333 373.738 277.135 373.337 278.854C372.772 281.269 372.925 283.694 373.726 286.074C374.256 287.669 374.79 289.263 375.328 290.855C373.867 290.183 373.054 289.465 372.654 288.206C371.476 284.448 371.252 280.668 372.03 276.817C372.336 275.274 373.149 274.132 374.432 273.166C377.506 270.857 380.78 269.244 384.737 269.161C386.409 269.126 388.07 268.679 389.742 268.432C393.193 268.043 396.644 267.655 400.094 267.278C401.119 267.172 402.156 267.125 403.18 267.054C402.745 268.067 401.779 268.503 400.954 269.091L400.942 269.079Z" fill="#23221F"/>
<path d="M504.203 315.128C504.485 314.716 504.933 314.539 505.38 314.386C508.454 318.814 510.162 323.842 511.563 328.942C512.694 333.052 513.707 337.233 513.318 341.579C512.117 338.729 511.764 335.644 510.904 332.687C509.431 327.623 507.524 322.736 505.227 318.001C504.78 317.082 504.132 316.223 504.214 315.116L504.203 315.128Z" fill="#00A0FF"/>
<path d="M516.145 275.522C512.188 271.564 508.231 267.596 504.273 263.638C506.181 263.45 508.007 263.874 509.786 264.439C512.541 265.322 514.449 267.089 515.062 270.045C515.438 271.87 516.216 273.602 516.145 275.522Z" fill="white"/>
<path d="M299.27 267.089C300.023 267.749 299.599 268.432 299.34 269.127C298.445 271.494 297.597 273.885 296.678 276.252C296.242 277.359 296.384 277.983 297.668 278.289C301.589 279.208 305.5 280.209 309.409 281.175C310.175 281.823 311.176 281.764 312.059 282.011C313.496 282.4 315.062 283.377 316.381 282.871C317.759 282.353 317.748 280.35 318.501 279.078C318.69 278.76 318.819 278.395 318.984 278.065C321.834 272.236 325.049 266.642 329.183 261.613C329.595 261.118 329.878 260.094 330.891 260.836C330.643 261.825 329.772 262.591 329.854 263.697C329.312 263.991 329.206 264.592 328.947 265.075C326.254 270.305 323.977 275.739 322.14 281.328C321.115 284.437 320.209 284.272 324.402 285.025C324.496 285.037 324.59 285.025 324.684 285.025C328.606 286.568 332.752 287.358 336.826 288.347C339.3 288.948 340.395 290.196 340.949 292.586C343.539 303.693 346.272 314.775 348.956 325.868C349.133 326.587 349.404 327.282 349.64 328C351.418 335.467 353.173 342.934 354.975 350.401C355.175 351.237 355.34 352.05 355.351 352.897C355.398 355.771 354.009 356.89 351.265 356.124C349.274 355.57 347.32 354.923 345.353 354.322C330.561 349.847 315.757 345.36 300.965 340.884C293.698 338.694 286.444 336.468 279.154 334.36C277.517 333.889 276.669 332.84 276.033 331.44C276.304 328.872 275.421 326.457 274.985 323.996C273.489 315.446 271.9 306.896 270.333 298.357C270.298 298.18 270.168 298.028 270.074 297.875C269.98 297.204 269.874 296.532 269.78 295.861C268.602 289.23 267.412 282.612 266.234 275.981C266.105 275.251 265.928 274.497 265.963 273.755C266.022 272.071 267.2 270.987 268.884 271.022C269.52 271.034 270.168 271.234 270.804 271.399C278.059 273.26 285.302 275.145 292.545 277.006C294.593 277.535 294.605 277.524 295.359 275.557C296.195 273.366 296.973 271.164 297.833 268.997C298.127 268.255 298.174 267.266 299.281 267.148L299.27 267.089ZM324.708 270.987C323.153 272.106 322.435 273.755 321.904 275.522C320.782 277.887 319.671 280.258 318.572 282.635C318.36 283.095 318.407 283.589 318.949 283.801C319.503 284.025 319.844 283.66 320.021 283.201C320.844 281.022 321.645 278.819 322.458 276.629C323.471 274.851 324.178 272.942 324.684 270.964C324.708 270.787 325.155 270.716 324.826 270.434C324.79 270.622 324.743 270.799 324.708 270.987ZM308.691 294.565C308.49 292.881 308.137 291.432 306.983 290.338C305.217 288.665 302.955 289.113 301.954 291.314C301.071 293.27 301.624 296.085 303.179 297.545C305.052 299.299 307.419 298.746 308.302 296.309C308.526 295.696 308.585 295.036 308.679 294.553L308.691 294.565Z" fill="#23221F"/>
<path d="M420.079 368.949C420.115 370.822 418.843 372.576 416.675 373.294C412.754 374.59 408.809 375.792 404.851 376.981C390.483 381.303 376.103 385.614 361.724 389.924C361.359 390.03 361.006 390.124 360.641 390.23C358.415 390.843 356.942 390.313 356.13 388.617C355.329 386.932 355.953 384.813 357.602 383.635C358.462 383.023 359.487 382.811 360.476 382.504C375.986 377.7 391.485 372.917 406.995 368.125C409.774 367.265 412.53 366.322 415.334 365.569C417.783 364.91 420.056 366.605 420.091 368.961L420.079 368.949Z" fill="white"/>
<path d="M501.413 316.094C501.814 316.153 502.096 316.399 502.272 316.729C505.193 321.935 507.702 327.329 509.28 333.111C507.879 333.205 506.842 332.263 505.629 331.816C497.597 328.848 489.341 326.622 481.039 324.573C481.439 324.113 481.721 323.595 481.663 322.948C486.338 320.851 491.284 319.462 496.077 317.695C497.809 317.059 499.517 316.27 501.39 316.082L501.413 316.094ZM421.364 384.519C420.869 385.072 420.221 385.071 419.562 385.083C419.998 384.377 420.704 384.531 421.364 384.519Z" fill="#00A0FF"/>
<path d="M398.739 233.124C394.134 233.148 389.552 233.831 384.936 233.607C378.451 233.302 371.994 232.558 365.61 231.381C364.762 231.228 364.02 230.839 363.243 230.486C362.524 229.897 361.77 229.332 361.087 228.707C358.143 226.07 356.73 222.713 356.6 218.803C356.53 216.448 357.283 215.811 359.616 216.212C360.263 216.318 360.899 216.471 361.535 216.601C363.207 216.942 364.409 216.318 365.304 214.881C366.211 213.445 366.67 211.831 367.271 210.265C367.53 210.43 367.8 210.583 368.059 210.748C367.906 211.572 367.8 212.42 367.612 213.233C366.682 217.095 364.526 218.532 360.616 217.955C360.157 217.885 359.698 217.755 359.227 217.696C358.544 217.602 358.096 217.92 358.167 218.615C358.579 222.571 359.828 226.129 363.078 228.719C363.714 229.225 364.456 229.343 365.174 229.461C375.962 231.251 386.762 232.806 397.738 231.452C406.582 230.356 415.109 228.296 422.787 223.502C425.263 221.96 427.604 220.211 429.783 218.273L430.807 218.45C430.807 219.757 430.807 221.065 430.796 222.371H429.948C429.677 221.806 429.795 220.641 428.606 221.524C428.076 221.912 427.534 222.277 426.992 222.654C421.422 226.435 415.368 229.108 408.902 230.945C405.558 231.899 402.095 232.276 398.727 233.124H398.739Z" fill="#23221F"/>
<path d="M367.837 207.227C368.131 207.215 368.414 207.191 368.708 207.179C368.885 208.44 368.437 209.593 368.072 210.771C367.813 210.606 367.542 210.453 367.283 210.288C367.472 209.264 367.66 208.251 367.837 207.227ZM478.671 196.909C477.964 197.38 478.282 199.1 476.951 198.664C475.62 198.229 476.598 197.051 476.645 196.226C476.716 194.837 477.375 193.53 477.234 192.093C477.375 191.751 477.587 191.433 477.658 191.08C479.036 183.507 480.214 175.911 480.968 168.256C481.533 162.461 482.015 156.632 481.568 150.826C481.38 148.376 481.957 146.539 483.346 144.643C485.572 141.616 487.634 138.484 489.682 135.339C490.601 133.937 491.473 132.466 491.908 130.817C492.403 128.979 491.908 128.261 490.036 128.437C486.22 128.791 482.628 129.792 480.19 133.09C479.672 133.796 478.989 134.255 478.329 134.773C478.023 132.536 479.531 131.253 480.956 129.969C481.498 129.486 482.204 129.191 482.84 128.803C483.356 128.601 483.875 128.405 484.395 128.214C486.397 127.483 488.411 126.766 490.589 126.907C492.792 127.06 493.557 127.86 493.581 130.016C493.581 130.475 493.51 130.934 493.475 131.406C491.637 135.492 489.105 139.167 486.609 142.864C483.723 145.833 482.722 149.295 482.687 153.511C482.604 164.582 481.98 175.652 480.591 186.652C480.155 190.102 479.331 193.471 478.671 196.874V196.909Z" fill="#23221F"/>
<path d="M457.495 87.9008C458.166 88.1008 458.06 88.6197 457.978 89.1256C457.495 88.8427 457.412 88.4077 457.495 87.9008Z" fill="white"/>
<path d="M370.264 312.09C370.876 311.053 371.782 310.582 372.995 310.464C374.75 310.288 376.482 309.934 378.213 309.652C378.472 311.101 379.461 312.125 380.285 313.243C382.547 316.329 384.655 319.52 386.268 322.995C387.564 325.81 388.494 328.754 387.316 331.887C386.904 332.994 386.645 334.324 384.973 334.183C384.997 333.629 385.009 333.064 385.056 332.511C385.291 329.79 385.361 327.058 384.973 324.35C384.867 323.631 385.079 322.335 383.866 322.441C382.417 322.583 383.265 323.749 383.36 324.444C383.89 328.271 384.325 332.099 383.36 335.926C379.308 335.432 375.422 334.301 371.535 333.135C372.83 332.947 373.066 331.946 373.266 330.909C373.784 328.259 373.867 325.669 373.407 322.924C372.866 319.697 372.135 316.565 371.135 313.479C370.958 312.937 370.841 312.396 370.287 312.102L370.264 312.09Z" fill="#00A0FF"/>
<path d="M383.336 335.926C384.314 332.098 383.878 328.271 383.336 324.443C383.242 323.76 382.394 322.583 383.842 322.442C385.067 322.324 384.855 323.63 384.95 324.349C385.326 327.058 385.267 329.79 385.032 332.51C384.985 333.064 384.973 333.629 384.95 334.183C384.844 334.254 384.82 334.348 384.879 334.466C384.561 334.69 384.502 334.996 384.561 335.349C383.866 336.503 384.855 336.68 385.549 337.021C384.808 336.644 384.066 336.28 383.324 335.915L383.336 335.926Z" fill="#23221F"/>
<path d="M415.557 311.005C415.745 311.688 415.757 312.336 415.109 312.807C414.897 312.113 414.909 311.476 415.557 311.005ZM416.746 306.519C416.923 307.202 416.899 307.838 416.275 308.321C416.063 307.626 416.063 306.978 416.746 306.519ZM416.145 308.757C416.346 309.452 416.322 310.088 415.686 310.57C415.474 309.876 415.474 309.228 416.145 308.757Z" fill="#00E25A"/>
<path d="M384.583 335.361C384.513 335.008 384.583 334.69 384.901 334.478C385.055 334.866 384.901 335.149 384.583 335.361Z" fill="#00A0FF"/>
<path d="M456.058 191.928C454.974 191.657 454.244 190.88 453.49 190.138C453.938 190.138 454.397 190.208 454.668 189.678C455.705 187.641 456.953 185.698 457.401 183.401C460.615 176.983 462.335 170.128 463.631 163.121C466.021 150.213 468.553 137.318 471.05 124.434C471.097 124.175 471.321 123.951 471.474 123.715C472.486 124.222 472.169 125.341 472.592 126.117C471.604 128.084 471.451 130.251 471.133 132.372C471.062 132.807 470.991 133.242 470.909 133.678C469.99 138.554 469.036 143.418 468.141 148.294C466.068 159.518 464.49 170.859 460.121 181.517C459.944 181.587 459.673 181.611 459.614 181.74C458.378 184.638 457.059 187.477 455.516 190.22C455.068 191.021 455.775 191.398 456.058 191.94V191.928Z" fill="#23221F"/>
<path d="M457.401 183.401C456.953 185.698 455.704 187.64 454.668 189.678C454.397 190.208 453.95 190.138 453.491 190.138C452.949 189.313 451.818 189.337 451.23 188.583C452.725 188.453 453.079 187.087 453.703 186.134C454.621 184.72 455.693 183.672 457.389 183.401H457.401ZM287.305 140.98C292.533 140.355 297.656 145.867 297.091 150.684C296.867 152.534 296.161 154.146 295.042 155.548C294.029 156.832 293.947 158.045 294.642 159.458C295.054 160.294 295.372 161.201 295.631 162.096C296.137 163.781 295.796 164.487 294.206 165.241C293.782 165.441 293.323 165.571 292.875 165.724C288.435 167.195 287.799 166.877 286.728 162.344C286.315 160.6 285.738 159.376 283.712 158.846C278.601 157.527 276.964 154.394 277.447 150.237C278.106 144.667 281.781 141.133 286.739 140.98H287.305ZM274.456 146.126C271.994 146.15 271.417 145.691 271.594 143.83C271.688 142.77 271.959 141.698 273.019 141.251C274.091 140.803 274.692 141.793 275.41 142.358C275.558 142.475 275.696 142.605 275.821 142.747C276.434 143.536 277.588 143.972 277.517 145.173C277.482 145.75 276.186 146.091 274.468 146.114L274.456 146.126ZM283.865 134.785C283.841 136.882 282.993 138.201 281.946 138.13C280.945 138.071 279.496 135.881 279.637 134.632C279.755 133.619 281.275 132.135 282.311 132.041C282.828 131.994 283.253 132.171 283.394 132.689C283.606 133.501 283.771 134.314 283.877 134.785H283.865ZM294.112 134.585C295.749 134.573 297.079 136.305 296.584 137.671C296.301 138.448 295.867 139.189 295.407 139.884C295.007 140.485 294.347 140.615 293.664 140.438C292.91 140.238 292.58 139.625 292.651 138.954C292.769 137.753 293.016 136.564 293.287 135.386C293.393 134.915 293.782 134.62 294.112 134.585ZM269.568 231.569C269.568 232.983 270.145 234.279 270.463 235.62C270.969 237.799 270.51 238.73 268.355 239.378C266.683 239.884 264.963 240.179 263.255 240.567C255.164 240.556 247.062 240.732 238.983 240.473C231.104 240.214 223.178 240.061 215.381 238.789C209.858 237.894 210.353 238.023 212.343 233.584C213.604 230.745 214.851 227.907 216.653 225.351C219.315 221.547 221.729 220.912 225.805 222.984C226.982 223.584 228.112 224.244 229.267 224.88C233.248 227.059 235.779 226.317 237.829 222.336C239.737 218.638 240.738 214.61 241.903 210.641C242.48 208.663 243.046 206.673 243.658 204.694C243.847 204.07 244.106 203.446 244.459 202.892C245.095 201.914 245.884 201.926 246.332 202.998C246.838 204.199 247.215 205.483 247.486 206.755C248.651 212.267 249.735 217.79 250.901 223.302C251.172 224.586 251.549 225.869 252.091 227.047C252.821 228.601 253.928 228.684 254.788 227.153C256.212 224.609 257.449 221.971 258.651 219.31C259.122 218.273 259.628 217.26 260.288 216.365C261.548 214.645 262.902 214.692 264.091 216.506C265.175 218.167 265.952 219.993 266.553 221.876C267.578 225.092 268.555 228.318 269.556 231.546L269.568 231.569ZM493.474 131.429C493.509 130.97 493.58 130.511 493.58 130.039C493.556 127.872 492.791 127.071 490.588 126.93C488.398 126.777 486.396 127.507 484.394 128.237C483.875 128.426 483.357 128.638 482.839 128.826C478.729 125.434 477.386 120.983 478.505 115.942C479.553 111.208 482.627 107.992 487.338 106.591C494.44 104.483 501.695 108.664 503.508 115.813C505.31 122.914 500.835 129.886 493.486 131.429H493.474ZM460.122 181.505C460.558 182.317 461.322 182.329 462.076 182.282C465.233 182.082 467.906 183.342 470.426 185.038C468.836 187.57 468.86 190.562 468.153 193.341C466.246 200.854 465.256 208.592 462.642 215.953C461.346 219.604 459.686 223.054 457.86 226.447C457.413 227.295 457.048 228.413 455.811 228.589C455.587 221.912 456.094 215.246 456.094 208.568C456.094 207.356 456.624 206.991 457.719 206.779C461.899 205.931 463.042 204.082 461.888 199.984C460.945 196.603 458.909 193.953 456.046 191.94C455.764 191.398 455.057 191.021 455.505 190.22C457.048 187.476 458.379 184.638 459.604 181.74C459.651 181.622 459.933 181.587 460.11 181.516L460.122 181.505ZM411.306 411.547C409.009 412.136 406.7 412.725 404.404 413.313C402.708 410.263 402.991 406.965 403.309 403.715C403.462 402.078 404.393 401.76 405.523 402.961C407.902 405.506 409.751 408.426 411.306 411.547ZM455.233 126.188C455.233 131.017 451.536 134.797 446.743 134.844C441.937 134.891 438.145 131.17 438.087 126.353C438.028 121.395 441.855 117.462 446.719 117.497C451.418 117.532 455.222 121.418 455.233 126.188ZM461.181 82.0349C461.205 77.2185 465.009 73.415 469.79 73.415C474.466 73.415 478.341 77.3715 478.341 82.1298C478.341 86.8291 474.372 90.7865 469.696 90.7386C464.903 90.6925 461.157 86.8632 461.181 82.0349Z" fill="white"/>
<path d="M330.88 260.824C329.855 260.07 329.584 261.094 329.173 261.6C325.039 266.63 321.824 272.236 318.974 278.053C318.809 278.395 318.679 278.748 318.491 279.066C317.737 280.338 317.749 282.328 316.371 282.858C315.064 283.353 313.486 282.375 312.049 281.998C311.165 281.763 310.164 281.81 309.398 281.163C309.929 280.857 310.176 280.338 310.364 279.808C313.003 272.636 317.419 266.642 322.46 260.988C324.273 258.951 325.922 256.795 328.243 255.3C328.796 254.946 329.325 254.534 329.914 254.287C330.821 253.899 331.386 254.252 331.422 255.252C331.504 257.137 331.516 259.01 330.88 260.824Z" fill="#00A0FF"/>
<path d="M324.672 285.014C324.578 285.014 324.484 285.025 324.39 285.014C320.208 284.261 321.103 284.437 322.128 281.316C323.971 275.729 326.246 270.295 328.935 265.063C329.183 264.58 329.289 263.992 329.842 263.686C330.101 265.959 329.265 268.043 328.7 270.164C327.557 274.415 326.568 278.701 324.896 282.788C324.602 283.519 324.614 284.261 324.672 285.002V285.014Z" fill="white"/>
<path d="M428.053 271.529C427.891 271.728 427.726 271.924 427.558 272.118C427.546 271.765 427.688 271.541 428.053 271.529ZM308.693 294.577C308.587 295.06 308.528 295.719 308.316 296.332C307.432 298.769 305.065 299.323 303.193 297.568C301.626 296.108 301.073 293.293 301.968 291.338C302.969 289.136 305.23 288.677 306.997 290.361C308.151 291.456 308.504 292.904 308.704 294.589L308.693 294.577Z" fill="#00E25A"/>
<path d="M324.708 270.999C324.743 270.81 324.79 270.634 324.826 270.445C325.155 270.728 324.708 270.787 324.684 270.975L324.708 270.999Z" fill="#00A0FF"/>
<path d="M13.77 343.758C13.641 343.57 13.511 343.381 13.37 343.181C13.511 342.427 13.3461 341.697 13.2041 340.955C12.0272 334.772 11.4503 328.53 11.3323 322.241C11.2494 317.448 11.6853 312.678 12.4042 307.956C13.617 299.994 15.9726 292.421 20.671 285.756C22.1788 283.612 23.7925 281.54 25.3583 279.443C26.1002 279.019 26.6661 278.418 27.0781 277.676C29.2567 275.769 31.3414 273.755 33.6261 271.976C36.0997 270.045 38.2895 267.678 41.281 266.453C40.963 268.267 39.6912 269.598 38.9143 271.175C38.7023 271.611 38.5134 272.082 39.0553 272.377C39.4673 272.601 40.0092 272.671 40.3741 272.294C40.7631 271.894 41.058 271.411 41.34 270.928C42.9648 268.187 44.5783 265.439 46.1803 262.684C46.4512 262.214 46.5692 261.601 47.2881 261.589C47.5821 262.167 48.041 262.39 48.6769 262.249C50.3146 261.884 52.0334 261.719 53.5891 261.13C57.6166 259.622 61.762 258.35 65.0005 255.242C70.7947 249.67 72.8434 242.463 73.2674 234.891C73.7392 226.388 73.6913 217.837 71.7135 209.416C70.1588 202.786 68.1801 196.367 64.3176 190.691C63.1748 189.007 62.1979 187.123 60.2902 186.075C62.6329 183.86 65.4125 183.177 68.581 183.589C73.5153 184.225 77.8966 186.416 82.383 188.335C83.8908 188.983 84.7147 189.961 85.2806 191.492C88.4841 200.125 91.7576 208.733 95.5031 217.142C98.7066 224.315 102.499 231.122 108.281 236.562C109.73 237.929 110.118 239.236 109.423 240.991C108.799 241.038 108.363 240.685 107.963 240.273C106.655 238.918 105.585 237.387 104.583 235.797C103.688 234.373 102.805 232.936 101.91 231.51C101.65 231.098 101.297 230.78 100.755 231.063C100.202 231.357 99.8724 231.758 100.225 232.406C100.496 232.9 100.744 233.407 101.026 233.89C103.111 237.469 105.585 240.72 108.988 243.169C109.058 246.067 108.281 248.894 108.399 251.802C108.611 257.055 110.378 259.304 115.465 260.836C116.678 261.201 118.115 260.777 119.14 261.837C119.211 262.826 118.516 263.555 118.233 264.427C117.774 265.841 117.314 267.242 117.444 268.773C117.503 269.527 117.974 269.644 118.563 269.703C117.927 271.27 117.762 272.978 117.738 274.603C117.715 277.064 117.88 279.608 119.717 281.599C120.035 282.894 120.847 283.8 121.931 284.483C122.472 285.52 123.438 286.109 124.333 286.78C127.748 289.325 131.635 290.902 135.616 292.28C142.423 294.648 149.489 295.967 156.461 297.65C155.825 298.604 156.261 298.863 157.215 299.099C164.046 300.783 170.959 301.985 177.966 302.597C181.653 308.391 183.56 314.61 182.418 321.546C181.758 325.55 180.84 329.437 177.907 332.499C176.506 331.086 174.587 331.486 172.902 331.062C167.061 329.602 161.478 327.388 156.037 324.879C149.218 321.723 142.34 318.743 135.133 316.624C130.834 315.352 126.489 314.68 121.895 315.375C116.926 316.129 112.922 318.378 109.294 321.617C102.404 327.765 97.9758 335.785 92.8295 343.252C89.426 348.186 86.5404 353.485 81.9121 357.49C80.1453 359.021 78.7675 361.023 76.7888 362.307C71.2186 365.934 65.1415 368.337 58.5225 369.055C56.1208 369.314 53.6711 369.208 51.2565 369.667C49.4548 370.009 47.7821 369.043 45.9683 369.102C42.4358 369.196 39.1023 368.219 35.9228 366.782C29.9636 364.097 25.1353 360.081 21.6249 354.498C19.6231 351.331 17.4325 348.28 15.3598 345.159C14.9358 344.524 14.6529 343.805 13.758 343.746L13.77 343.758Z" fill="#00E25A"/>
<path d="M68.7695 100.302C73.1979 96.0856 77.5903 91.8462 82.0776 87.6888C83.1725 86.6751 82.9725 85.8631 82.3836 84.7443C79.333 78.9031 76.3424 73.049 73.3269 67.1968C71.8671 64.3582 70.3473 61.5317 68.9345 58.6701C68.2516 57.2803 68.4396 55.9025 69.5584 54.7597C70.5833 53.7238 71.844 53.5118 73.2099 53.9827C73.9158 54.2297 74.6107 54.5357 75.3056 54.8186C81.1117 57.2563 86.9179 59.7179 92.736 62.1206C94.5378 62.8625 96.3755 64.4522 98.2003 63.9343C99.861 63.4634 101.18 61.7436 102.606 60.5188C108.847 55.2195 115.066 49.8963 121.295 44.5842C121.72 44.2192 122.12 43.7953 122.603 43.5123C124.781 42.2055 127.361 43.3593 127.749 45.8799C127.902 46.8808 127.726 47.9407 127.702 48.9655C127.455 58.0931 127.266 67.2079 126.937 76.3355C126.866 78.1962 127.408 79.1851 129.092 80.057C135.534 83.3655 141.882 86.864 148.253 90.2915C150.621 91.5633 152.999 92.8001 155.343 94.1069C157.322 95.2138 157.946 96.4036 157.605 98.1823C157.275 99.89 156.144 100.714 153.835 100.879C144.167 101.597 134.509 102.304 124.84 103.011C122.532 103.176 122.497 103.188 122.497 105.377C122.497 113.28 122.638 121.183 123.121 129.073C123.121 131.417 123.121 133.749 123.086 136.093C123.051 138.365 122.308 139.531 120.648 140.049C119.069 140.544 117.632 139.92 116.455 138.047C114.465 134.879 112.545 131.652 110.59 128.449C110.849 127.036 110.06 125.928 109.542 124.727C108.836 123.055 107.634 121.583 107.41 119.616C108.965 119.38 110.354 119.168 111.732 118.956C114.453 118.556 115.313 117.508 114.983 114.776C114.618 111.808 113.428 109.158 111.52 106.885C109.366 104.306 106.574 103.635 103.394 104.93C101.404 105.743 99.496 106.744 97.5524 107.651C97.0934 107.721 96.6225 107.757 96.1635 107.863C85.3991 110.301 74.6347 112.738 63.8702 115.165C63.0574 115.353 62.2215 115.518 61.3856 115.553C59.9018 115.636 58.865 114.835 58.3 113.539C57.7812 112.35 57.8871 111.136 58.759 110.113C59.3009 109.477 59.9248 108.899 60.5257 108.31C63.2583 105.625 66.0019 102.952 68.7465 100.266L68.7695 100.302Z" fill="#FF9D0A"/>
<path d="M152.115 335.667C143.777 332.97 135.274 331.592 126.5 332.487C124.675 332.675 122.814 333.017 121.165 333.983C121.101 333.976 121.036 333.985 120.976 334.009C120.916 334.034 120.864 334.074 120.823 334.124C119.657 334.195 118.715 334.854 117.762 335.396C113.875 337.575 110.86 340.743 107.975 344.076C107.397 344.748 107.091 345.748 106.007 345.877C105.772 345.054 106.208 344.406 106.62 343.794C109.576 339.459 112.402 335.055 116.242 331.357C119.469 328.248 122.826 325.786 127.454 325.586C127.937 325.562 128.467 325.479 128.443 324.867C128.43 324.63 128.358 324.4 128.235 324.197C128.112 323.993 127.94 323.823 127.736 323.702C127.018 323.278 126.288 323.525 125.558 323.702C122.684 324.397 120.105 325.68 117.726 327.423C113.828 330.309 110.637 333.83 107.986 337.87C101.238 348.151 94.537 358.468 88.153 368.984C87.859 369.467 87.659 370.009 86.9522 369.974C83.4777 373.966 79.0973 376.769 74.5399 379.337C70.4526 381.633 66.0132 383.046 61.5609 384.389C55.4967 385.532 49.4417 385.814 43.3895 384.354C42.6236 383.435 41.8107 382.54 41.0928 381.586C40.079 380.243 39.1611 378.819 38.1482 377.476C37.6303 376.781 37.1824 375.544 36.0166 376.404C34.9687 377.17 36.0636 377.924 36.4405 378.524C37.3354 379.913 38.5722 381.079 39.2551 382.634C36.0405 381.916 33.5319 379.96 31.0823 377.947C26.9009 374.496 23.7923 370.174 21.2947 365.405C17.7032 358.562 15.2656 351.319 13.7578 343.746C14.6527 343.817 14.9356 344.524 15.3596 345.16C17.4332 348.28 19.6349 351.331 21.6247 354.498C25.1342 360.081 29.9745 364.097 35.9226 366.782C39.1021 368.219 42.4347 369.196 45.9681 369.102C47.7818 369.055 49.4546 370.021 51.2563 369.668C53.659 369.208 56.1086 369.314 58.5223 369.055C65.1533 368.337 71.2184 365.922 76.7886 362.307C78.7673 361.023 80.1451 359.021 81.9119 357.49C86.5291 353.485 89.4258 348.186 92.8293 343.252C97.9756 335.785 102.404 327.765 109.294 321.617C112.921 318.378 116.925 316.117 121.895 315.375C126.488 314.68 130.834 315.352 135.132 316.624C142.34 318.755 149.218 321.735 156.037 324.879C161.489 327.399 167.06 329.602 172.902 331.063C174.585 331.486 176.505 331.086 177.907 332.499C176.223 334.831 173.691 335.891 171.147 336.798C169.039 337.552 166.813 337.976 164.646 338.517C163.61 338.776 162.632 338.517 161.619 338.258C158.546 337.458 155.613 336.162 152.433 335.773C152.395 335.726 152.346 335.69 152.29 335.669C152.234 335.649 152.173 335.644 152.115 335.655V335.667Z" fill="#00B616"/>
<path d="M110.613 128.473C107.503 129.238 104.336 129.592 101.156 129.651C99.5185 129.674 98.3886 130.181 97.3988 131.546C94.5722 135.398 91.5217 139.083 88.696 142.935C85.7865 146.904 84.0198 151.427 82.9599 156.22C82.6539 156.702 82.442 157.209 82.5479 157.81C81.0052 163.439 81.4171 169.127 82.124 174.815C82.4069 177.136 82.8889 179.432 83.3728 181.717C83.6198 182.906 83.4668 183.754 82.159 184.155C81.4641 183.589 81.5231 182.694 81.4051 181.917C80.2513 173.838 79.3444 165.747 80.7932 157.598C80.8761 157.127 80.9222 156.667 80.6642 156.243C80.5462 155.548 81.2171 155.148 81.3111 154.535C83.3608 148.258 86.3284 142.464 90.3208 137.2C91.8986 135.115 93.5123 133.042 95.1021 130.958C95.9859 130.004 96.8689 129.038 97.7518 128.084L97.7407 128.119C98.2826 128.049 98.8356 127.99 99.3775 127.919C102.239 127.672 105.09 127.424 107.845 127.189C108.045 126.093 107.539 125.599 107.28 125.01C106.596 123.468 105.82 121.96 105.219 120.393C104.348 118.085 104.524 117.896 106.95 117.755C108.54 117.661 110.118 117.461 111.708 117.308C112.615 117.226 113.109 116.802 112.886 115.836C112.297 113.268 111.638 110.713 110 108.581C108.186 106.226 105.879 105.743 103.323 107.227C101.556 108.263 99.6484 109.076 98.0706 110.419C97.6577 110.454 97.2928 110.56 97.0928 110.972C89.7199 114.858 83.2548 119.993 77.2487 125.716C76.7538 125.928 76.3418 126.223 76.1298 126.741C74.1041 128.166 72.5494 130.051 71.0536 131.982C65.7304 138.824 61.1371 146.138 57.0156 153.758C56.4378 154.818 55.7899 155.878 55.5899 157.115V157.174C55.295 157.362 55.2249 157.633 55.295 157.951C54.4471 159.104 54.1651 160.471 53.8591 161.825C51.2565 170.588 51.3744 179.42 53.3172 188.265C53.6582 189.784 53.5762 191.457 54.66 192.764C54.695 193.411 54.636 194.071 54.778 194.695C55.5899 198.335 56.4968 201.961 57.2746 205.601C58.7344 212.514 61.2781 219.215 61.549 226.376C61.361 227.576 61.1251 228.778 60.9961 229.991C60.4062 235.561 58.8764 240.826 56.0138 245.678C53.394 250.119 50.7993 254.575 48.2299 259.045C47.794 259.811 46.9691 260.506 47.3461 261.577H47.2631C46.5452 261.613 46.4392 262.225 46.1572 262.696C44.5554 265.452 42.9408 268.196 41.3169 270.94C41.034 271.423 40.7271 271.906 40.3511 272.306C39.9852 272.683 39.4553 272.612 39.0313 272.389C38.4783 272.094 38.6664 271.623 38.8903 271.187C39.6672 269.609 40.951 268.279 41.2579 266.465C42.1519 265.499 42.8827 264.427 43.5426 263.273C47.2171 256.831 51.0205 250.46 54.636 243.994C59.2174 235.797 60.5952 227.106 58.4285 217.896C56.0028 207.579 53.3762 197.31 51.2215 186.922C49.9137 180.598 49.7837 174.25 50.5855 167.867C50.6206 167.596 50.5855 167.301 50.5616 167.03C50.7855 165.9 50.9975 164.782 51.2205 163.651C55.166 149.884 63.6107 138.801 72.5374 128.002C72.8323 127.648 73.1033 127.283 73.3853 126.918C73.6682 126.659 73.9382 126.4 74.2212 126.141C80.0743 119.981 86.5284 114.54 93.8183 110.124C95.0901 109.359 96.315 108.511 97.5518 107.698C99.4954 106.779 101.415 105.778 103.394 104.977C106.585 103.682 109.364 104.341 111.52 106.932C113.415 109.206 114.617 111.855 114.982 114.823C115.312 117.555 114.452 118.591 111.732 119.004C110.342 119.216 108.964 119.428 107.409 119.663C107.633 121.618 108.834 123.103 109.541 124.774C110.048 125.976 110.849 127.083 110.589 128.496L110.613 128.473ZM210.423 346.902C209.764 347.055 209.104 347.22 208.457 347.373C208.069 347.491 207.68 347.609 207.303 347.727C203.946 348.045 200.578 348.292 197.198 348.28C191.262 348.257 185.386 347.609 179.427 346.879C179.474 345.406 180.298 345.194 181.487 345.3C185.232 345.642 188.977 345.972 192.723 346.231C198.364 346.619 203.993 346.596 209.54 345.289C211.637 344.806 213.568 343.958 215.288 342.639C221.447 339.377 226.276 334.666 230.103 328.884C232.458 325.315 233.789 321.382 234.473 317.188C235.91 312.772 236.392 308.168 236.957 303.598C237.299 300.972 237.793 298.357 237.746 295.696C238.488 292.669 238.441 289.559 238.63 286.498C239.006 280.539 239.631 274.568 239.407 268.585C239.513 266.536 239.701 264.498 239.713 262.448C239.737 260.624 240.231 259.363 242.128 258.633C243.67 258.044 245.048 257.019 246.438 256.077C247.333 255.476 248.24 254.806 248.452 253.416C246.685 253.675 245.036 253.911 243.399 254.158C242.799 253.828 242.234 253.864 241.716 254.347H239.442C237.393 253.711 237.107 252.564 238.582 250.907C239.937 249.388 241.292 247.857 242.67 246.303C240.856 245.031 239.218 245.702 237.84 246.632C235.05 248.516 232.93 250.954 232.706 254.547C231.045 258.904 230.103 263.473 228.902 267.961C227.536 272.047 226.158 276.122 224.827 280.221C223.873 283.129 222.342 285.65 220.234 287.864C218.679 289.489 217.207 291.185 215.7 292.845C214.251 293.964 212.932 295.225 211.695 296.567C205.772 301.325 198.54 301.62 191.486 302.456C186.999 302.985 182.476 302.632 177.978 302.585C170.97 301.973 164.057 300.772 157.226 299.087C156.272 298.852 155.837 298.581 156.473 297.638C157.474 297.073 158.463 297.438 159.464 297.674C162.549 298.404 165.624 299.264 168.803 299.57C169.204 299.606 169.604 299.629 170.004 299.664C170.676 300.065 171.43 300.088 172.172 300.194C180.227 301.349 188.259 300.889 196.303 300.1C201.744 299.57 206.796 298.227 210.859 294.306C212.532 293.246 214.004 291.939 215.488 290.631C222.142 284.766 224.509 276.781 226.452 268.585C228.16 264.156 229.079 259.505 230.232 254.923C230.503 252.745 231.339 250.801 232.67 249.058C233.519 247.951 234.355 246.833 235.203 245.714C235.533 245.466 235.863 245.231 236.192 244.983C238.123 243.9 240.208 243.535 242.387 243.747C244.459 243.947 245.178 245.089 244.341 246.998C244.011 247.751 243.446 248.41 242.952 249.081C242.257 250.024 241.527 250.954 240.75 251.979C242.116 252.332 243.188 251.897 244.259 251.873C246.344 251.814 248.393 250.518 250.512 251.637C250.395 255.523 247.957 257.655 244.789 259.246C244.117 259.575 243.446 259.917 242.752 260.176C241.928 260.482 241.598 261.048 241.633 261.883C241.727 264.309 241.315 266.724 241.633 269.15C241.233 270.127 241.327 271.175 241.28 272.2C241.021 277.052 240.75 281.905 240.585 286.757C240.479 289.748 239.807 292.692 240.019 295.696C239.43 298.051 239.348 300.465 239.148 302.868C238.3 307.638 237.463 312.395 236.615 317.165C235.486 320.015 234.92 323.066 233.589 325.868C230.103 333.205 225.086 339.2 218.291 343.664C215.7 344.817 213.121 346.019 210.412 346.89L210.423 346.902ZM104.854 347.432C104.442 348.021 104.03 348.598 103.606 349.187C102.334 349.599 101.933 350.636 101.721 351.801C101.676 351.919 101.603 352.024 101.509 352.107C100.802 352.425 100.402 352.967 100.378 353.745L100.331 353.815C100.001 353.898 99.8604 354.11 99.8844 354.439C94.5962 361.847 89.8969 369.632 85.1275 377.37C83.5967 379.866 81.4881 381.892 79.6983 384.189C78.3205 385.955 76.6598 387.498 75.4939 389.441C65.5424 397.473 53.9181 397.838 44.7204 388.664C42.8007 386.756 41.069 384.66 39.2433 382.657C38.5723 381.103 37.3245 379.937 36.4287 378.547C36.0407 377.947 34.9569 377.205 36.0047 376.428C37.1706 375.568 37.6185 376.804 38.1364 377.499C39.1502 378.853 40.0681 380.266 41.081 381.609C41.7998 382.563 42.6118 383.458 43.3776 384.377C45.2144 387.321 48.029 389.182 50.8556 390.961C54.719 393.386 58.9823 394.293 63.4697 393.374C66.9322 392.667 70.4177 391.856 72.7964 388.829C76.5068 385.249 79.8513 381.326 82.9129 377.205C84.5506 375.014 86.2224 372.729 86.9403 369.974C87.6472 370.009 87.8481 369.467 88.1421 368.984C94.5372 358.479 101.238 348.162 107.975 337.869C110.625 333.818 113.816 330.297 117.715 327.423C120.081 325.668 122.673 324.384 125.547 323.701C126.277 323.524 127.018 323.277 127.725 323.701C128.149 323.948 128.408 324.408 128.431 324.867C128.455 325.479 127.925 325.562 127.442 325.585C122.814 325.797 119.458 328.247 116.231 331.356C112.392 335.055 109.565 339.459 106.608 343.793C106.184 344.405 105.749 345.053 105.996 345.877C105.761 346.242 105.514 346.596 105.278 346.961C104.948 346.949 104.795 347.102 104.842 347.432H104.854ZM159.417 227.306C158.946 228.731 158.593 230.203 157.98 231.558C156.956 233.831 155.507 235.809 152.928 236.527C151.88 236.822 151.491 237.434 151.267 238.494C150.149 244.029 148.287 249.293 146.05 254.5C144.755 257.514 143.271 259.929 140.526 261.589C140.203 261.777 139.873 261.954 139.538 262.119C135.486 264.074 132.719 263.45 129.951 259.94C129.88 259.375 129.751 258.845 129.303 258.445C129.244 257.608 129.232 256.772 128.29 256.242C123.65 258.963 120.27 262.601 119.599 268.196C119.505 268.937 119.14 269.385 118.527 269.703C117.95 269.644 117.467 269.526 117.408 268.773C117.279 267.242 117.738 265.841 118.198 264.427C118.48 263.556 119.187 262.837 119.105 261.836C119.187 261.789 119.293 261.766 119.352 261.707C121.86 258.927 124.274 256.053 127.784 254.441C128.526 254.099 128.219 253.487 128.16 252.992C127.831 249.918 127.524 246.844 127.418 243.747C127.323 240.936 127.15 238.128 126.9 235.326C126.794 234.16 126.959 232.5 125.688 232.135C124.557 231.817 123.933 233.313 123.25 234.172C121.966 235.785 120.776 237.47 119.481 239.083C118.775 239.967 117.679 241.168 116.737 240.756C114.546 239.813 113.675 241.226 112.368 242.345C111.485 243.099 110.189 243.311 108.952 243.169C105.549 240.72 103.076 237.47 100.991 233.89C100.708 233.407 100.461 232.9 100.19 232.406C99.8364 231.746 100.166 231.346 100.72 231.063C101.262 230.78 101.615 231.098 101.874 231.51C102.781 232.936 103.653 234.372 104.548 235.797C105.537 237.387 106.608 238.918 107.928 240.273C108.328 240.685 108.764 241.038 109.388 240.991C111.873 241.167 113.486 239.213 112.639 236.833C111.815 234.525 111.226 232.182 110.966 229.744C109.93 220.169 113.156 212.491 121.459 207.449C129.256 202.715 137.795 200.972 146.863 202.491C152.669 203.457 156.496 206.837 158.475 212.326C159.5 215.175 159.889 218.144 159.853 221.181C159.853 222.112 159.877 223.054 159.889 223.985C159.711 225.087 159.538 226.191 159.37 227.294L159.417 227.306ZM148.935 240.344C149.1 240.19 149.124 240.014 149.018 239.825C149.077 239.495 149.147 239.177 149.206 238.848C149.83 237.788 149.948 236.916 148.429 236.574C143.966 235.55 140.174 233.124 136.299 230.851C135.368 230.309 134.52 229.567 133.319 229.284C132.153 233.159 131.093 236.928 130.928 240.897C130.752 245.207 132.401 248.328 136.593 249.847C136.782 249.918 136.97 249.988 137.158 250.047C139.514 251.096 141.869 252.144 144.284 253.216C146.71 249.517 147.887 245.608 148.558 241.509C148.935 241.203 148.971 240.779 148.924 240.332L148.935 240.344Z" fill="#23221F"/>
<path d="M61.5604 226.376C61.2783 219.215 58.7458 212.514 57.2859 205.601C56.5081 201.95 55.6012 198.335 54.7884 194.695C54.6474 194.071 54.7063 193.412 54.6713 192.764C55.9895 190.132 57.9103 187.848 60.2775 186.098C62.1732 187.146 63.1621 189.042 64.3049 190.715C68.1674 196.391 70.1461 202.81 71.7008 209.44C73.6795 217.861 73.7266 226.411 73.2556 234.914C72.8436 242.486 70.794 249.694 64.9888 255.265C61.7493 258.374 57.6039 259.646 53.5755 261.154C52.0217 261.731 50.302 261.908 48.6652 262.272C48.0293 262.413 47.5694 262.19 47.2754 261.613L47.3583 261.59C49.972 259.316 52.5986 257.067 54.9893 254.547C58.0278 251.343 60.1236 247.634 61.2074 243.37C62.6322 237.741 62.5032 232.064 61.5723 226.388L61.5604 226.376ZM101.72 351.801C101.944 350.636 102.344 349.6 103.605 349.187C103.416 350.377 102.78 351.249 101.72 351.801ZM100.378 353.745C100.413 352.955 100.802 352.425 101.509 352.107C101.509 352.92 101.12 353.45 100.378 353.745ZM99.8837 354.44C99.8597 354.11 100.001 353.886 100.331 353.815C100.39 354.169 100.213 354.357 99.8837 354.44ZM104.853 347.433C104.806 347.103 104.959 346.949 105.29 346.961C105.372 347.327 105.243 347.504 104.853 347.433Z" fill="#00B616"/>
<path d="M55.5898 157.162C55.7428 157.515 55.6009 157.751 55.3069 157.939C55.2359 157.621 55.3069 157.35 55.5898 157.162Z" fill="white"/>
<path d="M243.4 254.17C242.87 254.558 242.305 254.546 241.717 254.358C242.234 253.875 242.799 253.84 243.4 254.17ZM236.192 245.019C235.862 245.266 235.533 245.502 235.204 245.749C235.086 245.619 234.968 245.49 234.85 245.349C235.168 245.101 235.474 244.854 235.792 244.606C235.921 244.748 236.063 244.889 236.192 245.019Z" fill="#00A0FF"/>
<path d="M214.58 270.857C214.397 270.885 214.212 270.901 214.027 270.904C214.18 270.504 214.356 270.457 214.58 270.857ZM148.934 240.343C148.887 240.214 148.828 240.084 148.816 239.943C148.816 239.908 148.946 239.86 149.029 239.825C149.135 240.025 149.099 240.19 148.946 240.343H148.934Z" fill="white"/>
<path d="M537.449 160.706C539.122 157.021 541.701 155.666 545.599 156.691C557.329 159.741 569.036 162.862 580.754 165.96C582.933 166.536 585.123 167.078 587.29 167.678C592.142 169.021 594.592 172.555 594.121 177.583C593.979 179.079 593.85 180.598 593.438 182.035C593.025 183.495 593.485 184.155 594.863 184.426C595.593 184.567 596.323 184.732 596.971 184.862C597.63 184.449 597.454 183.813 597.607 183.295C598.148 181.575 599.032 180.998 600.763 181.41C603.59 182.094 606.404 182.836 609.207 183.66C611.433 184.308 612.01 185.05 611.727 187.358C611.503 189.172 612.069 190.173 613.482 191.351C621.232 197.769 624.729 205.931 623.104 216.07C621.339 227.105 619.604 238.144 617.898 249.187C617.216 253.593 615.402 257.455 612.351 260.683C611.55 261.531 610.845 262.637 609.408 262.519C610.032 259.799 611.35 257.302 611.774 254.488C613.408 243.614 615.112 232.752 616.886 221.9C618.617 211.277 615.19 202.656 606.922 195.92C605.862 195.06 605.368 194.306 605.603 192.87C606.039 190.244 605.214 189.019 602.683 188.276C599.891 187.464 597.065 186.734 594.239 186.028C591.848 185.427 591.105 185.757 589.999 187.994C589.611 188.759 589.328 189.242 588.362 189.007C587.42 188.771 587.161 188.229 587.302 187.358C587.49 186.157 587.702 184.944 587.867 183.743C588.645 177.701 586.006 173.708 580.177 172.143C576.455 171.141 572.722 170.187 569.012 169.198C558.483 166.383 547.967 163.545 537.449 160.718V160.706Z" fill="#FF9D0A"/>
<path d="M537.449 160.706C547.967 163.533 558.495 166.372 569.012 169.186C572.733 170.187 576.467 171.129 580.177 172.131C586.006 173.697 588.645 177.689 587.867 183.731C587.714 184.944 587.502 186.145 587.302 187.346C587.16 188.218 587.42 188.759 588.362 188.995C589.339 189.242 589.622 188.759 589.999 187.982C591.118 185.745 591.859 185.427 594.238 186.016C597.065 186.723 599.88 187.44 602.683 188.265C605.215 189.007 606.039 190.232 605.603 192.858C605.368 194.295 605.862 195.036 606.922 195.908C615.19 202.656 618.618 211.266 616.886 221.888C615.119 232.735 613.388 243.593 611.775 254.476C611.351 257.29 610.032 259.787 609.408 262.508L609.419 262.485C608.901 262.52 608.807 262.884 608.807 263.308C608.312 263.874 607.794 264.415 607.323 264.993C601.799 271.611 594.733 274.085 586.395 272.188C579.069 270.528 571.85 268.408 564.595 266.488C564.231 266.394 563.842 266.335 563.536 266.147C563.336 266.029 563.183 265.687 563.183 265.452C563.183 265.063 563.43 264.675 563.854 264.698C564.501 264.745 565.149 264.875 565.773 265.04C572.309 266.771 578.834 268.538 585.37 270.268C591.424 271.87 597.112 271.152 602.282 267.466C602.659 267.195 603.083 266.96 603.213 266.465L603.154 266.5C603.507 266.477 603.731 266.288 603.825 265.958C607.346 263.202 609.113 259.375 609.832 255.147C611.822 243.381 613.882 231.605 615.39 219.781C616.58 210.476 612.87 202.821 605.485 197.11C604.002 195.967 603.448 195.001 603.778 193.176C604.202 190.809 603.849 190.385 601.599 189.749C599.156 189.068 596.702 188.428 594.238 187.829C592.071 187.299 591.765 187.405 591.424 189.643C591.189 191.268 590.6 191.398 589.198 191.044C585.135 190.02 585.123 190.067 585.688 186.028C585.806 185.191 585.994 184.367 586.112 183.531C586.842 178.502 584.653 175.157 579.741 173.826C574.3 172.366 568.836 170.941 563.395 169.492C555.492 167.396 547.601 165.276 539.699 163.18C538.804 162.944 537.861 162.85 536.943 162.685C533.41 162.732 531.749 164.051 530.925 167.466C530.536 169.575 530.112 171.683 529.795 173.803C529.642 174.815 529.159 175.039 528.275 174.815C526.461 174.368 524.671 173.85 522.835 173.497C518.335 172.649 514.119 173.52 510.138 175.71C509.844 175.875 509.444 176.028 509.62 176.511C509.114 176.394 508.737 176.476 508.678 177.089L508.702 176.959C504.827 179.044 502.966 182.647 501.506 186.534C501.288 187.15 501.111 187.779 500.976 188.418C500.835 189.054 500.835 189.796 499.845 189.607C498.809 189.407 499.15 188.642 499.292 188.064C500.364 183.589 502.46 179.715 505.91 176.582C508.172 174.533 510.927 173.367 513.613 172.048C516.78 171.671 519.913 171.153 523.128 171.683C524.765 171.954 526.697 173.403 527.922 172.354C529.159 171.294 528.735 169.021 529.053 167.29C529.065 167.207 529.029 167.101 529.017 167.007C530.242 162.826 533.104 160.789 537.402 160.671L537.449 160.706Z" fill="#23221F"/>
<path d="M529.065 167.042C529.077 167.137 529.112 167.231 529.1 167.325C528.782 169.056 529.194 171.33 527.969 172.39C526.733 173.449 524.802 171.989 523.176 171.718C519.961 171.188 516.817 171.707 513.66 172.084C516.735 168.68 520.797 167.49 525.154 167.031C526.45 166.889 527.769 167.031 529.077 167.031L529.065 167.042ZM608.83 263.32C608.83 262.896 608.913 262.531 609.443 262.496C609.608 263.049 609.207 263.167 608.83 263.32Z" fill="#FF9D0A"/>
<path d="M530.972 167.479C531.796 164.063 533.457 162.744 536.99 162.697C536.707 164.134 536.401 165.571 536.166 167.02C535.966 168.232 535.554 168.868 534.164 168.326C533.151 167.926 532.044 167.75 530.972 167.479ZM603.861 265.958C603.767 266.3 603.543 266.489 603.19 266.5C603.26 266.135 603.602 266.1 603.861 265.958ZM508.725 177.1C508.784 176.488 509.161 176.394 509.667 176.523C509.373 176.759 509.22 177.195 508.725 177.1Z" fill="white"/>
<path d="M559.496 212.479C559.755 211.254 559.932 210.335 560.144 209.44C560.591 207.568 561.58 206.638 563.099 206.602C564.784 206.567 566.221 207.851 566.621 209.664C566.81 210.524 566.562 211.336 566.48 212.173C566.268 214.328 566.268 214.328 568.458 214.976C568.905 215.105 569.376 215.187 569.8 215.376C571.72 216.224 572.639 218.096 572.062 219.969C571.544 221.654 570.224 222.253 567.94 221.842C566.158 221.52 565.059 222.293 564.642 224.161C564.195 226.164 563.135 227.106 561.415 227.047C559.614 226.977 557.706 225.422 558.083 223.596C558.754 220.323 557.953 218.721 554.537 218.085C552.759 217.755 552.017 215.27 552.63 213.657C553.266 211.984 554.631 211.383 556.799 211.855C557.623 212.031 558.436 212.243 559.484 212.502L559.496 212.479Z" fill="#23221F"/>
<path d="M605.533 197.098C604.049 195.955 603.496 194.989 603.826 193.165C604.25 190.797 603.896 190.373 601.647 189.737C599.204 189.056 596.75 188.416 594.287 187.817C592.119 187.287 591.813 187.393 591.472 189.631C591.236 191.257 590.647 191.386 589.245 191.033C585.183 190.008 585.171 190.055 585.736 186.016C585.854 185.18 586.043 184.355 586.16 183.519C586.891 178.49 584.7 175.145 579.789 173.814C574.347 172.355 568.883 170.929 563.442 169.481C555.539 167.384 547.649 165.265 539.746 163.168C538.852 162.933 537.91 162.838 536.991 162.673C536.72 164.11 536.402 165.547 536.178 166.995C535.978 168.208 535.566 168.845 534.176 168.303C533.163 167.902 532.057 167.726 530.985 167.455C530.596 169.563 530.172 171.671 529.854 173.791C529.701 174.804 529.218 175.027 528.334 174.804C526.521 174.356 524.731 173.838 522.894 173.484C518.395 172.637 514.178 173.508 510.198 175.699C509.904 175.864 509.503 176.017 509.68 176.5C509.409 176.724 509.232 177.112 508.808 177.077C509.091 177.831 508.632 178.443 508.361 179.079C507.43 181.257 506.971 183.566 506.594 185.898C505.134 195.095 503.827 204.306 502.201 213.468C500.894 220.888 500.776 228.072 504.64 234.855L507.147 238.471C509.66 242.097 513.352 244.739 517.594 245.949L528.299 249.011L528.44 248.94C528.758 248.964 529.065 248.999 529.371 249.081C546.366 253.593 563.348 258.15 580.354 262.637C587.856 264.616 595.24 267.431 603.237 266.453C603.331 266.123 603.649 266.076 603.896 265.935C607.418 263.179 609.184 259.352 609.902 255.124C611.893 243.358 613.954 231.581 615.461 219.757C616.651 210.453 612.941 202.798 605.557 197.086L605.533 197.098ZM582.78 222.536C580.602 236.268 565.574 242.875 553.397 235.467C551.123 234.09 549.18 232.323 547.331 230.427C543.633 226.812 542.267 220.393 542.267 220.393C541.419 216.565 541.372 212.75 542.455 208.945C545.529 198.123 556.635 192.446 567.258 196.285C577.975 200.16 584.57 211.313 582.792 222.536H582.78ZM367.778 100.914C369.72 98.7473 371.57 96.5097 373.914 94.7199C384.996 86.2752 401.943 87.594 411.941 96.8986C413.873 98.7004 415.628 100.667 417.158 102.823C417.594 103.435 417.936 104.118 418.654 104.483C418.69 105.519 419.208 106.308 419.915 107.015C420.763 109.088 421.705 111.126 422.424 113.245C423.754 117.167 424.578 121.194 424.225 125.351C423.801 130.381 421.729 134.691 418.23 138.307V138.236C418.03 138.543 417.83 138.86 417.618 139.166L417.7 139.107C417.17 139.331 416.852 139.661 417.1 140.285C416.088 139.908 415.758 140.756 415.275 141.31C410.905 144.525 406.489 147.693 401.602 150.237C401.036 149.424 401.366 148.729 401.496 148.034C401.908 145.797 401.955 143.548 401.755 141.298C401.507 138.389 399.882 136.717 396.996 136.21C395.242 135.904 393.487 135.857 391.685 135.987C387.575 136.281 383.453 136.446 379.319 135.845C374.137 135.091 370.168 132.512 367.319 128.273C362.807 121.571 362.136 114.352 364.857 106.767C365.234 105.707 365.587 104.636 365.952 103.576C366.977 102.976 367.33 101.904 367.778 100.903V100.914ZM405.123 114.788C405.158 116.543 406.666 118.039 408.362 118.015C410.045 117.992 411.6 116.413 411.612 114.729C411.623 112.809 410.092 111.337 408.173 111.431C406.359 111.514 405.087 112.915 405.123 114.788ZM387.151 113.056C387.127 111.243 385.749 109.806 384.018 109.783C382.298 109.759 380.862 111.196 380.815 112.986C380.768 114.906 382.263 116.46 384.089 116.401C385.82 116.343 387.175 114.858 387.151 113.056ZM396.207 117.108C397.974 117.085 399.446 115.648 399.458 113.928C399.47 112.032 397.974 110.654 395.971 110.737C394.194 110.819 392.733 112.338 392.839 114.01C392.893 114.858 393.272 115.652 393.897 116.227C394.523 116.802 395.346 117.113 396.195 117.096L396.207 117.108Z" fill="#FF9D0A"/>
<path d="M418.231 138.225V138.295C420.15 138.92 420.198 138.943 419.338 140.414C417.818 143.053 415.77 145.256 413.496 147.257C409.233 151.003 404.404 153.923 399.552 156.82C399.069 157.115 398.575 157.504 398.009 157.185C397.244 156.761 397.585 156.055 397.668 155.419C397.844 154.111 397.998 152.805 398.162 151.497C398.386 149.707 398.386 147.94 397.88 146.186C397.35 144.372 396.184 143.324 394.335 142.994C392.274 142.629 390.225 142.7 388.152 142.817C384.489 143.029 380.827 143.206 377.164 142.747C369.002 141.722 363.938 136.905 361.124 129.486C359.346 124.787 359.204 119.934 360.476 115.059C360.571 114.694 360.618 114.317 360.759 113.975C361.006 113.398 361.206 112.586 362.077 112.903C362.937 113.233 362.572 113.916 362.383 114.564C361.171 118.722 361.041 122.891 362.171 127.095C364.539 135.834 370.887 140.968 379.932 141.251C382.934 141.345 385.95 141.157 388.952 141.003C390.943 140.897 392.91 140.933 394.854 141.321C397.303 141.804 398.834 143.277 399.552 145.656C400.342 148.258 399.894 150.873 399.741 153.5C399.541 154.111 399.435 154.629 400.377 154.17C405.288 151.415 409.975 148.329 414.003 144.325C414.721 143.607 415.558 142.959 415.946 141.969C416.57 141.557 417.064 141.062 417.1 140.261C417.665 140.05 417.936 139.697 417.7 139.084L417.618 139.143C418.242 139.108 418.313 138.708 418.231 138.213V138.225Z" fill="#23221F"/>
<path d="M405.135 114.788C405.1 112.916 406.372 111.514 408.185 111.432C410.093 111.338 411.636 112.81 411.624 114.729C411.624 116.413 410.058 117.992 408.373 118.015C406.678 118.039 405.171 116.543 405.135 114.788ZM387.163 113.057C387.187 114.858 385.833 116.331 384.102 116.401C382.276 116.472 380.78 114.906 380.827 112.987C380.874 111.196 382.311 109.759 384.031 109.783C385.762 109.806 387.151 111.243 387.163 113.057ZM396.208 117.096C395.36 117.108 394.54 116.794 393.916 116.221C393.292 115.647 392.911 114.856 392.852 114.01C392.746 112.339 394.194 110.819 395.985 110.737C397.975 110.643 399.483 112.021 399.471 113.928C399.459 115.648 397.987 117.085 396.22 117.108L396.208 117.096ZM400.377 154.195C399.435 154.653 399.541 154.136 399.741 153.523L400.377 154.195Z" fill="white"/>
<path d="M264.446 356.819C264.705 357.797 264.976 358.774 265.235 359.751C264.422 360.116 264.14 360.929 263.763 361.624C258.216 372.012 252.656 382.387 247.168 392.798C244.649 397.591 244.013 397.945 238.948 396.449C231.94 394.376 224.945 392.303 217.938 390.23C220.199 386.792 222.107 383.164 221.377 378.913C220.941 376.369 221.895 375.332 224.109 374.413C233.391 370.577 242.621 366.616 251.797 362.531C253.269 361.871 255.707 362.177 255.931 359.622C254.023 358.963 252.621 360.316 251.114 360.952C241.719 364.877 232.356 368.878 223.026 372.954C221.118 373.789 219.681 374.131 218.938 371.694C224.992 369.75 230.634 366.829 236.487 364.427C242.976 361.753 249.371 358.892 255.825 356.148C257.556 355.417 259.287 354.616 261.183 354.381L261.195 354.322C261.324 354.746 261.642 354.875 262.055 354.84L264.422 356.819H264.446Z" fill="#FF9D0A"/>
<path d="M262.079 354.84C261.667 354.875 261.349 354.758 261.219 354.322C261.502 354.498 261.785 354.663 262.079 354.84Z" fill="white"/>
<path d="M217.948 390.242C224.956 392.314 231.951 394.387 238.959 396.46C244.035 397.956 244.659 397.603 247.179 392.809C252.655 382.387 258.227 372.011 263.774 361.635C264.151 360.94 264.433 360.128 265.245 359.763C270.569 371.328 275.939 382.87 281.191 394.47C282.77 397.956 281.898 399.628 277.953 401.324C261.889 408.214 245.825 415.08 229.75 421.946C227.629 422.853 225.556 423.866 223.402 424.678C220.351 425.821 218.408 425.173 217.042 422.181C212.849 412.936 208.351 403.833 204.57 394.399C209.564 394.752 214.074 393.527 217.937 390.254L217.948 390.242Z" fill="#23221F"/>
<path d="M217.949 390.242C214.087 393.528 209.576 394.741 204.582 394.387C204.076 394.199 203.569 393.999 203.052 393.822C202.31 393.563 201.497 393.021 200.885 393.928C200.449 394.576 200.955 395.224 201.226 395.801C205.831 405.93 210.4 416.069 215.088 426.151C216.419 429 217.69 429.389 220.658 428.152C228.031 425.067 235.38 421.899 242.729 418.755C243.6 418.378 244.448 417.966 245.331 417.624C245.92 417.4 246.355 417.648 246.615 418.236C246.838 418.755 246.473 418.979 246.12 419.155C245.272 419.579 244.413 419.991 243.541 420.356C236.44 423.395 229.338 426.445 222.236 429.471C217.254 431.592 215.147 430.791 212.909 425.892C208.186 415.527 203.499 405.14 198.764 394.776C197.692 392.433 196.656 390.089 195.326 387.863C191.356 381.232 192.758 373.389 198.599 368.879C204.464 364.356 212.214 365.028 217.796 370.539C218.185 370.916 218.562 371.305 218.95 371.682C219.692 374.119 221.141 373.777 223.037 372.941C232.369 368.869 241.732 364.869 251.126 360.941C252.644 360.305 254.046 358.95 255.942 359.61C255.707 362.166 253.28 361.859 251.808 362.519C242.63 366.598 233.4 370.56 224.12 374.402C221.907 375.321 220.953 376.357 221.388 378.901C222.119 383.152 220.199 386.779 217.949 390.219V390.242ZM219.716 380.844C219.889 377.548 218.747 374.319 216.541 371.864C214.336 369.408 211.246 367.928 207.951 367.748C201.155 367.359 195.267 372.682 194.878 379.56C194.49 386.391 199.813 392.292 206.655 392.621C213.545 392.951 219.374 387.698 219.716 380.844Z" fill="#23221F"/>
<path d="M219.716 380.844C219.374 387.698 213.545 392.95 206.655 392.621C199.813 392.291 194.489 386.391 194.877 379.56C195.266 372.682 201.166 367.359 207.95 367.748C211.246 367.928 214.335 369.408 216.541 371.863C218.747 374.318 219.889 377.548 219.716 380.844ZM204.276 376.557C205.678 379.854 207.091 383.188 208.504 386.52C208.916 387.474 209.528 388.181 210.671 387.674C211.637 387.25 211.554 386.379 211.248 385.613C209.564 381.503 207.891 377.382 206.066 373.33C205.324 371.681 204.088 371.564 202.957 372.871C202.438 373.471 201.991 374.202 201.744 374.955C201.367 376.086 199.377 377.193 201.001 378.371C202.603 379.525 202.756 376.852 204.276 376.569V376.557Z" fill="white"/>
<path d="M204.265 376.557C202.746 376.84 202.593 379.525 200.991 378.359C199.365 377.181 201.356 376.074 201.733 374.943C201.98 374.19 202.428 373.459 202.946 372.86C204.077 371.552 205.314 371.67 206.055 373.318C207.869 377.37 209.541 381.491 211.237 385.602C211.555 386.368 211.626 387.25 210.66 387.663C209.518 388.157 208.893 387.462 208.493 386.509C207.068 383.176 205.667 379.843 204.265 376.545V376.557Z" fill="#FF9D0A"/>
</g>
</g>
</g>
</g>
<defs>
<clipPath id="clip0_351_2212">
<rect width="634.99" height="492.14" fill="white" transform="translate(0.00585938 0.0947266)"/>
</clipPath>
<clipPath id="clip1_351_2212">
<rect width="634.99" height="492.14" fill="white" transform="translate(0.00585938 0.0947266)"/>
</clipPath>
<clipPath id="clip2_351_2212">
<rect width="634.99" height="492.14" fill="white" transform="translate(0.00585938 0.0947266)"/>
</clipPath>
</defs>
</svg>
