<svg viewBox="0 0 160 135" fill="none" xmlns="http://www.w3.org/2000/svg">
  <path d="M91.8202 105.417C101.368 102.689 108.733 97.915 113.916 91.0954C119.371 84.5486 122.099 77.1835 122.099 69H93.4569V0.258715H159.743V59.1798C159.743 71.455 158.243 81.6844 155.242 89.8679C152.242 98.0514 148.013 105.28 142.558 111.554C136.557 118.101 128.919 123.284 119.644 127.103C110.642 131.194 101.368 133.513 91.8202 134.059V105.417ZM0.98347 105.417C10.5309 102.689 17.896 97.915 23.0789 91.0954C28.5345 84.5486 31.2624 77.1835 31.2624 69H2.62017V0.258715H68.9064V59.1798C68.9064 71.455 67.4061 81.6844 64.4055 89.8679C61.4049 98.0514 57.1767 105.28 51.7211 111.554C45.7199 118.101 38.0819 123.284 28.8073 127.103C19.8055 131.194 10.5309 133.513 0.98347 134.059V105.417Z" fill="#4BB2FF"/>
</svg>