<?xml version="1.0" encoding="utf-8"?>
<svg viewBox="0 0 315.3999938964844 90" width="315.3999938964844" height="90" style="enable-background:new 165 160.5 341 123.5;" xmlns="http://www.w3.org/2000/svg">
  <defs>
    <style type="text/css">
	.st0{fill:#14B1EF;}
	.st1{fill:#FFFFFF;}
	.st2{fill:#F7A12B;}
	.st3{fill:#585858;}
	.st4{fill:#A7C721;}
	.st5{fill:#6C963D;}
	.st6{fill:#221F20;}
	.st7{fill-rule:evenodd;clip-rule:evenodd;fill:#221F20;}
	.st8{fill:#15A2CE;}
	.st9{fill:#E3E3E3;}
	.st10{fill:#FFEEA7;}
	.st11{opacity:0.5;fill:#108EC0;}
</style>
  </defs>
  <g transform="matrix(1, 0, 0, 1, -179.89999389648438, -178.39999389648438)">
    <path class="st4" d="M289.3,245.7c0,3-1,5.6-3.1,7.6c-2.1,2-4.7,3-7.7,3c-4.4,0-7.9-1.7-10.6-5.1l2.9-3.3c2.3,2.6,4.8,4,7.5,4&#10;&#9;&#9;&#9;c1.7,0,3.3-0.6,4.6-1.7c1.3-1.1,2-2.5,2-4.3c0-1.7-0.8-3.3-2.4-4.6c-0.8-0.7-2.3-1.6-4.7-2.8c-2.7-1.4-4.6-2.7-5.8-4&#10;&#9;&#9;&#9;c-1.7-1.8-2.5-3.9-2.5-6.5c0-2.8,0.9-5.1,2.8-6.8c1.9-1.8,4.2-2.6,7-2.6c3.3,0,6.6,1.6,9.9,4.8l-3,3.1c-2.5-2.4-4.9-3.6-7.2-3.6&#10;&#9;&#9;&#9;c-1.4,0-2.7,0.5-3.8,1.4c-1.1,0.9-1.6,2.1-1.6,3.5c0,2.4,2.3,4.7,6.8,7.1c2.8,1.5,4.8,2.8,6.1,4.2&#10;&#9;&#9;&#9;C288.4,240.9,289.3,243.1,289.3,245.7z"/>
    <path class="st4" d="M326,255.4h-4.6v-17.1c0-4.1-0.2-6.9-0.5-8.3c-1.1-4.8-4.1-7.1-9-7.1c-2.8,0-5.3,0.9-7.5,2.7&#10;&#9;&#9;&#9;c-2.2,1.8-3.7,4.1-4.3,6.9c-0.4,1.7-0.7,5-0.7,9.7v13.1h-4.6v-49.7h4.6v20.3c3.7-4.9,8.2-7.3,13.4-7.3c2.6,0,5,0.7,7.1,2&#10;&#9;&#9;&#9;c2.1,1.3,3.6,3.2,4.6,5.5c1,2.3,1.5,5.9,1.5,10.8V255.4z"/>
    <path class="st4" d="M364.1,237.6c0-3.9-1.3-7.3-4-10.2c-2.7-2.9-6-4.3-9.9-4.3c-3.9,0-7.2,1.4-9.9,4.3c-2.7,2.9-4,6.3-4,10.2&#10;&#9;&#9;&#9;c0,2.5,0.6,4.9,1.8,7.1c1.2,2.3,2.9,4,5.1,5.3c2.1,1.2,4.5,1.8,7,1.8c5.4,0,9.4-2.3,12.1-7C363.4,242.6,364.1,240.2,364.1,237.6z&#10;&#9;&#9;&#9; M368.8,237.5c0,5.3-1.8,9.7-5.4,13.3c-3.6,3.6-8,5.4-13.3,5.4c-5.3,0-9.7-1.8-13.3-5.4c-3.6-3.6-5.4-8-5.4-13.3&#10;&#9;&#9;&#9;c0-5,1.6-9.3,4.9-12.9c3.6-4,8.2-6,13.7-6c5.5,0,10.1,2,13.7,6C367.1,228.2,368.8,232.6,368.8,237.5z"/>
    <path class="st4" d="M407.4,237.5c0-2.5-0.6-4.9-1.9-7.2c-1.3-2.3-3-4-5.2-5.3c-2.2-1.3-4.6-1.9-7.1-1.9c-4.1,0-7.5,1.4-10.1,4.2&#10;&#9;&#9;&#9;c-2.7,2.8-4,6.3-4,10.4c0,5.7,2.4,9.9,7.1,12.5c2.3,1.3,4.6,1.9,7.2,1.9c2.5,0,4.9-0.7,7.1-2c2.1-1.3,3.8-3.1,5.1-5.4&#10;&#9;&#9;&#9;C406.7,242.4,407.4,240,407.4,237.5z M412,237.3c0,5.2-1.8,9.7-5.3,13.3c-3.6,3.7-7.9,5.6-13.1,5.6c-5.7,0-10.5-2.4-14.3-7.1v19.3&#10;&#9;&#9;&#9;h-4.6v-48.9h4.6v6.6c3.6-5,8.4-7.5,14.2-7.5c5.2,0,9.5,1.8,13.1,5.5C410.2,227.8,412,232.2,412,237.3z"/>
    <polygon class="st5" points="434,223.5 426.6,223.5 426.6,255.4 422,255.4 422,223.5 415.7,223.5 415.7,219.5 422,219.5 &#10;&#9;&#9;&#9;422,206.2 426.6,206.2 426.6,219.5 434,219.5 &#9;&#9;"/>
    <path class="st5" d="M468.3,233.8c-1.1-4.5-3.6-7.6-7.3-9.4c-1.9-0.9-4-1.3-6.1-1.3c-3.5,0-6.5,1.1-9.1,3.4&#10;&#9;&#9;&#9;c-1.8,1.6-3.2,4.1-4.2,7.4H468.3z M473.4,237.8h-32.2c0.1,4,1.3,7.4,3.8,10c2.5,2.8,5.8,4.2,9.7,4.2c3.8,0,7-1.2,9.7-3.5&#10;&#9;&#9;&#9;c1.2-1,2.5-2.7,3.9-5.1l3.9,2c-2.4,4.7-5.8,7.9-10,9.6c-2.1,0.8-4.4,1.2-7.1,1.2c-5.4,0-9.8-1.8-13.4-5.3c-3.5-3.6-5.3-8-5.3-13.4&#10;&#9;&#9;&#9;c0-4.5,1.4-8.6,4.2-12.1c3.5-4.5,8.3-6.8,14.2-6.8c6.1,0,11,2.3,14.6,6.9C472,228.8,473.3,232.9,473.4,237.8z"/>
    <polygon class="st5" points="495.3,223.5 488,223.5 488,255.4 483.3,255.4 483.3,223.5 477,223.5 477,219.5 483.3,219.5 &#10;&#9;&#9;&#9;483.3,206.2 488,206.2 488,219.5 495.3,219.5 &#9;&#9;"/>
    <rect x="179.9" y="219" class="st4" width="38.1" height="38.1"/>
    <rect x="220.5" y="219" class="st0" width="38.1" height="38.1"/>
    <rect x="200" y="178.4" class="st2" width="38.1" height="38.1"/>
  </g>
</svg>