<svg viewBox="0 0 25.600000381469727 15.100000381469727" width="25.6" height="15.1" xmlns="http://www.w3.org/2000/svg"><path d="M0 3.06h3.31a7.997 7.997 0 0 1 2.43.34 5.006 5.006 0 0 1 1.87 1 4.81 4.81 0 0 1 1.2 1.86c.289.839.428 1.723.41 2.61a7.744 7.744 0 0 1-.41 2.61 4.936 4.936 0 0 1-1.17 1.84 4.812 4.812 0 0 1-1.81 1.16 7.292 7.292 0 0 1-2.35.36H0zm3.17 9.59c.458.003.913-.064 1.35-.2a2.56 2.56 0 0 0 1.06-.64 2.92 2.92 0 0 0 .73-1.16 5.676 5.676 0 0 0 .24-1.78 5.548 5.548 0 0 0-.24-1.75 2.77 2.77 0 0 0-.68-1.14 2.599 2.599 0 0 0-1.06-.6 4.776 4.776 0 0 0-1.35-.18h-.5v7.45zm8.25-9.59h2.66v11.73h-2.66zM16.31 9a7.013 7.013 0 0 1 .45-2.6 5.755 5.755 0 0 1 1.16-1.92 5.259 5.259 0 0 1 1.78-1.21 5.806 5.806 0 0 1 2.16-.41 4.186 4.186 0 0 1 2 .46 5.687 5.687 0 0 1 1.45 1.05l-1.44 1.64a4.236 4.236 0 0 0-.9-.65 2.385 2.385 0 0 0-1.08-.23 2.45 2.45 0 0 0-1.14.26c-.362.173-.68.426-.93.74a3.727 3.727 0 0 0-.62 1.19 5.217 5.217 0 0 0-.22 1.59 4.447 4.447 0 0 0 .77 2.81 2.46 2.46 0 0 0 2.07 1c.437.03.874-.053 1.27-.24.373-.193.71-.446 1-.75l1.46 1.6a4.822 4.822 0 0 1-1.68 1.3 5.007 5.007 0 0 1-2.05.43 5.886 5.886 0 0 1-2.14-.39 5.002 5.002 0 0 1-1.8-1.19 5.223 5.223 0 0 1-1.19-1.88 7.198 7.198 0 0 1-.38-2.6zm8.37-9L22.9 2.16h-2.59L18.58 0h2l1 1.09h.07l1-1.09z"/></svg>