<svg viewBox="0 0 14.100000381469727 15.100000381469727" width="14.1" height="15.1" xmlns="http://www.w3.org/2000/svg"><path d="M0 3.06h2.66V14.8H0zM4.84 9a7.05 7.05 0 0 1 .46-2.63c.275-.72.69-1.38 1.22-1.94A5.278 5.278 0 0 1 8.3 3.26a5.566 5.566 0 0 1 2.15-.42 4.377 4.377 0 0 1 2 .46c.539.279 1.032.64 1.46 1.07l-1.45 1.64a4.642 4.642 0 0 0-.9-.65 2.385 2.385 0 0 0-1.08-.23 2.65 2.65 0 0 0-1.18.24c-.358.18-.672.436-.92.75a3.642 3.642 0 0 0-.6 1.25 5.093 5.093 0 0 0-.22 1.58c-.059.982.2 1.957.74 2.78a2.51 2.51 0 0 0 2.07 1c.441.012.878-.088 1.27-.29a3.71 3.71 0 0 0 1-.76l1.45 1.6a4.71 4.71 0 0 1-3.72 1.73 6.062 6.062 0 0 1-2.14-.38 4.996 4.996 0 0 1-1.77-1.15A5.362 5.362 0 0 1 5.3 11.6 7.417 7.417 0 0 1 4.84 9zm8.37-9l-1.73 2.16H8.89L7.16 0h2l.95 1.1h.07l1-1.1z"/></svg>