<svg xmlns="http://www.w3.org/2000/svg" width="1792" height="1792"><defs><radialGradient cx="19.11" cy="128.44" gradientUnits="userSpaceOnUse" id="a" r="163.55"><stop offset="0" stop-color="#ffb140"/><stop offset=".26" stop-color="#ff5445"/><stop offset=".6" stop-color="#fc2b82"/><stop offset="1" stop-color="#8e40b7"/></radialGradient></defs><g clip-rule="evenodd"><path fill="none" d="M123.8 128.2h1545.35v1545.35H123.8z"/><path d="M105.84 29.84a7.68 7.68 0 1 1-15.36 0 7.68 7.68 0 0 1 15.36 0zM64 85.34a21.33 21.33 0 1 1 0-42.67 21.33 21.33 0 0 1 0 42.66zm0-54.2a32.86 32.86 0 1 0 0 65.72 32.86 32.86 0 0 0 0-65.72zm0-19.6c17.09 0 19.11.06 25.86.37 6.24.28 9.63 1.32 11.89 2.2a19.83 19.83 0 0 1 7.35 4.79 19.82 19.82 0 0 1 4.8 7.36c.87 2.25 1.91 5.64 2.2 11.88.3 6.75.37 8.77.37 25.86 0 17.1-.07 19.12-.37 25.86-.29 6.24-1.33 9.63-2.2 11.89a19.83 19.83 0 0 1-4.8 7.36 19.82 19.82 0 0 1-7.35 4.78c-2.26.88-5.65 1.92-11.89 2.2-6.75.32-8.77.38-25.86.38s-19.11-.06-25.86-.37c-6.24-.29-9.63-1.33-11.89-2.2a19.83 19.83 0 0 1-7.35-4.8 19.83 19.83 0 0 1-4.8-7.35c-.87-2.26-1.91-5.65-2.2-11.89-.3-6.75-.37-8.77-.37-25.86s.07-19.11.37-25.86c.29-6.24 1.33-9.63 2.2-11.88a19.83 19.83 0 0 1 4.8-7.36 19.82 19.82 0 0 1 7.35-4.8c2.26-.87 5.65-1.91 11.89-2.2 6.75-.3 8.77-.37 25.86-.37zM64 0C46.62 0 44.44.07 37.61.39c-6.8.3-11.46 1.39-15.53 2.97a31.36 31.36 0 0 0-11.34 7.38 31.36 31.36 0 0 0-7.38 11.34C1.78 26.15.7 30.8.38 37.6.08 44.44 0 46.61 0 64c0 17.38.07 19.56.39 26.39.3 6.8 1.39 11.46 2.97 15.53a31.36 31.36 0 0 0 7.38 11.34 31.37 31.37 0 0 0 11.34 7.38c4.07 1.58 8.72 2.66 15.53 2.98 6.83.3 9 .38 26.39.38 17.38 0 19.56-.07 26.39-.39 6.8-.3 11.46-1.39 15.53-2.97a31.37 31.37 0 0 0 11.34-7.38 31.37 31.37 0 0 0 7.38-11.34c1.58-4.07 2.66-8.72 2.98-15.53.3-6.83.38-9 .38-26.39 0-17.38-.07-19.56-.39-26.39-.3-6.8-1.39-11.46-2.97-15.53a31.37 31.37 0 0 0-7.38-11.34 31.37 31.37 0 0 0-11.34-7.38C101.85 1.78 97.2.7 90.4.38 83.56.08 81.39 0 64 0z" fill="url(#a)" fill-rule="evenodd" transform="matrix(12.07304 0 0 12.07304 123.8 128.2)"/></g></svg>