<svg viewBox="0 0 315.3999938964844 90" width="315.4" height="90" xmlns="http://www.w3.org/2000/svg"><defs><style>.st0{fill:#14b1ef}.st1{fill:#fff}.st2{fill:#f7a12b}.st3{fill:#585858}.st4{fill:#a7c721}.st5{fill:#6c963d}.st6,.st7{fill:#221f20}.st7{fill-rule:evenodd;clip-rule:evenodd}.st8{fill:#15a2ce}.st9{fill:#e3e3e3}.st10{fill:#ffeea7}.st11{opacity:.5;fill:#108ec0}</style></defs><path class="st4" d="M109.4 67.3c0 3-1 5.6-3.1 7.6s-4.7 3-7.7 3c-4.4 0-7.9-1.7-10.6-5.1l2.9-3.3c2.3 2.6 4.8 4 7.5 4 1.7 0 3.3-.6 4.6-1.7 1.3-1.1 2-2.5 2-4.3 0-1.7-.8-3.3-2.4-4.6-.8-.7-2.3-1.6-4.7-2.8-2.7-1.4-4.6-2.7-5.8-4-1.7-1.8-2.5-3.9-2.5-6.5 0-2.8.9-5.1 2.8-6.8 1.9-1.8 4.2-2.6 7-2.6 3.3 0 6.6 1.6 9.9 4.8l-3 3.1c-2.5-2.4-4.9-3.6-7.2-3.6-1.4 0-2.7.5-3.8 1.4-1.1.9-1.6 2.1-1.6 3.5 0 2.4 2.3 4.7 6.8 7.1 2.8 1.5 4.8 2.8 6.1 4.2 1.9 1.8 2.8 4 2.8 6.6zm36.7 9.7h-4.6V59.9c0-4.1-.2-6.9-.5-8.3-1.1-4.8-4.1-7.1-9-7.1-2.8 0-5.3.9-7.5 2.7-2.2 1.8-3.7 4.1-4.3 6.9-.4 1.7-.7 5-.7 9.7v13.1h-4.6V27.2h4.6v20.3c3.7-4.9 8.2-7.3 13.4-7.3 2.6 0 5 .7 7.1 2 2.1 1.3 3.6 3.2 4.6 5.5 1 2.3 1.5 5.9 1.5 10.8V77zm38.1-17.8c0-3.9-1.3-7.3-4-10.2-2.7-2.9-6-4.3-9.9-4.3-3.9 0-7.2 1.4-9.9 4.3s-4 6.3-4 10.2c0 2.5.6 4.9 1.8 7.1 1.2 2.3 2.9 4 5.1 5.3 2.1 1.2 4.5 1.8 7 1.8 5.4 0 9.4-2.3 12.1-7 1.1-2.2 1.8-4.6 1.8-7.2zm4.7-.1c0 5.3-1.8 9.7-5.4 13.3-3.6 3.6-8 5.4-13.3 5.4-5.3 0-9.7-1.8-13.3-5.4-3.6-3.6-5.4-8-5.4-13.3 0-5 1.6-9.3 4.9-12.9 3.6-4 8.2-6 13.7-6s10.1 2 13.7 6c3.4 3.6 5.1 8 5.1 12.9zm38.6 0c0-2.5-.6-4.9-1.9-7.2-1.3-2.3-3-4-5.2-5.3-2.2-1.3-4.6-1.9-7.1-1.9-4.1 0-7.5 1.4-10.1 4.2-2.7 2.8-4 6.3-4 10.4 0 5.7 2.4 9.9 7.1 12.5 2.3 1.3 4.6 1.9 7.2 1.9 2.5 0 4.9-.7 7.1-2 2.1-1.3 3.8-3.1 5.1-5.4 1.1-2.3 1.8-4.7 1.8-7.2zm4.6-.2c0 5.2-1.8 9.7-5.3 13.3-3.6 3.7-7.9 5.6-13.1 5.6-5.7 0-10.5-2.4-14.3-7.1V90h-4.6V41.1h4.6v6.6c3.6-5 8.4-7.5 14.2-7.5 5.2 0 9.5 1.8 13.1 5.5 3.6 3.7 5.4 8.1 5.4 13.2z"/><path class="st5" d="M254.1 45.1h-7.4V77h-4.6V45.1h-6.3v-4h6.3V27.8h4.6v13.3h7.4zm34.3 10.3c-1.1-4.5-3.6-7.6-7.3-9.4-1.9-.9-4-1.3-6.1-1.3-3.5 0-6.5 1.1-9.1 3.4-1.8 1.6-3.2 4.1-4.2 7.4h26.7zm5.1 4h-32.2c.1 4 1.3 7.4 3.8 10 2.5 2.8 5.8 4.2 9.7 4.2 3.8 0 7-1.2 9.7-3.5 1.2-1 2.5-2.7 3.9-5.1l3.9 2c-2.4 4.7-5.8 7.9-10 9.6-2.1.8-4.4 1.2-7.1 1.2-5.4 0-9.8-1.8-13.4-5.3-3.5-3.6-5.3-8-5.3-13.4 0-4.5 1.4-8.6 4.2-12.1 3.5-4.5 8.3-6.8 14.2-6.8 6.1 0 11 2.3 14.6 6.9 2.6 3.3 3.9 7.4 4 12.3zm21.9-14.3h-7.3V77h-4.7V45.1h-6.3v-4h6.3V27.8h4.7v13.3h7.3z"/><path class="st4" d="M0 40.6h38.1v38.1H0z"/><path class="st0" d="M40.6 40.6h38.1v38.1H40.6z"/><path class="st2" d="M20.1 0h38.1v38.1H20.1z"/></svg>