<svg viewBox="0 0 540 90" width="540" height="90" xmlns="http://www.w3.org/2000/svg" xmlns:bx="https://boxy-svg.com"><defs><style>.cls-1{fill:#1f1f1f}</style></defs><path class="cls-1" d="M16.34 50.07a6.46 6.46 0 0 0 2.29 5.22 7.65 7.65 0 0 0 5 1.73 6.61 6.61 0 0 0 4.7-2 6.26 6.26 0 0 0 2-4.71 7 7 0 0 0-1.03-3.81q-1.22-1.92-5.46-3.24a33.73 33.73 0 0 1-6.77-2.58 7.61 7.61 0 0 1-3.32-6.81v-.94a7.5 7.5 0 0 1 2.91-6.08 10.35 10.35 0 0 1 6.72-2.37 9.32 9.32 0 0 1 7 3A8.37 8.37 0 0 1 33 33.36v.47h-3.47a6.63 6.63 0 0 0-2.16-4.42 6.81 6.81 0 0 0-3.9-1.55 6.65 6.65 0 0 0-4.36 1.55 4.66 4.66 0 0 0-1.88 3.71 5.71 5.71 0 0 0 3.57 5.68l7.2 2.44A9.9 9.9 0 0 1 33.66 48c.1.56.15.95.17 1.15s0 .56 0 1.06A10.09 10.09 0 0 1 31.27 57a9.87 9.87 0 0 1-7.8 3.38 10.89 10.89 0 0 1-7.89-3 9.8 9.8 0 0 1-3.05-7.33zm23.33 9.72V25h3.48v15.26h18.08V25h3.38v34.79h-3.38V43.45H43.15v16.34h-3.48zm31.84-17.7a16.8 16.8 0 0 1 5-12 17.5 17.5 0 0 1 13.15-5.59 18 18 0 0 1 13.13 5.28 17.64 17.64 0 0 1 5.37 13.08 16.25 16.25 0 0 1-6 12.82 19 19 0 0 1-12.76 4.77 17.33 17.33 0 0 1-12.21-5 17.6 17.6 0 0 1-5.68-13.36zM75 41.9q0 7.56 5.11 11.74A14.66 14.66 0 0 0 89.68 57a15.69 15.69 0 0 0 9.82-3.24 13.13 13.13 0 0 0 5.21-11 14.25 14.25 0 0 0-4.65-10.9 14.67 14.67 0 0 0-10.28-4.08 14.12 14.12 0 0 0-10.4 4.44A13.54 13.54 0 0 0 75 41.9zm39.94 17.89V25h9.12c4.28 0 7.56.66 9.81 2 2.72 1.59 4.08 4.21 4.08 7.84v.94a8.89 8.89 0 0 1-3.32 7.22 13.09 13.09 0 0 1-8.63 2.75h-7.54v14zm3.48-31.65v14.51h7.19c3.06 0 5.35-.73 6.85-2.2a7.45 7.45 0 0 0 2-5.59 5.65 5.65 0 0 0-2.91-5.31 14.56 14.56 0 0 0-7.09-1.41zm30.29 31.65V28.14h-8V25h19.34v3.1h-7.89v31.69zm16.39 0V25h19v3.2h-15.5v12.53h15v3.1h-15v12.86h15.5v3.1zm31.08 0V28.14h-8V25h19.35v3.1h-7.89v31.69zm31.42 0V25h9.4q9.53 0 14.93 5.26a16.61 16.61 0 0 1 5 12.45 15.84 15.84 0 0 1-5.59 12.54 18.49 18.49 0 0 1-12.49 4.5zm3.47-31.65V56.6h5.36q7.37 0 11.88-3.19 5.16-3.66 5.16-10.66a13.71 13.71 0 0 0-3.94-10.14q-4.42-4.47-12.49-4.47zm31.18 13.95a16.81 16.81 0 0 1 5-12 17.48 17.48 0 0 1 13.15-5.59 18 18 0 0 1 13.12 5.28 17.65 17.65 0 0 1 5.38 13.08 16.26 16.26 0 0 1-6 12.82 19 19 0 0 1-12.82 4.79 17.33 17.33 0 0 1-12.21-5 17.64 17.64 0 0 1-5.62-13.38zm3.48-.19q0 7.56 5.12 11.74a14.63 14.63 0 0 0 9.58 3.36 15.68 15.68 0 0 0 9.81-3.24 13.13 13.13 0 0 0 5.21-11 14.25 14.25 0 0 0-4.65-10.9 14.67 14.67 0 0 0-10.28-4.08 14.12 14.12 0 0 0-10.4 4.44 13.54 13.54 0 0 0-4.39 9.68zm39.96 17.89V25h9.11q6.43 0 9.81 2c2.73 1.59 4.09 4.21 4.09 7.84v.94a8.89 8.89 0 0 1-3.33 7.22 13.09 13.09 0 0 1-8.67 2.77h-7.54v14zm3.47-31.65v14.51h7.19c3.06 0 5.35-.73 6.85-2.2a7.45 7.45 0 0 0 2-5.59 5.65 5.65 0 0 0-2.91-5.31 14.56 14.56 0 0 0-7.09-1.41zm24.04 13.95a16.81 16.81 0 0 1 5-12 17.48 17.48 0 0 1 13.15-5.59 18 18 0 0 1 13.12 5.28 17.61 17.61 0 0 1 5.38 13.08 16.29 16.29 0 0 1-6 12.82 19 19 0 0 1-12.82 4.79 17.3 17.3 0 0 1-12.21-5 17.61 17.61 0 0 1-5.62-13.38zm3.48-.19q0 7.56 5.12 11.74a14.65 14.65 0 0 0 9.58 3.36 15.68 15.68 0 0 0 9.81-3.24 13.11 13.11 0 0 0 5.21-11 14.28 14.28 0 0 0-4.64-10.9 14.71 14.71 0 0 0-10.29-4.08 14.14 14.14 0 0 0-10.4 4.44 13.54 13.54 0 0 0-4.39 9.68zm39.96 17.89V25H386q8.07 0 11.55 3.76a11.45 11.45 0 0 1 2.67 7 11.08 11.08 0 0 1-2.9 7.74 9.52 9.52 0 0 1-7.32 3.27l9.82 13h-4.39L383.54 44h2.91a12.43 12.43 0 0 0 7.55-2 6.72 6.72 0 0 0 2.77-5.75 7 7 0 0 0-3-6 10.76 10.76 0 0 0-6.62-2h-7v31.54zm29.68-11.55V25h3.47v23.09a9.13 9.13 0 0 0 2.59 6.77 7.85 7.85 0 0 0 5.77 2.4 7.68 7.68 0 0 0 5.78-2.4c1.72-1.79 2.58-4.29 2.58-7.53V25H430v22.21q0 6.28-3.67 9.91a11.17 11.17 0 0 1-8.17 3.24 11.55 11.55 0 0 1-11.83-12.12zM436.84 40A16.61 16.61 0 0 1 443 28.61a18.13 18.13 0 0 1 11.79-4.13 17.66 17.66 0 0 1 8.87 2.26 18 18 0 0 1 7 7.18h-3.86a15.23 15.23 0 0 0-5.38-4.44 15 15 0 0 0-16.72 2.42 13.89 13.89 0 0 0-4.57 10.66 13.83 13.83 0 0 0 4.57 10.52 14.62 14.62 0 0 0 16.74 2.44 15.55 15.55 0 0 0 5.5-4.79h3.86a19.15 19.15 0 0 1-7.14 7.33 17.31 17.31 0 0 1-8.78 2.3 18 18 0 0 1-12.59-4.89 17.14 17.14 0 0 1-5.63-13.14zm16.25-18l-6.82-6h4.23l4.16 3.53 4-3.53H463l-6.91 6zm24.46 26.24V25H481v23.09a9.16 9.16 0 0 0 2.58 6.77 7.87 7.87 0 0 0 5.78 2.4 7.66 7.66 0 0 0 5.77-2.4c1.72-1.79 2.58-4.29 2.58-7.53V25h3.48v22.21q0 6.28-3.66 9.91a11.18 11.18 0 0 1-8.17 3.24 11.57 11.57 0 0 1-11.84-12.12zm43.91 2.49V25h3.47v25.17q0 5-2.77 7.75a8.54 8.54 0 0 1-6.29 2.44 9.7 9.7 0 0 1-6.48-2.36 8.16 8.16 0 0 1-3-6.48h3.38a6 6 0 0 0 2 4.08 5.83 5.83 0 0 0 3.95 1.51 5.35 5.35 0 0 0 3.94-1.55 6.54 6.54 0 0 0 1.8-4.83zm11.78 9.06V25h19v3.2h-15.5v12.53h15v3.1h-15v12.86h15.5v3.1zM12.38 82.36h.83v9.88L22 82.36h1l-5.51 6.29 6.23 10.87h-1L16.9 89.28l-3.69 4.16v6.08h-.83zm14.01 14.12a3.43 3.43 0 0 1 2-3.16 17.79 17.79 0 0 1 6.19-1.55 7.81 7.81 0 0 0-.09-1.52 4 4 0 0 0-.49-1.37 2.63 2.63 0 0 0-.94-1 3 3 0 0 0-1.58-.38 5.75 5.75 0 0 0-1.27.14 6.41 6.41 0 0 0-1.12.38 10.46 10.46 0 0 0-.95.49 7.06 7.06 0 0 0-.71.5l-.43-.62.74-.49a7.2 7.2 0 0 1 1-.53 7.51 7.51 0 0 1 1.34-.37 6.32 6.32 0 0 1 1.45-.17 3.93 3.93 0 0 1 1.82.38 3 3 0 0 1 1.17 1 4.07 4.07 0 0 1 .63 1.49 8.53 8.53 0 0 1 .18 1.78v8.06h-.68l-.1-1.66a14.61 14.61 0 0 1-2.13 1.37 5.1 5.1 0 0 1-2.39.6 4.75 4.75 0 0 1-1.38-.19 3.24 3.24 0 0 1-1.15-.6 2.94 2.94 0 0 1-.78-1 3.72 3.72 0 0 1-.33-1.58zm.83 0a3.06 3.06 0 0 0 .22 1.24 2.21 2.21 0 0 0 .61.82A2.54 2.54 0 0 0 29 99a3.81 3.81 0 0 0 1 .1 4.83 4.83 0 0 0 2.21-.53A11.53 11.53 0 0 0 34.55 97v-4.55a27.17 27.17 0 0 0-3.46.58 9.17 9.17 0 0 0-2.26.85A3.32 3.32 0 0 0 27.6 95a2.76 2.76 0 0 0-.38 1.45zm13.65-8.66h-2v-.62l2-.11.1-3.63h.68v3.63h3.69v.73h-3.69v8.53a6.28 6.28 0 0 0 .09 1.1 2.42 2.42 0 0 0 .32.87 1.53 1.53 0 0 0 .66.57 2.56 2.56 0 0 0 1.11.21 2.72 2.72 0 0 0 .8-.13 6.35 6.35 0 0 0 .81-.28l.26.67a9 9 0 0 1-1.08.34 3.59 3.59 0 0 1-.84.13 3.43 3.43 0 0 1-1.42-.26 2.23 2.23 0 0 1-.9-.73 2.81 2.81 0 0 1-.46-1.13 7.38 7.38 0 0 1-.13-1.47zm6.94 8.66a3.41 3.41 0 0 1 2-3.16A17.79 17.79 0 0 1 56 91.77a9.76 9.76 0 0 0-.09-1.52 4 4 0 0 0-.46-1.37 2.58 2.58 0 0 0-1-1 2.94 2.94 0 0 0-1.57-.38 5.68 5.68 0 0 0-1.27.14 6.14 6.14 0 0 0-1.12.38 10.46 10.46 0 0 0-.95.49 7.3 7.3 0 0 0-.72.5l-.41-.63.74-.49a6.72 6.72 0 0 1 1-.53A7.51 7.51 0 0 1 51.5 87a6.26 6.26 0 0 1 1.5-.22 3.93 3.93 0 0 1 1.82.38 3 3 0 0 1 1.17 1 4.06 4.06 0 0 1 .62 1.49 7.9 7.9 0 0 1 .19 1.78v8.06h-.68L56 97.86a14.19 14.19 0 0 1-2.14 1.37 5.07 5.07 0 0 1-2.39.6 4.84 4.84 0 0 1-1.47-.19 3.28 3.28 0 0 1-1.14-.6 2.83 2.83 0 0 1-.78-1 3.72 3.72 0 0 1-.27-1.56zm.83 0a3.06 3.06 0 0 0 .22 1.24 2.21 2.21 0 0 0 .61.82 2.54 2.54 0 0 0 .9.45 3.69 3.69 0 0 0 1.07.14 4.8 4.8 0 0 0 2.21-.53A11.86 11.86 0 0 0 56 97v-4.55a27.17 27.17 0 0 0-3.46.58 9 9 0 0 0-2.26.85A3.44 3.44 0 0 0 49 95a2.76 2.76 0 0 0-.36 1.45zM62 80.75h.78v17.57c0 .52.18.78.52.78h.17a1.13 1.13 0 0 0 .3 0l.16.68a2.11 2.11 0 0 1-.3.07 1.94 1.94 0 0 1-.38 0 1.14 1.14 0 0 1-.92-.38 2 2 0 0 1-.33-1.3zm5.56 12.58a8.27 8.27 0 0 1 .44-2.78 5.91 5.91 0 0 1 1.2-2 5 5 0 0 1 1.8-1.32 5.22 5.22 0 0 1 4.24 0 5 5 0 0 1 1.75 1.27 6.24 6.24 0 0 1 1.2 2 8.27 8.27 0 0 1 .44 2.78 8.09 8.09 0 0 1-.44 2.75 6.4 6.4 0 0 1-1.2 2 5.15 5.15 0 0 1-3.87 1.71 5.15 5.15 0 0 1-3.87-1.71 6.05 6.05 0 0 1-1.2-2 8.09 8.09 0 0 1-.49-2.7zm.83 0a7.31 7.31 0 0 0 .36 2.36 6.16 6.16 0 0 0 1 1.81 4.17 4.17 0 0 0 3.33 1.6 4.21 4.21 0 0 0 3.33-1.6 5.92 5.92 0 0 0 1-1.81 7.68 7.68 0 0 0 0-4.71 6 6 0 0 0-1-1.85 4.51 4.51 0 0 0-1.49-1.19 4 4 0 0 0-1.84-.43 4.06 4.06 0 0 0-1.85.43 4.58 4.58 0 0 0-1.48 1.19 6.27 6.27 0 0 0-1 1.85 7.38 7.38 0 0 0-.36 2.35zM82 102.12a3 3 0 0 1 .5-1.64 5.14 5.14 0 0 1 1.37-1.43V99a2.33 2.33 0 0 1-.78-.78 2.19 2.19 0 0 1-.31-1.2 2.15 2.15 0 0 1 .48-1.43 5.77 5.77 0 0 1 .87-.86v-.1a5 5 0 0 1-1.08-1.4 4.2 4.2 0 0 1-.48-2 4.67 4.67 0 0 1 .32-1.73 4.2 4.2 0 0 1 .95-1.5 4.49 4.49 0 0 1 1.35-.92 4.46 4.46 0 0 1 2.6-.25 5.14 5.14 0 0 1 .69.22h4.16v.73h-3a4.07 4.07 0 0 1 1.09 1.41 4.43 4.43 0 0 1 .41 1.92 4.76 4.76 0 0 1-.32 1.74 4.18 4.18 0 0 1-.91 1.4 4.35 4.35 0 0 1-1.37.94 4 4 0 0 1-1.66.34 4.91 4.91 0 0 1-1.12-.14 3.42 3.42 0 0 1-1-.43 4.47 4.47 0 0 0-.77.8 1.9 1.9 0 0 0-.32 1.12 2.15 2.15 0 0 0 .11.68 1.36 1.36 0 0 0 .39.54 2 2 0 0 0 .74.37 5 5 0 0 0 1.2.13h2.76a5.39 5.39 0 0 1 3 .67 2.42 2.42 0 0 1 1 2.13 3.37 3.37 0 0 1-.4 1.54 4.23 4.23 0 0 1-1.15 1.33 5.68 5.68 0 0 1-1.8.94 7.71 7.71 0 0 1-2.37.35 6.37 6.37 0 0 1-3.74-1 3 3 0 0 1-1.41-2.44zm.83-.05a2.36 2.36 0 0 0 1.12 2 5.53 5.53 0 0 0 3.19.78 6.35 6.35 0 0 0 2-.3 5.54 5.54 0 0 0 1.52-.76 3.5 3.5 0 0 0 1-1.08 2.6 2.6 0 0 0 .34-1.24 1.7 1.7 0 0 0-.77-1.56 4.4 4.4 0 0 0-2.23-.44h-3.42a6.28 6.28 0 0 1-.94-.17 4.18 4.18 0 0 0-1.36 1.36 3 3 0 0 0-.41 1.41zm4-7.23a3.26 3.26 0 0 0 1.3-.27 3.34 3.34 0 0 0 1.09-.76 3.66 3.66 0 0 0 1-2.66 4.06 4.06 0 0 0-.22-1.51 3.32 3.32 0 0 0-1.83-1.87 3.53 3.53 0 0 0-2.66 0 3.32 3.32 0 0 0-1.83 1.87 4.06 4.06 0 0 0-.27 1.51 3.77 3.77 0 0 0 1 2.66 3.45 3.45 0 0 0 1.09.76 3.26 3.26 0 0 0 1.37.27zM101 93.33a8 8 0 0 1 .44-2.78 6.05 6.05 0 0 1 1.19-2 5.25 5.25 0 0 1 3.88-1.72 5.14 5.14 0 0 1 2.12.45 5 5 0 0 1 1.75 1.27 6.24 6.24 0 0 1 1.2 2 8.27 8.27 0 0 1 .44 2.78 8.09 8.09 0 0 1-.44 2.75 6.4 6.4 0 0 1-1.2 2 5.15 5.15 0 0 1-3.87 1.71 5.26 5.26 0 0 1-2.12-.44 5.35 5.35 0 0 1-1.76-1.27 6.2 6.2 0 0 1-1.19-2 7.86 7.86 0 0 1-.44-2.75zm.83 0a7.31 7.31 0 0 0 .36 2.36 6.16 6.16 0 0 0 1 1.81 4.33 4.33 0 0 0 1.48 1.19 4.28 4.28 0 0 0 1.85.41 4.17 4.17 0 0 0 3.32-1.6 5.74 5.74 0 0 0 1-1.81 7.68 7.68 0 0 0 0-4.71 5.84 5.84 0 0 0-1-1.85 4.48 4.48 0 0 0-1.48-1.19 4 4 0 0 0-1.84-.43 4 4 0 0 0-1.85.43 4.58 4.58 0 0 0-1.48 1.19 6.27 6.27 0 0 0-1 1.85 7.38 7.38 0 0 0-.4 2.35zm12.51-6.24h.89l3 8.06c.21.61.42 1.21.65 1.81s.44 1.17.65 1.73h.1c.21-.56.43-1.13.65-1.73s.45-1.2.65-1.81l3-8.06h.83L120 99.52h-.94zm12.71 6.24a7.67 7.67 0 0 1 .46-2.73 6.56 6.56 0 0 1 1.19-2.06 5.19 5.19 0 0 1 1.71-1.3 4.65 4.65 0 0 1 2-.46 4.27 4.27 0 0 1 3.42 1.47 6.36 6.36 0 0 1 1.26 4.25v.4a1.71 1.71 0 0 1-.06.43h-9.14a7.07 7.07 0 0 0 .35 2.3 5.79 5.79 0 0 0 1 1.84 4.38 4.38 0 0 0 1.54 1.2 4.56 4.56 0 0 0 2 .43 5.37 5.37 0 0 0 1.9-.31 6.3 6.3 0 0 0 1.52-.79l.37.68a12.25 12.25 0 0 1-1.58.81 5.77 5.77 0 0 1-2.27.38 5.61 5.61 0 0 1-2.2-.44 5.29 5.29 0 0 1-1.8-1.29 5.93 5.93 0 0 1-1.22-2 7.66 7.66 0 0 1-.45-2.81zm9.26-.67a6 6 0 0 0-1.07-3.88 3.52 3.52 0 0 0-2.83-1.27 3.78 3.78 0 0 0-1.61.36 4.49 4.49 0 0 0-1.39 1 5.54 5.54 0 0 0-1 1.61 6.78 6.78 0 0 0-.5 2.15zm-6.71-11.49h.73l2 2.65h.1l2-2.65h.72l-2.44 3.48H132zm11.4 0h.73l2 2.65h.11l2-2.65h.72l-2.44 3.48h-.73zm.26 5.92h.68l.1 2.34h.05a6.66 6.66 0 0 1 1.51-1.89 3 3 0 0 1 2-.76 3.81 3.81 0 0 1 .59 0 2.7 2.7 0 0 1 .6.21l-.21.73a2.58 2.58 0 0 0-.52-.17 3.86 3.86 0 0 0-.57 0 2.94 2.94 0 0 0-1.79.74 6.37 6.37 0 0 0-1.7 2.6v8.63h-.78zm7.21 6.24a7.67 7.67 0 0 1 .46-2.73 6.56 6.56 0 0 1 1.19-2.06 5.15 5.15 0 0 1 1.7-1.3 4.68 4.68 0 0 1 2-.46 4.27 4.27 0 0 1 3.42 1.47 6.36 6.36 0 0 1 1.26 4.25v.4a1.67 1.67 0 0 1-.05.43h-9.15a7.35 7.35 0 0 0 .35 2.3 6 6 0 0 0 1 1.84 4.44 4.44 0 0 0 1.53 1.2 4.57 4.57 0 0 0 2 .43 5.37 5.37 0 0 0 1.9-.31 6.3 6.3 0 0 0 1.53-.83l.36.68a11.49 11.49 0 0 1-1.57.81 5.8 5.8 0 0 1-2.27.38 5.58 5.58 0 0 1-2.2-.44 5.32 5.32 0 0 1-1.81-1.29 6.09 6.09 0 0 1-1.22-2 7.89 7.89 0 0 1-.43-2.77zm9.25-.67a6 6 0 0 0-1.06-3.88 3.54 3.54 0 0 0-2.84-1.27 3.81 3.81 0 0 0-1.61.36 4.61 4.61 0 0 0-1.39 1 5.74 5.74 0 0 0-1 1.61 7.06 7.06 0 0 0-.51 2.15zm4.92-5.57h.67l.11 2h.05a12.22 12.22 0 0 1 2-1.64 4.23 4.23 0 0 1 2.31-.65 3.39 3.39 0 0 1 2.84 1.15 5.76 5.76 0 0 1 .91 3.58v8h-.78v-7.9a5.48 5.48 0 0 0-.71-3.1 2.61 2.61 0 0 0-2.31-1 3.93 3.93 0 0 0-2.14.62 12.09 12.09 0 0 0-2.17 1.85v9.51h-.78zm13.03 17.35a2.1 2.1 0 0 0 .56.07 2.48 2.48 0 0 0 2-1 8.22 8.22 0 0 0 1.34-2.54l.36-1.14-5.15-12.74h.89l3.17 8.17.68 1.71q.36.94.72 1.77h.11c.21-.55.41-1.14.61-1.77s.39-1.19.58-1.71l2.81-8.17h.83l-5 14.2a10.84 10.84 0 0 1-.58 1.44 6.4 6.4 0 0 1-.85 1.29 4.31 4.31 0 0 1-1.13.92 3 3 0 0 1-1.44.35A2.71 2.71 0 0 1 175 105l.21-.73a4 4 0 0 0 .46.17zm4-19.79h-.73l2.39-3.48h1zm7.87 8.68a8 8 0 0 1 .45-2.78 6.1 6.1 0 0 1 1.22-2 5.3 5.3 0 0 1 3.89-1.72 4.42 4.42 0 0 1 2.16.48 7.33 7.33 0 0 1 1.48 1.08l-.52.57a6.74 6.74 0 0 0-1.38-1 3.6 3.6 0 0 0-1.74-.4 4.1 4.1 0 0 0-1.86.43 4.69 4.69 0 0 0-1.51 1.19 5.86 5.86 0 0 0-1 1.85 7.38 7.38 0 0 0-.36 2.35 7.6 7.6 0 0 0 .34 2.36 5.31 5.31 0 0 0 1 1.81 4.18 4.18 0 0 0 1.49 1.19 4.55 4.55 0 0 0 1.94.41 4.12 4.12 0 0 0 1.93-.44 6.63 6.63 0 0 0 1.55-1.06l.47.57a7.63 7.63 0 0 1-1.76 1.18 4.89 4.89 0 0 1-2.19.48 5.52 5.52 0 0 1-2.21-.44 5.15 5.15 0 0 1-1.76-1.27 6.14 6.14 0 0 1-1.16-2 8.1 8.1 0 0 1-.47-2.84zm13.33-12.58h.78v8.37a13 13 0 0 1 2-1.67 4.13 4.13 0 0 1 2.33-.67 3.38 3.38 0 0 1 2.83 1.15 5.69 5.69 0 0 1 .91 3.58v8H209v-7.9a5.49 5.49 0 0 0-.7-3.1 2.63 2.63 0 0 0-2.32-1 3.93 3.93 0 0 0-2.14.62 12.45 12.45 0 0 0-2.19 1.87v9.51h-.78zm20.79 19.86v4.68h-.78v-18.2h.68l.1 1.62h.05a12.82 12.82 0 0 1 2-1.34 4.84 4.84 0 0 1 2.28-.59 4.33 4.33 0 0 1 3.76 1.73 7.79 7.79 0 0 1 1.25 4.61 8.6 8.6 0 0 1-.44 2.84 6.49 6.49 0 0 1-1.2 2.1 5.19 5.19 0 0 1-1.75 1.32 5.14 5.14 0 0 1-2.12.45 4.77 4.77 0 0 1-1.87-.4 9.86 9.86 0 0 1-2-1.16zm0-3.22a8.17 8.17 0 0 0 2.15 1.32 4.9 4.9 0 0 0 1.75.39 3.87 3.87 0 0 0 1.86-.44 4.52 4.52 0 0 0 1.47-1.23 6 6 0 0 0 1-1.9 8.4 8.4 0 0 0 .34-2.41 11.14 11.14 0 0 0-.23-2.22 5.17 5.17 0 0 0-.73-1.78 3.71 3.71 0 0 0-1.31-1.18 4.07 4.07 0 0 0-2-.43 4.36 4.36 0 0 0-2 .56 12.18 12.18 0 0 0-2.28 1.62zm13.91-10.3h.67l.11 2.34h.05a6.66 6.66 0 0 1 1.51-1.89 3 3 0 0 1 2-.76 3.81 3.81 0 0 1 .59 0 2.7 2.7 0 0 1 .6.21l-.21.73a2.8 2.8 0 0 0-.52-.17 4 4 0 0 0-.57 0 2.94 2.94 0 0 0-1.79.74 6.27 6.27 0 0 0-1.69 2.59v8.63h-.78zm7.25 6.24a8.27 8.27 0 0 1 .44-2.78 6.07 6.07 0 0 1 1.2-2 5 5 0 0 1 1.75-1.27 5.22 5.22 0 0 1 4.24 0 5 5 0 0 1 1.75 1.27 6.07 6.07 0 0 1 1.2 2 8.27 8.27 0 0 1 .44 2.78 8.09 8.09 0 0 1-.44 2.75 6.22 6.22 0 0 1-1.2 2 5.15 5.15 0 0 1-3.87 1.71 5.15 5.15 0 0 1-3.87-1.71 6.22 6.22 0 0 1-1.2-2 8.09 8.09 0 0 1-.44-2.75zm.83 0a7 7 0 0 0 .37 2.36 5.92 5.92 0 0 0 1 1.81 4.24 4.24 0 0 0 6.66 0 5.92 5.92 0 0 0 1-1.81 7.68 7.68 0 0 0 0-4.71 6 6 0 0 0-1-1.85 4.58 4.58 0 0 0-1.48-1.19 4.19 4.19 0 0 0-3.7 0 4.58 4.58 0 0 0-1.5 1.19 6 6 0 0 0-1 1.87 7.11 7.11 0 0 0-.35 2.33zm19.16-11.8a2.77 2.77 0 0 0-.77-.28 3.16 3.16 0 0 0-.74-.08 1.69 1.69 0 0 0-1.55.78 4.17 4.17 0 0 0-.48 2.18v3h3v.73h-3v11.7h-.78V87.82h-1.71v-.62l1.71-.11V84a4.05 4.05 0 0 1 .77-2.72 2.64 2.64 0 0 1 2.09-.87 4.13 4.13 0 0 1 1.72.42zm1.43 11.8a7.9 7.9 0 0 1 .45-2.73 6.58 6.58 0 0 1 1.2-2.06 5.05 5.05 0 0 1 1.7-1.3 4.68 4.68 0 0 1 2-.46 4.27 4.27 0 0 1 3.41 1.47 6.36 6.36 0 0 1 1.26 4.25v.4a2.27 2.27 0 0 1 0 .43h-9.15a7.35 7.35 0 0 0 .35 2.3 5.61 5.61 0 0 0 1 1.84 4.26 4.26 0 0 0 1.53 1.2 4.57 4.57 0 0 0 2 .43 5.28 5.28 0 0 0 1.89-.31 6.18 6.18 0 0 0 1.54-.83l.36.68a12.1 12.1 0 0 1-1.57.81 5.82 5.82 0 0 1-2.28.38 5.53 5.53 0 0 1-2.19-.44 5.23 5.23 0 0 1-1.81-1.29 5.93 5.93 0 0 1-1.22-2 7.89 7.89 0 0 1-.47-2.77zm9.25-.67a6 6 0 0 0-1.06-3.88 3.56 3.56 0 0 0-2.84-1.27 3.81 3.81 0 0 0-1.61.36 4.61 4.61 0 0 0-1.39 1 5.32 5.32 0 0 0-1 1.61 7.06 7.06 0 0 0-.51 2.15zm3.82 4.83a8.46 8.46 0 0 0 1.69 1.15 5.22 5.22 0 0 0 2.34.46 3.86 3.86 0 0 0 1.37-.22 3 3 0 0 0 1-.58 2.63 2.63 0 0 0 .6-.85 2.46 2.46 0 0 0 .21-1 2 2 0 0 0-.29-1.08 3.07 3.07 0 0 0-.73-.8 3.94 3.94 0 0 0-1-.59l-1.1-.44q-.74-.26-1.44-.54a7.57 7.57 0 0 1-1.3-.68 3.31 3.31 0 0 1-.95-.95 2.39 2.39 0 0 1-.37-1.36 3.05 3.05 0 0 1 .25-1.24 2.73 2.73 0 0 1 .74-1 3.74 3.74 0 0 1 1.22-.71 5.13 5.13 0 0 1 1.69-.26 5.19 5.19 0 0 1 1.85.35 6.2 6.2 0 0 1 1.58.9l-.47.62a7.37 7.37 0 0 0-1.32-.8 3.8 3.8 0 0 0-1.69-.34 3.91 3.91 0 0 0-1.35.21 2.64 2.64 0 0 0-.94.56 2.28 2.28 0 0 0-.54.78 2.26 2.26 0 0 0-.19.89 1.73 1.73 0 0 0 .26 1 2.94 2.94 0 0 0 .69.72 4.77 4.77 0 0 0 1 .54c.35.16.72.31 1.1.44l1.48.58a6.25 6.25 0 0 1 1.34.69 3.2 3.2 0 0 1 1 1 2.86 2.86 0 0 1 .38 1.52 3.26 3.26 0 0 1-.27 1.3 3.4 3.4 0 0 1-.78 1.09 3.9 3.9 0 0 1-1.28.75 4.72 4.72 0 0 1-1.73.29 6.16 6.16 0 0 1-2.54-.51 8.15 8.15 0 0 1-2-1.2zm12.56-13.57a.88.88 0 0 1-.63-.24.87.87 0 0 1-.24-.68.82.82 0 0 1 .26-.66 1 1 0 0 1 1.25 0 .82.82 0 0 1 .26.66.87.87 0 0 1-.26.64.88.88 0 0 1-.64.28zm-.42 3.17h.78v12.43h-.78zm5.33 6.24a8 8 0 0 1 .44-2.78 6.05 6.05 0 0 1 1.19-2 5.25 5.25 0 0 1 3.88-1.72 5.14 5.14 0 0 1 2.12.45 5 5 0 0 1 1.75 1.27 6.24 6.24 0 0 1 1.2 2 8.27 8.27 0 0 1 .44 2.78 8.09 8.09 0 0 1-.44 2.75 6.4 6.4 0 0 1-1.2 2 5.15 5.15 0 0 1-3.87 1.71 5.26 5.26 0 0 1-2.12-.44 5.35 5.35 0 0 1-1.76-1.27 6.2 6.2 0 0 1-1.19-2 7.86 7.86 0 0 1-.44-2.75zm.83 0a7.31 7.31 0 0 0 .36 2.36 6.16 6.16 0 0 0 1 1.81 4.33 4.33 0 0 0 1.48 1.19 4.28 4.28 0 0 0 1.85.41 4.17 4.17 0 0 0 3.32-1.6 5.74 5.74 0 0 0 1-1.81 7.68 7.68 0 0 0 0-4.71 5.84 5.84 0 0 0-1-1.85 4.48 4.48 0 0 0-1.48-1.19 4 4 0 0 0-1.84-.43 4 4 0 0 0-1.85.43 4.58 4.58 0 0 0-1.45 1.19 6.27 6.27 0 0 0-1 1.87 7.38 7.38 0 0 0-.39 2.33zm14.74-6.24h.65l.11 2h.05a12.22 12.22 0 0 1 2-1.64 4.23 4.23 0 0 1 2.31-.65 3.39 3.39 0 0 1 2.84 1.15 5.76 5.76 0 0 1 .91 3.58v8h-.78v-7.9a5.48 5.48 0 0 0-.71-3.1 2.61 2.61 0 0 0-2.31-1 3.93 3.93 0 0 0-2.14.62 12.09 12.09 0 0 0-2.15 1.85v9.51h-.78zm13.59 9.39a3.42 3.42 0 0 1 2-3.16 17.66 17.66 0 0 1 6.18-1.55 7.81 7.81 0 0 0-.09-1.52 4.17 4.17 0 0 0-.45-1.37 2.73 2.73 0 0 0-.95-1 3 3 0 0 0-1.58-.38 5.75 5.75 0 0 0-1.27.14 6.41 6.41 0 0 0-1.12.38c-.34.16-.66.32-.95.49a7.06 7.06 0 0 0-.71.5l-.42-.63.74-.49a7.2 7.2 0 0 1 1-.53 7.51 7.51 0 0 1 1.29-.42 6.34 6.34 0 0 1 1.46-.17 4 4 0 0 1 1.82.38 3.15 3.15 0 0 1 1.17 1 4.23 4.23 0 0 1 .62 1.49 8.53 8.53 0 0 1 .18 1.78v8.06h-.68l-.1-1.66h-.05a14.61 14.61 0 0 1-2.13 1.37 5.07 5.07 0 0 1-2.39.6 4.75 4.75 0 0 1-1.38-.19A3.19 3.19 0 0 1 325 99a2.83 2.83 0 0 1-.78-1 3.56 3.56 0 0 1-.28-1.52zm.83 0a3.06 3.06 0 0 0 .22 1.24 2.21 2.21 0 0 0 .61.82 2.54 2.54 0 0 0 .9.45 3.81 3.81 0 0 0 1.08.14 4.83 4.83 0 0 0 2.21-.53 11.53 11.53 0 0 0 2.31-1.6v-4.55a27.17 27.17 0 0 0-3.46.58 9.17 9.17 0 0 0-2.26.85 3.32 3.32 0 0 0-1.23 1.12 2.76 2.76 0 0 0-.38 1.45zm3.54-11.8h-.73l2.42-3.51h1zm9.85-3.93h.78v17.57c0 .52.17.78.52.78h.17a1 1 0 0 0 .29 0l.16.68a1.63 1.63 0 0 1-.3.07 1.87 1.87 0 0 1-.38 0 1.17 1.17 0 0 1-.92-.38 2 2 0 0 1-.32-1.28zm6.68 6.34h.78V95a5.47 5.47 0 0 0 .7 3.09 2.6 2.6 0 0 0 2.31 1 3.67 3.67 0 0 0 2.13-.65 10.68 10.68 0 0 0 2.13-2v-9.35h.78v12.43H353l-.11-2.13h-.05a9.65 9.65 0 0 1-1.95 1.77 4 4 0 0 1-2.31.67 3.39 3.39 0 0 1-2.83-1.14 5.74 5.74 0 0 1-.91-3.59zm4.52-1.55a1.93 1.93 0 0 1-1.44-.6 2.18 2.18 0 0 1-.59-1.59 2.16 2.16 0 0 1 .59-1.58 2 2 0 0 1 2.88 0 2.16 2.16 0 0 1 .59 1.58 2.18 2.18 0 0 1-.59 1.59 1.93 1.93 0 0 1-1.44.6zm0-.58a1.3 1.3 0 0 0 1-.43 1.62 1.62 0 0 0 .4-1.18 1.66 1.66 0 0 0-.4-1.18 1.38 1.38 0 0 0-2 0 1.66 1.66 0 0 0-.4 1.18 1.62 1.62 0 0 0 .4 1.18 1.3 1.3 0 0 0 1 .47zm8.71 17.83a3.88 3.88 0 0 0 1.32-1.26 3.5 3.5 0 0 0 .55-1.88 1.24 1.24 0 0 1-.31 0 1 1 0 0 1-.67-.24.88.88 0 0 1-.27-.7.85.85 0 0 1 .31-.71 1 1 0 0 1 .65-.24 1 1 0 0 1 .83.43 2 2 0 0 1 .31 1.18 4.14 4.14 0 0 1-.69 2.36 5.68 5.68 0 0 1-1.7 1.65zm12-5.3a8.75 8.75 0 0 0 1.72 1.15 5.22 5.22 0 0 0 2.34.46 3.92 3.92 0 0 0 1.38-.22 3 3 0 0 0 1-.58 2.63 2.63 0 0 0 .6-.85 2.46 2.46 0 0 0 .21-1 2 2 0 0 0-.29-1.08 3.21 3.21 0 0 0-.72-.8 4.32 4.32 0 0 0-1-.59l-1.11-.44c-.48-.17-1-.35-1.44-.54a7.57 7.57 0 0 1-1.3-.68 3.31 3.31 0 0 1-.95-.95 2.46 2.46 0 0 1-.36-1.36 3.22 3.22 0 0 1 .24-1.24 2.85 2.85 0 0 1 .74-1 3.68 3.68 0 0 1 1.23-.71 5 5 0 0 1 1.68-.26 5.19 5.19 0 0 1 1.85.35 6.27 6.27 0 0 1 1.59.9l-.47.62a7.82 7.82 0 0 0-1.33-.8 3.8 3.8 0 0 0-1.69-.34 3.91 3.91 0 0 0-1.35.21 2.51 2.51 0 0 0-.93.56 2.18 2.18 0 0 0-.55.78 2.25 2.25 0 0 0-.16.92 1.65 1.65 0 0 0 .26 1 2.61 2.61 0 0 0 .69.72 4.43 4.43 0 0 0 1 .54c.35.16.72.31 1.1.44l1.48.58a6 6 0 0 1 1.34.69 3.2 3.2 0 0 1 1 1 2.77 2.77 0 0 1 .38 1.52 3.26 3.26 0 0 1-.27 1.3 3.12 3.12 0 0 1-.78 1.09 3.85 3.85 0 0 1-1.27.75 4.76 4.76 0 0 1-1.73.29 6.18 6.18 0 0 1-2.55-.51 8.35 8.35 0 0 1-2-1.2zm12.14-16.74h.79v17.57c0 .52.17.78.52.78h.17a1.13 1.13 0 0 0 .3 0l.16.68a2.11 2.11 0 0 1-.3.07 1.94 1.94 0 0 1-.38 0 1.14 1.14 0 0 1-.92-.38 2 2 0 0 1-.33-1.28zm6.68 6.34h.78V95a5.56 5.56 0 0 0 .7 3.09 2.61 2.61 0 0 0 2.32 1 3.67 3.67 0 0 0 2.13-.65 10.68 10.68 0 0 0 2.13-2v-9.35h.78v12.43h-.68l-.1-2.13h-.05a10.22 10.22 0 0 1-1.9 1.77 4.1 4.1 0 0 1-2.32.67 3.41 3.41 0 0 1-2.83-1.14 5.81 5.81 0 0 1-.91-3.59zm12.66 12.01l7.64-11.28h-6.81v-.73h7.85v.42l-7.64 11.28h7.9v.73h-8.94zm2.11-17.93h.72l2 2.65h.1l2-2.65h.73l-2.44 3.48h-.73zM413 93.33a7.67 7.67 0 0 1 .46-2.73 6.56 6.56 0 0 1 1.19-2.06 5.05 5.05 0 0 1 1.7-1.3 4.68 4.68 0 0 1 2-.46 4.27 4.27 0 0 1 3.42 1.47A6.36 6.36 0 0 1 423 92.5v.4a1.67 1.67 0 0 1-.05.43h-9.15a7.35 7.35 0 0 0 .35 2.3 6 6 0 0 0 1 1.84 4.35 4.35 0 0 0 1.53 1.2 4.57 4.57 0 0 0 2 .43 5.37 5.37 0 0 0 1.9-.31 6.3 6.3 0 0 0 1.53-.83l.36.68a11.49 11.49 0 0 1-1.57.81 5.8 5.8 0 0 1-2.27.38 5.58 5.58 0 0 1-2.2-.44 5.32 5.32 0 0 1-1.81-1.29 6.09 6.09 0 0 1-1.22-2 7.89 7.89 0 0 1-.4-2.77zm9.25-.67a6 6 0 0 0-1.06-3.88 3.54 3.54 0 0 0-2.84-1.27 3.81 3.81 0 0 0-1.61.36 4.61 4.61 0 0 0-1.39 1 5.74 5.74 0 0 0-1 1.61 7.06 7.06 0 0 0-.51 2.15zm4.88-11.91h.78v5.57l-.06 2.49a12.51 12.51 0 0 1 2.15-1.43 4.87 4.87 0 0 1 2.3-.6 4.33 4.33 0 0 1 3.7 1.73 7.79 7.79 0 0 1 1.23 4.61 8.34 8.34 0 0 1-.44 2.84 6.3 6.3 0 0 1-1.19 2.1 5.23 5.23 0 0 1-1.76 1.32 5 5 0 0 1-4 .06 7.82 7.82 0 0 1-1.9-1.07l-.11 1.15h-.67zm.78 16.64a7.29 7.29 0 0 0 2.09 1.32 5.18 5.18 0 0 0 1.78.39 3.87 3.87 0 0 0 1.86-.44 4.32 4.32 0 0 0 1.47-1.23 5.57 5.57 0 0 0 1-1.9 8.07 8.07 0 0 0 .34-2.41 10.45 10.45 0 0 0-.22-2.22 5.17 5.17 0 0 0-.73-1.78 3.63 3.63 0 0 0-1.31-1.18 4.07 4.07 0 0 0-1.95-.43 4.54 4.54 0 0 0-2.07.56 10.6 10.6 0 0 0-2.24 1.62zm18.97-.91a3.43 3.43 0 0 1 2-3.16 17.79 17.79 0 0 1 6.12-1.55 7.81 7.81 0 0 0-.09-1.52 4 4 0 0 0-.46-1.37 2.63 2.63 0 0 0-.94-1 3 3 0 0 0-1.58-.38 5.75 5.75 0 0 0-1.27.14 6.41 6.41 0 0 0-1.12.38c-.34.16-.66.32-.95.49a7.06 7.06 0 0 0-.71.5l-.42-.63.74-.49a7.2 7.2 0 0 1 1-.53 7.51 7.51 0 0 1 1.29-.42 6.34 6.34 0 0 1 1.46-.17 4 4 0 0 1 1.82.38 3 3 0 0 1 1.16 1 4.07 4.07 0 0 1 .63 1.49 8.53 8.53 0 0 1 .18 1.78v8.06h-.68l-.1-1.66h.04a14.61 14.61 0 0 1-2.13 1.37 5.1 5.1 0 0 1-2.39.6 4.75 4.75 0 0 1-1.38-.19 3.19 3.19 0 0 1-1.1-.6 2.83 2.83 0 0 1-.78-1 3.56 3.56 0 0 1-.34-1.52zm.83 0a3.06 3.06 0 0 0 .22 1.24 2.21 2.21 0 0 0 .61.82 2.54 2.54 0 0 0 .9.45 3.81 3.81 0 0 0 1.08.14 4.83 4.83 0 0 0 2.21-.53A11.53 11.53 0 0 0 455 97v-4.55a27.17 27.17 0 0 0-3.46.58 9.17 9.17 0 0 0-2.26.85 3.32 3.32 0 0 0-1.19 1.12 2.76 2.76 0 0 0-.38 1.45zm19.18-9.39h.68l.1 2h.05a12.27 12.27 0 0 1 2-1.64 4.19 4.19 0 0 1 2.31-.65 3.37 3.37 0 0 1 2.83 1.15 5.69 5.69 0 0 1 .91 3.58v8H475v-7.9a5.49 5.49 0 0 0-.7-3.1 2.63 2.63 0 0 0-2.31-1 4 4 0 0 0-2.15.62 12.45 12.45 0 0 0-2.17 1.85v9.51h-.78zm13.6 9.39a3.41 3.41 0 0 1 2-3.16 17.79 17.79 0 0 1 6.19-1.55 9.76 9.76 0 0 0-.09-1.52 4 4 0 0 0-.46-1.37 2.58 2.58 0 0 0-1-1 2.94 2.94 0 0 0-1.57-.38 5.75 5.75 0 0 0-1.27.14 6.41 6.41 0 0 0-1.12.38 10.46 10.46 0 0 0-.95.49 7.06 7.06 0 0 0-.71.5l-.42-.63.74-.49a6.72 6.72 0 0 1 1-.53 7.51 7.51 0 0 1 1.29-.42 6.32 6.32 0 0 1 1.45-.17 3.93 3.93 0 0 1 1.82.38 3 3 0 0 1 1.17 1 4.25 4.25 0 0 1 .63 1.49 8.53 8.53 0 0 1 .18 1.78v8.06h-.68l-.1-1.66a14.19 14.19 0 0 1-2.14 1.37 5.07 5.07 0 0 1-2.39.6 4.73 4.73 0 0 1-1.37-.19 3.24 3.24 0 0 1-1.15-.6 2.83 2.83 0 0 1-.78-1 3.72 3.72 0 0 1-.27-1.52zm.83 0a3.06 3.06 0 0 0 .22 1.24 2.21 2.21 0 0 0 .61.82 2.54 2.54 0 0 0 .9.45 3.71 3.71 0 0 0 1.08.14 4.79 4.79 0 0 0 2.2-.53 11.29 11.29 0 0 0 2.32-1.6v-4.55a27.17 27.17 0 0 0-3.46.58 9 9 0 0 0-2.26.85 3.44 3.44 0 0 0-1.24 1.12 2.76 2.76 0 0 0-.37 1.45zm3.53-11.8h-.72l2.39-3.48h1zm8.76 12.81a8.46 8.46 0 0 0 1.72 1.15 5.22 5.22 0 0 0 2.34.46 3.82 3.82 0 0 0 1.37-.22 3 3 0 0 0 1-.58 2.63 2.63 0 0 0 .6-.85 2.46 2.46 0 0 0 .21-1 2 2 0 0 0-.29-1.08 3.07 3.07 0 0 0-.73-.8 3.94 3.94 0 0 0-1-.59l-1.1-.44q-.74-.26-1.44-.54a7.57 7.57 0 0 1-1.3-.68 3.31 3.31 0 0 1-1-.95 2.47 2.47 0 0 1-.37-1.36 3.23 3.23 0 0 1 .25-1.24 2.85 2.85 0 0 1 .74-1 3.74 3.74 0 0 1 1.22-.71 5.13 5.13 0 0 1 1.69-.26 5.19 5.19 0 0 1 1.85.35A6.2 6.2 0 0 1 501 88l-.46.62a7.82 7.82 0 0 0-1.33-.8 3.8 3.8 0 0 0-1.69-.34 3.91 3.91 0 0 0-1.35.21 2.64 2.64 0 0 0-.94.56 2.28 2.28 0 0 0-.54.78 2.25 2.25 0 0 0-.18.89 1.65 1.65 0 0 0 .26 1 2.61 2.61 0 0 0 .69.72 4.43 4.43 0 0 0 1 .54c.35.16.72.31 1.1.44l1.48.58a6 6 0 0 1 1.34.69 3.2 3.2 0 0 1 1 1 2.86 2.86 0 0 1 .38 1.52 3.26 3.26 0 0 1-.27 1.3 3.4 3.4 0 0 1-.78 1.09 3.9 3.9 0 0 1-1.28.75 4.67 4.67 0 0 1-1.72.29 6.18 6.18 0 0 1-2.55-.51 8.15 8.15 0 0 1-2-1.2zM506 87.82h-2v-.62l2-.11.1-3.63h.68v3.63h3.69v.73h-3.69v8.53a6.28 6.28 0 0 0 .09 1.1 2.26 2.26 0 0 0 .33.87 1.42 1.42 0 0 0 .66.57 2.48 2.48 0 0 0 1.1.21 2.83 2.83 0 0 0 .81-.13 6.76 6.76 0 0 0 .8-.28l.26.67a9.42 9.42 0 0 1-1.07.34 3.66 3.66 0 0 1-.85.13 3.46 3.46 0 0 1-1.42-.26 2.13 2.13 0 0 1-.89-.73 2.82 2.82 0 0 1-.47-1.13 7.38 7.38 0 0 1-.13-1.47zm8.25-.73h.67l.11 2.34h.05a6.66 6.66 0 0 1 1.51-1.89 3 3 0 0 1 2-.76 3.81 3.81 0 0 1 .59 0 2.7 2.7 0 0 1 .6.21l-.21.73a2.8 2.8 0 0 0-.52-.17 4 4 0 0 0-.57 0 2.94 2.94 0 0 0-1.79.74 6.27 6.27 0 0 0-1.69 2.6v8.63h-.78zm7.25 6.24a8.27 8.27 0 0 1 .44-2.78 6.24 6.24 0 0 1 1.2-2 5 5 0 0 1 1.75-1.27 5.22 5.22 0 0 1 4.24 0 5 5 0 0 1 1.75 1.27 6.07 6.07 0 0 1 1.2 2 8.27 8.27 0 0 1 .44 2.78 8.09 8.09 0 0 1-.44 2.75 6.22 6.22 0 0 1-1.2 2 5.15 5.15 0 0 1-3.88 1.75 5.15 5.15 0 0 1-3.87-1.71 6.4 6.4 0 0 1-1.2-2 8.09 8.09 0 0 1-.43-2.79zm.83 0a7 7 0 0 0 .37 2.36 5.92 5.92 0 0 0 1 1.81 4.3 4.3 0 0 0 5.18 1.19 4.33 4.33 0 0 0 1.48-1.19 6.16 6.16 0 0 0 1-1.81 7.88 7.88 0 0 0 0-4.71 6.27 6.27 0 0 0-1-1.85 4.58 4.58 0 0 0-1.48-1.19 4 4 0 0 0-1.85-.43 4 4 0 0 0-1.84.43 4.51 4.51 0 0 0-1.49 1.19 6 6 0 0 0-1 1.85 7.11 7.11 0 0 0-.37 2.35zm14.74-6.24h.78v15.08a4.36 4.36 0 0 1-.62 2.61 2.27 2.27 0 0 1-1.93.82 3.7 3.7 0 0 1-.8-.09 3.22 3.22 0 0 1-.7-.22l.2-.68.6.17a3.08 3.08 0 0 0 .75.09 1.68 1.68 0 0 0 .89-.21 1.34 1.34 0 0 0 .52-.58 3.09 3.09 0 0 0 .25-.9 9.66 9.66 0 0 0 .06-1.11zm.42-3.17a.88.88 0 0 1-.63-.24.87.87 0 0 1-.26-.64.82.82 0 0 1 .26-.66 1 1 0 0 1 1.25 0 .82.82 0 0 1 .26.66.87.87 0 0 1-.26.64.88.88 0 0 1-.62.24zm6.05 3.17h.78V95a5.56 5.56 0 0 0 .7 3.09 2.61 2.61 0 0 0 2.32 1 3.67 3.67 0 0 0 2.13-.65 10.68 10.68 0 0 0 2.13-2v-9.35h.78v12.43h-.68l-.1-2.13h-.05a10.22 10.22 0 0 1-1.95 1.77 4.1 4.1 0 0 1-2.32.67 3.41 3.41 0 0 1-2.83-1.14 5.74 5.74 0 0 1-.91-3.59zm4.52-1.55a1.93 1.93 0 0 1-1.44-.6 2.18 2.18 0 0 1-.58-1.59 2.15 2.15 0 0 1 .58-1.58 2 2 0 0 1 2.89 0 2.15 2.15 0 0 1 .58 1.58 2.18 2.18 0 0 1-.58 1.59 1.94 1.94 0 0 1-1.45.6zm0-.58a1.32 1.32 0 0 0 1-.43 1.67 1.67 0 0 0 .4-1.18 1.7 1.7 0 0 0-.4-1.18 1.39 1.39 0 0 0-2 0 1.66 1.66 0 0 0-.4 1.18 1.62 1.62 0 0 0 .4 1.18 1.32 1.32 0 0 0 1 .47z" transform="matrix(1 0 0 1.00343 -12.38 -16.055)" id="Vrstva_2" data-name="Vrstva 2" bx:origin="0 0"/></svg>