<?xml version="1.0" encoding="UTF-8"?>
<svg width="206.38" height="32.087" version="1.1" viewBox="0 0 206.3808 32.086666" xml:space="preserve" xmlns="http://www.w3.org/2000/svg" xmlns:cc="http://creativecommons.org/ns#" xmlns:dc="http://purl.org/dc/elements/1.1/" xmlns:rdf="http://www.w3.org/1999/02/22-rdf-syntax-ns#"><metadata><rdf:RDF><cc:Work rdf:about=""><dc:format>image/svg+xml</dc:format><dc:type rdf:resource="http://purl.org/dc/dcmitype/StillImage"/><dc:title/></cc:Work></rdf:RDF></metadata><defs><clipPath id="a"><path d="M 0,25.667 H 163.709 V 0 H 0 Z"/></clipPath></defs><g transform="matrix(1.3333 0 0 -1.3333 0 32.608)"><g clip-path="url(#a)"><g transform="translate(29.22 6.4804)"><path d="m0 0c-1e-3 -0.811-0.279-1.483-0.836-2.018-0.558-0.534-1.243-0.801-2.058-0.801-1.179 0-2.12 0.451-2.823 1.354l0.773 0.88c0.626-0.704 1.291-1.056 1.993-1.056 0.461 0 0.872 0.151 1.232 0.452s0.541 0.68 0.541 1.136c0 0.462-0.214 0.869-0.641 1.22-0.212 0.176-0.627 0.422-1.247 0.738-0.708 0.363-1.226 0.723-1.553 1.081-0.445 0.481-0.668 1.055-0.667 1.724-1e-3 0.745 0.25 1.353 0.752 1.825 0.501 0.472 1.124 0.708 1.869 0.708 0.879 0 1.765-0.431 2.657-1.293l-0.791-0.817c-0.656 0.632-1.296 0.949-1.922 0.95-0.381-1e-3 -0.718-0.127-1.01-0.377-0.293-0.251-0.439-0.563-0.438-0.936-1e-3 -0.63 0.607-1.26 1.826-1.889 0.748-0.389 1.292-0.759 1.632-1.11 0.474-0.494 0.71-1.084 0.711-1.771" fill="#90d12a"/></g><g transform="translate(39.016 3.9073)"><path d="m0 0h-1.24v4.561c0 1.1-0.044 1.835-0.132 2.205-0.304 1.271-1.105 1.906-2.403 1.907-0.743-1e-3 -1.408-0.245-1.995-0.734-0.588-0.489-0.975-1.099-1.161-1.832-0.118-0.457-0.176-1.324-0.176-2.6v-3.507h-1.24v13.265h1.24v-5.41c0.99 1.307 2.184 1.961 3.585 1.961 0.696 0 1.324-0.178 1.884-0.532 0.559-0.355 0.972-0.843 1.238-1.464 0.267-0.623 0.4-1.587 0.4-2.894z" fill="#90d12a"/></g><g transform="translate(50.446 8.6667)"><path d="m0 0c-1e-3 -1.408-0.479-2.594-1.434-3.558-0.956-0.965-2.138-1.447-3.545-1.448-1.408 1e-3 -2.591 0.481-3.55 1.443-0.958 0.961-1.438 2.149-1.438 3.563 0 1.324 0.44 2.474 1.32 3.448 0.967 1.072 2.19 1.608 3.668 1.609 1.471-1e-3 2.691-0.534 3.659-1.6 0.88-0.974 1.319-2.127 1.32-3.457m-1.258-0.027c-1e-3 1.053-0.359 1.961-1.075 2.725-0.717 0.763-1.599 1.145-2.646 1.145-1.048 0-1.93-0.382-2.646-1.145-0.717-0.764-1.075-1.672-1.074-2.725-1e-3 -0.679 0.16-1.314 0.482-1.905 0.333-0.608 0.786-1.076 1.36-1.404 0.573-0.327 1.199-0.491 1.878-0.491 1.451 0 2.524 0.623 3.22 1.87 0.334 0.596 0.5 1.239 0.501 1.93" fill="#90d12a"/></g><g transform="translate(62 8.719)"><path d="m0 0c0-1.396-0.469-2.584-1.406-3.563-0.949-0.996-2.115-1.494-3.497-1.495-1.518 1e-3 -2.795 0.63-3.832 1.891v-5.146h-1.231v13.071h1.231v-1.759c0.973 1.337 2.238 2.005 3.796 2.006 1.377-1e-3 2.544-0.49 3.503-1.469 0.957-0.98 1.436-2.159 1.436-3.536m-1.249-0.044c-1e-3 0.678-0.17 1.322-0.509 1.931-0.34 0.607-0.801 1.08-1.382 1.417-0.583 0.335-1.216 0.504-1.9 0.505-1.089-1e-3 -1.991-0.375-2.707-1.124-0.717-0.749-1.076-1.671-1.076-2.764 0-1.522 0.629-2.634 1.887-3.335 0.602-0.34 1.24-0.509 1.914-0.509 0.678 0 1.31 0.175 1.895 0.527 0.567 0.344 1.022 0.821 1.365 1.43 0.342 0.608 0.512 1.248 0.513 1.922" fill="#90d12a"/></g><g transform="translate(67.857 12.413)"><path d="m0 0h-1.953v-8.506h-1.248v8.506h-1.681v1.064h1.681v3.554h1.248v-3.554h1.953z" fill="#5f9a3c"/></g><g transform="translate(78.38 8.5958)"><path d="m0 0h-8.594c0.023-1.071 0.356-1.964 1.001-2.676 0.679-0.75 1.546-1.124 2.601-1.124 1.019 0 1.883 0.31 2.592 0.929 0.322 0.28 0.67 0.733 1.045 1.358l1.038-0.545c-0.646-1.262-1.54-2.112-2.683-2.551-0.558-0.217-1.188-0.325-1.891-0.326-1.437 1e-3 -2.626 0.475-3.567 1.425s-1.412 2.144-1.412 3.581c0 1.213 0.373 2.295 1.118 3.245 0.943 1.207 2.207 1.811 3.791 1.812 1.63-1e-3 2.931-0.619 3.905-1.856 0.692-0.88 1.044-1.971 1.056-3.272m-1.346 1.073c-0.306 1.206-0.959 2.042-1.962 2.509-0.516 0.239-1.059 0.358-1.627 0.358-0.939 0-1.745-0.3-2.419-0.9-0.493-0.438-0.865-1.093-1.117-1.967z" fill="#5f9a3c"/></g><g transform="translate(84.232 12.413)"><path d="m0 0h-1.953v-8.506h-1.248v8.506h-1.681v1.064h1.681v3.554h1.248v-3.554h1.953z" fill="#5f9a3c"/></g><path d="m0 13.62h10.167v-10.168h-10.167z" fill="#90d12a"/><path d="m10.836 13.62h10.167v-10.168h-10.167z" fill="#4fb4e9"/><path d="m5.351 24.456h10.167v-10.168h-10.167z" fill="#f79528"/><g transform="translate(94.247 12.359)"><path d="m0 0c-1.034 0-1.904-0.361-2.612-1.083-0.707-0.723-1.06-1.621-1.06-2.696 0-0.705 0.157-1.339 0.473-1.902 0.315-0.563 0.767-1.009 1.354-1.339 0.588-0.33 1.209-0.495 1.862-0.495 0.642 0 1.245 0.166 1.81 0.499s1.016 0.798 1.351 1.395 0.502 1.222 0.502 1.876c0 0.66-0.166 1.285-0.498 1.877-0.333 0.591-0.779 1.051-1.342 1.377-0.562 0.327-1.176 0.491-1.84 0.491m-4.782 0.914h1.195v-1.708c0.472 0.649 1.016 1.136 1.63 1.46 0.614 0.325 1.299 0.487 2.056 0.487 1.319 0 2.448-0.476 3.386-1.426 0.939-0.951 1.408-2.096 1.408-3.433 0-1.367-0.465-2.527-1.395-3.48-0.929-0.954-2.051-1.431-3.365-1.431-0.74 0-1.419 0.154-2.039 0.461-0.62 0.308-1.181 0.766-1.681 1.375v-4.996h-1.195z" fill="#6f7375"/></g><g transform="translate(94.247 12.168)"><path d="m0 0c-0.975 0-1.808-0.345-2.475-1.026-0.668-0.682-1.006-1.544-1.006-2.562 0-0.668 0.151-1.277 0.448-1.809 0.296-0.529 0.727-0.954 1.282-1.266 1.101-0.616 2.404-0.631 3.481 3e-3 0.534 0.314 0.965 0.759 1.281 1.323 0.318 0.564 0.478 1.164 0.478 1.784 0 0.623-0.159 1.223-0.474 1.782-0.314 0.56-0.742 0.999-1.271 1.307-0.53 0.308-1.117 0.464-1.744 0.464m0.017-7.515c-0.683 0-1.341 0.175-1.955 0.519-0.617 0.346-1.097 0.822-1.428 1.413-0.33 0.589-0.497 1.26-0.497 1.995 0 1.122 0.375 2.074 1.115 2.829 0.742 0.758 1.666 1.141 2.748 1.141 0.695 0 1.347-0.174 1.936-0.516 0.589-0.343 1.064-0.83 1.412-1.449 0.347-0.618 0.523-1.281 0.523-1.97 0-0.686-0.177-1.349-0.527-1.971-0.349-0.623-0.828-1.116-1.42-1.466-0.592-0.348-1.234-0.525-1.907-0.525m-4.608-3.879h0.813v4.804c0 0.081 0.051 0.153 0.127 0.18 0.075 0.027 0.16 4e-3 0.212-0.058 0.48-0.585 1.024-1.031 1.618-1.325 0.59-0.293 1.248-0.442 1.954-0.442 1.254 0 2.34 0.462 3.228 1.373 0.89 0.913 1.341 2.039 1.341 3.347 0 1.28-0.455 2.39-1.353 3.299-0.896 0.908-1.99 1.369-3.25 1.369-0.721 0-1.383-0.156-1.967-0.464-0.585-0.309-1.112-0.782-1.565-1.404-0.048-0.067-0.134-0.093-0.213-0.07-0.078 0.026-0.132 0.1-0.132 0.182v1.517h-0.813zm1.004-0.383h-1.195c-0.106 0-0.192 0.086-0.192 0.191v12.691c0 0.105 0.086 0.191 0.192 0.191h1.195c0.105 0 0.191-0.086 0.191-0.191v-1.163c0.405 0.46 0.857 0.824 1.35 1.084 0.639 0.338 1.361 0.509 2.145 0.509 1.366 0 2.551-0.499 3.522-1.483 0.971-0.983 1.464-2.183 1.464-3.567 0-1.411-0.488-2.627-1.45-3.614-0.963-0.987-2.141-1.488-3.502-1.488-0.766 0-1.48 0.162-2.124 0.481-0.505 0.251-0.977 0.602-1.405 1.045v-4.495c0-0.105-0.086-0.191-0.191-0.191" fill="#6f7375"/></g><g transform="translate(105.77 12.359)"><path d="m0 0c-0.666 0-1.279-0.164-1.843-0.491-0.563-0.326-1.01-0.786-1.343-1.377-0.333-0.592-0.499-1.217-0.499-1.877 0-0.654 0.168-1.279 0.503-1.876s0.786-1.062 1.352-1.395 1.173-0.499 1.822-0.499c0.653 0 1.273 0.165 1.859 0.495s1.036 0.776 1.352 1.339c0.315 0.563 0.473 1.197 0.473 1.902 0 1.075-0.353 1.973-1.061 2.696-0.709 0.722-1.58 1.083-2.615 1.083m4.778 0.914v-9.292h-1.178v1.597c-0.501-0.609-1.064-1.067-1.687-1.375-0.623-0.307-1.306-0.461-2.045-0.461-1.315 0-2.439 0.477-3.37 1.431-0.93 0.953-1.396 2.113-1.396 3.48 0 1.337 0.47 2.482 1.409 3.433 0.94 0.95 2.07 1.426 3.391 1.426 0.763 0 1.453-0.162 2.07-0.487 0.619-0.324 1.16-0.811 1.628-1.46v1.708z" fill="#6f7375"/></g><g transform="translate(105.77 12.168)"><path d="m0 0c-0.628 0-1.215-0.156-1.747-0.464-0.53-0.308-0.958-0.748-1.273-1.307s-0.474-1.158-0.474-1.782c0-0.619 0.161-1.218 0.478-1.783 0.317-0.564 0.748-1.01 1.283-1.324 1.071-0.631 2.388-0.624 3.491-3e-3 0.551 0.311 0.982 0.737 1.278 1.267 0.298 0.531 0.449 1.14 0.449 1.808 0 1.018-0.339 1.881-1.006 2.562-0.678 0.691-1.489 1.026-2.479 1.026m-8e-3 -7.515c-0.68 0-1.325 0.177-1.919 0.525-0.594 0.35-1.072 0.843-1.422 1.467-0.349 0.622-0.527 1.285-0.527 1.97 0 0.69 0.176 1.353 0.524 1.97 0.347 0.619 0.823 1.106 1.413 1.449 0.591 0.342 1.243 0.516 1.939 0.516 1.083 0 2.008-0.383 2.751-1.14 0.74-0.756 1.116-1.708 1.116-2.83 0-0.735-0.168-1.406-0.497-1.995-0.333-0.592-0.812-1.067-1.425-1.413-0.612-0.344-1.27-0.519-1.953-0.519m-0.09 8.668c-1.262 0-2.357-0.461-3.254-1.369-0.899-0.909-1.354-2.019-1.354-3.299 0-1.309 0.451-2.435 1.341-3.347 0.889-0.911 1.976-1.373 3.233-1.373 0.706 0 1.367 0.149 1.96 0.442 0.597 0.294 1.144 0.74 1.624 1.325 0.051 0.062 0.134 0.085 0.212 0.058 0.075-0.027 0.127-0.099 0.127-0.18v-1.405h0.796v8.909h-0.796v-1.517c0-0.083-0.054-0.156-0.133-0.182-0.08-0.023-0.165 3e-3 -0.213 0.071-0.449 0.622-0.974 1.094-1.561 1.402-0.588 0.309-1.254 0.465-1.982 0.465m-0.034-9.77c-1.363 0-2.542 0.501-3.507 1.488-0.962 0.987-1.45 2.202-1.45 3.614 0 1.384 0.493 2.584 1.464 3.567 0.973 0.984 2.159 1.483 3.527 1.483 0.791 0 1.517-0.171 2.159-0.508 0.494-0.26 0.945-0.622 1.347-1.082v1.16c0 0.105 0.086 0.191 0.192 0.191h1.178c0.106 0 0.191-0.086 0.191-0.191v-9.292c0-0.105-0.085-0.191-0.191-0.191h-1.178c-0.106 0-0.192 0.086-0.192 0.191v1.096c-0.43-0.443-0.902-0.794-1.411-1.045-0.647-0.319-1.363-0.481-2.129-0.481" fill="#6f7375"/></g><g transform="translate(112.7 13.273)"><path d="m0 0h1.222v-1.358c0.364 0.535 0.748 0.935 1.152 1.2 0.405 0.265 0.825 0.397 1.265 0.397 0.33 0 0.682-0.105 1.058-0.316l-0.623-1.008c-0.251 0.109-0.461 0.163-0.632 0.163-0.398 0-0.783-0.164-1.153-0.491-0.37-0.328-0.652-0.836-0.845-1.525-0.149-0.529-0.222-1.6-0.222-3.211v-3.143h-1.222z" fill="#6f7375"/></g><g transform="translate(112.89 4.1726)"><path d="m0 0h0.839v2.951c0 1.646 0.076 2.713 0.23 3.263 0.201 0.721 0.505 1.264 0.902 1.616 0.404 0.358 0.834 0.539 1.28 0.539 0.161 0 0.343-0.038 0.554-0.116l0.43 0.696c-0.742 0.351-1.343 0.23-1.948-0.167-0.38-0.249-0.75-0.635-1.099-1.147-0.048-0.07-0.134-0.102-0.214-0.075-0.08 0.025-0.135 0.099-0.135 0.183v1.166h-0.839zm1.03-0.382h-1.221c-0.106 0-0.191 0.085-0.191 0.191v9.291c0 0.106 0.085 0.192 0.191 0.192h1.221c0.106 0 0.192-0.086 0.192-0.192v-0.786c0.274 0.33 0.561 0.594 0.857 0.788 0.766 0.502 1.59 0.61 2.52 0.088 0.046-0.025 0.079-0.068 0.092-0.118 0.013-0.051 5e-3 -0.104-0.023-0.149l-0.623-1.007c-0.049-0.081-0.151-0.113-0.238-0.075-0.225 0.097-0.413 0.146-0.556 0.146-0.349 0-0.695-0.149-1.026-0.443-0.341-0.302-0.607-0.784-0.789-1.433-0.143-0.509-0.214-1.572-0.214-3.16v-3.142c0-0.106-0.086-0.191-0.192-0.191" fill="#6f7375"/></g><g transform="translate(120.36 16.723)"><path d="m0 0h1.195v-3.45h1.896v-1.034h-1.896v-8.258h-1.195v8.258h-1.631v1.034h1.631z" fill="#6f7375"/></g><g transform="translate(120.56 4.1726)"><path d="m0 0h0.813v8.067c0 0.106 0.086 0.191 0.191 0.191h1.705v0.651h-1.705c-0.105 0-0.191 0.086-0.191 0.191v3.26h-0.813v-3.26c0-0.105-0.086-0.191-0.191-0.191h-1.44v-0.651h1.44c0.105 0 0.191-0.085 0.191-0.191zm1.004-0.382h-1.195c-0.106 0-0.191 0.085-0.191 0.191v8.067h-1.44c-0.106 0-0.191 0.086-0.191 0.191v1.033c0 0.106 0.085 0.192 0.191 0.192h1.44v3.259c0 0.105 0.085 0.191 0.191 0.191h1.195c0.106 0 0.191-0.086 0.191-0.191v-3.259h1.705c0.105 0 0.191-0.086 0.191-0.192v-1.033c0-0.105-0.086-0.191-0.191-0.191h-1.705v-8.067c0-0.106-0.085-0.191-0.191-0.191" fill="#6f7375"/></g><g transform="translate(125.16 13.273)"><path d="m0 0h1.195v-1.665c0.479 0.637 1.008 1.114 1.589 1.43s1.213 0.474 1.895 0.474c0.695 0 1.311-0.177 1.85-0.529 0.538-0.353 0.935-0.829 1.191-1.427 0.256-0.597 0.384-1.528 0.384-2.792v-4.783h-1.195v4.433c0 1.07-0.045 1.784-0.133 2.143-0.139 0.615-0.405 1.078-0.798 1.388-0.392 0.31-0.905 0.465-1.537 0.465-0.723 0-1.371-0.239-1.943-0.717s-0.95-1.07-1.132-1.776c-0.114-0.461-0.171-1.304-0.171-2.528v-3.408h-1.195z" fill="#6f7375"/></g><g transform="translate(132.26 4.1726)"><path d="m0 0h0.813v4.591c0 1.231-0.124 2.145-0.368 2.718-0.241 0.559-0.618 1.011-1.121 1.341-0.505 0.331-1.091 0.498-1.745 0.498-0.647 0-1.254-0.151-1.804-0.45-0.553-0.301-1.067-0.764-1.527-1.378-0.05-0.065-0.134-0.092-0.213-0.066-0.078 0.026-0.131 0.099-0.131 0.181v1.474h-0.813v-8.909h0.813v3.216c0 1.252 0.058 2.093 0.176 2.574 0.192 0.744 0.594 1.375 1.196 1.877 0.604 0.506 1.299 0.762 2.064 0.762 0.674 0 1.231-0.171 1.657-0.507s0.717-0.84 0.865-1.496c0.092-0.374 0.138-1.09 0.138-2.185zm1.004-0.382h-1.195c-0.106 0-0.191 0.085-0.191 0.191v4.432c0 1.049-0.043 1.755-0.128 2.098-0.129 0.571-0.375 1.002-0.73 1.284-0.356 0.281-0.834 0.424-1.42 0.424-0.674 0-1.285-0.226-1.82-0.673-0.539-0.45-0.899-1.015-1.069-1.677-0.11-0.442-0.165-1.278-0.165-2.481v-3.407c0-0.106-0.085-0.191-0.191-0.191h-1.195c-0.106 0-0.191 0.085-0.191 0.191v9.291c0 0.106 0.085 0.192 0.191 0.192h1.195c0.106 0 0.191-0.086 0.191-0.192v-1.129c0.403 0.453 0.841 0.81 1.306 1.062 0.607 0.33 1.276 0.498 1.987 0.498 0.729 0 1.387-0.189 1.954-0.562 0.568-0.372 0.993-0.88 1.262-1.51 0.266-0.62 0.4-1.585 0.4-2.868v-4.782c0-0.106-0.085-0.191-0.191-0.191" fill="#6f7375"/></g><g transform="translate(143.56 9.5668)"><path d="m0 0c-0.159 0.637-0.392 1.147-0.697 1.528-0.305 0.382-0.707 0.69-1.209 0.923s-1.03 0.35-1.583 0.35c-0.912 0-1.695-0.293-2.35-0.88-0.48-0.427-0.842-1.067-1.087-1.921zm0-2.502 1.008-0.53c-0.33-0.649-0.712-1.173-1.145-1.571-0.434-0.399-0.92-0.702-1.462-0.91-0.541-0.208-1.154-0.311-1.838-0.311-1.516 0-2.701 0.496-3.556 1.49-0.854 0.993-1.282 2.116-1.282 3.369 0 1.179 0.362 2.229 1.085 3.151 0.918 1.173 2.146 1.759 3.685 1.759 1.584 0 2.849-0.601 3.795-1.802 0.672-0.848 1.015-1.907 1.026-3.176h-8.361c0.022-1.08 0.367-1.965 1.034-2.655 0.668-0.69 1.491-1.035 2.471-1.035 0.474 0 0.934 0.082 1.381 0.247 0.448 0.165 0.828 0.383 1.142 0.655s0.652 0.712 1.017 1.319" fill="#6f7375"/></g><g transform="translate(136.9 9.7579)"><path d="m0 0h6.417c-0.149 0.499-0.348 0.908-0.596 1.218-0.286 0.357-0.67 0.649-1.141 0.869-0.474 0.221-0.98 0.332-1.502 0.332-0.859 0-1.607-0.279-2.223-0.831-0.404-0.36-0.725-0.893-0.955-1.588m6.667-0.382h-6.926c-0.06 0-0.117 0.028-0.153 0.076s-0.048 0.11-0.031 0.168c0.255 0.885 0.639 1.562 1.143 2.011 0.689 0.616 1.523 0.928 2.478 0.928 0.578 0 1.138-0.124 1.663-0.368 0.526-0.245 0.956-0.573 1.278-0.976 0.321-0.402 0.567-0.94 0.733-1.602 0.014-0.057 1e-3 -0.117-0.035-0.164-0.036-0.046-0.092-0.073-0.15-0.073m-3.506 3.945c-1.469 0-2.658-0.567-3.534-1.685-0.693-0.884-1.044-1.905-1.044-3.034 0-1.199 0.415-2.291 1.235-3.245 0.813-0.945 1.961-1.423 3.411-1.423 0.658 0 1.254 0.1 1.77 0.298 0.515 0.198 0.986 0.491 1.401 0.872 0.378 0.348 0.719 0.801 1.016 1.351l-0.68 0.357c-0.343-0.55-0.658-0.947-0.962-1.211-0.329-0.286-0.733-0.518-1.2-0.689-0.466-0.172-0.953-0.259-1.447-0.259-1.029 0-1.906 0.368-2.609 1.093-0.698 0.723-1.064 1.66-1.088 2.784-1e-3 0.051 0.019 0.101 0.055 0.137 0.036 0.037 0.085 0.058 0.136 0.058h8.165c-0.041 1.136-0.371 2.099-0.979 2.867-0.905 1.148-2.131 1.729-3.646 1.729m0.068-9.77c-1.566 0-2.811 0.524-3.7 1.557-0.882 1.025-1.329 2.201-1.329 3.494 0 1.217 0.38 2.317 1.127 3.269 0.951 1.216 2.241 1.832 3.834 1.832 1.638 0 2.966-0.63 3.946-1.874 0.695-0.879 1.054-1.987 1.066-3.294 0-0.051-0.019-0.1-0.055-0.136s-0.084-0.057-0.136-0.057h-8.162c0.057-0.937 0.384-1.721 0.973-2.33 0.636-0.657 1.399-0.977 2.334-0.977 0.448 0 0.891 0.079 1.315 0.235s0.788 0.364 1.082 0.62c0.296 0.257 0.626 0.685 0.978 1.273 0.054 0.086 0.165 0.116 0.253 0.071l1.008-0.53c0.093-0.048 0.129-0.162 0.082-0.255-0.338-0.666-0.737-1.213-1.186-1.626-0.451-0.414-0.963-0.733-1.524-0.947-0.559-0.215-1.201-0.325-1.906-0.325" fill="#6f7375"/></g><g transform="translate(146.57 13.273)"><path d="m0 0h1.222v-1.358c0.364 0.535 0.748 0.935 1.152 1.2 0.405 0.265 0.825 0.397 1.265 0.397 0.33 0 0.682-0.105 1.058-0.316l-0.623-1.008c-0.251 0.109-0.461 0.163-0.632 0.163-0.398 0-0.783-0.164-1.153-0.491-0.37-0.328-0.652-0.836-0.845-1.525-0.149-0.529-0.222-1.6-0.222-3.211v-3.143h-1.222zm2.528 1.682h-1.187l-2.477 2.195h1.546l1.504-1.298 1.564 1.298h1.586z" fill="#6f7375"/></g><g transform="translate(147.98 15.146)"><path d="m0 0h1.043l2.095 1.813h-1.004l-1.512-1.254c-0.073-0.06-0.176-0.058-0.247 2e-3l-1.449 1.252h-0.972zm1.114-0.382h-1.187c-0.046 0-0.091 0.017-0.127 0.048l-2.476 2.195c-0.06 0.053-0.081 0.136-0.052 0.211 0.028 0.074 0.099 0.123 0.179 0.123h1.546c0.045 0 0.09-0.017 0.125-0.046l1.381-1.193 1.439 1.195c0.035 0.028 0.078 0.044 0.123 0.044h1.586c0.08 0 0.151-0.05 0.179-0.124 0.028-0.075 6e-3 -0.159-0.054-0.212l-2.537-2.195c-0.034-0.03-0.079-0.046-0.125-0.046m-2.337-10.592h0.84v2.952c0 1.645 0.075 2.712 0.229 3.262 0.202 0.721 0.506 1.264 0.903 1.616 0.404 0.358 0.833 0.539 1.279 0.539 0.162 0 0.343-0.038 0.554-0.116l0.431 0.696c-0.743 0.352-1.343 0.23-1.948-0.166-0.381-0.25-0.751-0.636-1.1-1.148-0.047-0.069-0.134-0.102-0.213-0.074-0.08 0.024-0.135 0.098-0.135 0.182v1.166h-0.84zm1.031-0.382h-1.222c-0.105 0-0.191 0.086-0.191 0.191v9.292c0 0.105 0.086 0.191 0.191 0.191h1.222c0.105 0 0.191-0.086 0.191-0.191v-0.787c0.274 0.331 0.561 0.594 0.857 0.788 0.767 0.501 1.591 0.61 2.521 0.088 0.045-0.025 0.078-0.068 0.091-0.118 0.013-0.051 6e-3 -0.104-0.022-0.149l-0.623-1.007c-0.05-0.08-0.152-0.113-0.238-0.075-0.226 0.097-0.413 0.146-0.557 0.146-0.349 0-0.695-0.149-1.026-0.443-0.341-0.302-0.607-0.784-0.788-1.433-0.143-0.509-0.215-1.572-0.215-3.159v-3.143c0-0.105-0.086-0.191-0.191-0.191" fill="#6f7375"/></g><path d="m153.01 13.273h1.195v-9.292h-1.195zm0.594 3.826c0.272 0 0.504-0.097 0.697-0.29 0.192-0.194 0.289-0.427 0.289-0.701 0-0.267-0.097-0.498-0.289-0.692-0.193-0.193-0.425-0.29-0.697-0.29-0.267 0-0.496 0.097-0.69 0.29-0.192 0.194-0.289 0.425-0.289 0.692 0 0.274 0.097 0.507 0.289 0.701 0.194 0.193 0.423 0.29 0.69 0.29" fill="#6f7375"/><g transform="translate(153.61 16.908)"><path d="m0 0c-0.215 0-0.396-0.076-0.554-0.234-0.157-0.158-0.233-0.343-0.233-0.566 0-0.216 0.076-0.399 0.233-0.557 0.318-0.318 0.807-0.31 1.116 0 0.157 0.158 0.233 0.341 0.233 0.557 0 0.223-0.076 0.408-0.233 0.566s-0.341 0.234-0.562 0.234m0-1.973c-0.318 0-0.595 0.117-0.824 0.347s-0.345 0.508-0.345 0.826c0 0.324 0.116 0.605 0.345 0.835 0.463 0.465 1.203 0.457 1.657 0 0.228-0.23 0.345-0.511 0.345-0.835 0-0.318-0.117-0.596-0.345-0.826-0.23-0.23-0.509-0.347-0.833-0.347m-0.403-10.762h0.813v8.909h-0.813zm1.004-0.383h-1.195c-0.105 0-0.191 0.086-0.191 0.191v9.292c0 0.105 0.086 0.191 0.191 0.191h1.195c0.106 0 0.192-0.086 0.192-0.191v-9.292c0-0.105-0.086-0.191-0.192-0.191" fill="#6f7375"/></g></g></g></svg>
